<?xml version="1.0" encoding="utf-8"?>
<!-- Generator: Adobe Illustrator 16.0.0, SVG Export Plug-In . SVG Version: 6.00 Build 0)  -->
<!DOCTYPE svg PUBLIC "-//W3C//DTD SVG 1.1//EN" "http://www.w3.org/Graphics/SVG/1.1/DTD/svg11.dtd">
<svg version="1.1" id="Warstwa_1" xmlns="http://www.w3.org/2000/svg" xmlns:xlink="http://www.w3.org/1999/xlink" x="0px" y="0px"
	 width="258.684px" height="119.728px" viewBox="19.257 9.069 258.684 119.728"
	 enable-background="new 19.257 9.069 258.684 119.728" xml:space="preserve">
<g id="Layer_x0020_1">
	<g id="_227602128">
		<g>
			<defs>
				<path id="SVGID_1_" d="M102.793,94.566H49.081V27.264h23.476C72.556,27.264,76.69,67.932,102.793,94.566L102.793,94.566z"/>
			</defs>
			<clipPath id="SVGID_2_">
				<use xlink:href="#SVGID_1_"  overflow="visible"/>
			</clipPath>
			<g clip-path="url(#SVGID_2_)">
				<g id="_180389856">
					<g>
						<g>
							<g>
								
									<line id="_180390048" fill="none" stroke="#1D1D1B" stroke-width="0.1341" x1="284.426" y1="-47.473" x2="131.012" y2="169.302"/>
								
									<line id="_180390144" fill="none" stroke="#1D1D1B" stroke-width="0.1341" x1="290.856" y1="-47.473" x2="137.441" y2="169.302"/>
								
									<line id="_180390240" fill="none" stroke="#1D1D1B" stroke-width="0.1341" x1="297.285" y1="-47.473" x2="143.869" y2="169.302"/>
								
									<line id="_180390336" fill="none" stroke="#1D1D1B" stroke-width="0.1341" x1="303.711" y1="-47.473" x2="150.296" y2="169.302"/>
								
									<line id="_180390432" fill="none" stroke="#1D1D1B" stroke-width="0.1341" x1="310.14" y1="-47.473" x2="156.724" y2="169.302"/>
								
									<line id="_180390528" fill="none" stroke="#1D1D1B" stroke-width="0.1341" x1="316.566" y1="-47.473" x2="163.151" y2="169.302"/>
								
									<line id="_180390624" fill="none" stroke="#1D1D1B" stroke-width="0.1341" x1="322.995" y1="-47.473" x2="169.581" y2="169.302"/>
								
									<line id="_180390720" fill="none" stroke="#1D1D1B" stroke-width="0.1341" x1="329.423" y1="-47.473" x2="176.007" y2="169.302"/>
								
									<line id="_180390816" fill="none" stroke="#1D1D1B" stroke-width="0.1341" x1="335.853" y1="-47.473" x2="182.435" y2="169.302"/>
								
									<line id="_180390912" fill="none" stroke="#1D1D1B" stroke-width="0.1341" x1="342.277" y1="-47.473" x2="188.864" y2="169.302"/>
							</g>
							<g>
								
									<line id="_180391032" fill="none" stroke="#1D1D1B" stroke-width="0.1341" x1="220.119" y1="-47.473" x2="66.704" y2="169.302"/>
								
									<line id="_180391128" fill="none" stroke="#1D1D1B" stroke-width="0.1341" x1="226.547" y1="-47.473" x2="73.131" y2="169.302"/>
								
									<line id="_180391224" fill="none" stroke="#1D1D1B" stroke-width="0.1341" x1="232.975" y1="-47.473" x2="79.559" y2="169.302"/>
								
									<line id="_180391320" fill="none" stroke="#1D1D1B" stroke-width="0.1341" x1="239.402" y1="-47.473" x2="85.988" y2="169.302"/>
								
									<line id="_180391416" fill="none" stroke="#1D1D1B" stroke-width="0.1341" x1="245.831" y1="-47.473" x2="92.415" y2="169.302"/>
								
									<line id="_180391512" fill="none" stroke="#1D1D1B" stroke-width="0.1341" x1="252.26" y1="-47.473" x2="98.843" y2="169.302"/>
								
									<line id="_180391608" fill="none" stroke="#1D1D1B" stroke-width="0.1341" x1="258.684" y1="-47.473" x2="105.271" y2="169.302"/>
								
									<line id="_180391704" fill="none" stroke="#1D1D1B" stroke-width="0.1341" x1="265.113" y1="-47.473" x2="111.699" y2="169.302"/>
								
									<line id="_180391800" fill="none" stroke="#1D1D1B" stroke-width="0.1341" x1="271.542" y1="-47.473" x2="118.126" y2="169.302"/>
								
									<line id="_180391896" fill="none" stroke="#1D1D1B" stroke-width="0.1341" x1="277.97" y1="-47.473" x2="124.554" y2="169.302"/>
							</g>
							<g>
								
									<line id="_180392016" fill="none" stroke="#1D1D1B" stroke-width="0.1341" x1="155.81" y1="-47.473" x2="2.395" y2="169.302"/>
								
									<line id="_180392112" fill="none" stroke="#1D1D1B" stroke-width="0.1341" x1="162.239" y1="-47.473" x2="8.823" y2="169.302"/>
								
									<line id="_180392208" fill="none" stroke="#1D1D1B" stroke-width="0.1341" x1="168.666" y1="-47.473" x2="15.25" y2="169.302"/>
								
									<line id="_180392304" fill="none" stroke="#1D1D1B" stroke-width="0.1341" x1="175.093" y1="-47.473" x2="21.678" y2="169.302"/>
								
									<line id="_180392400" fill="none" stroke="#1D1D1B" stroke-width="0.1341" x1="181.522" y1="-47.473" x2="28.106" y2="169.302"/>
								
									<line id="_180392496" fill="none" stroke="#1D1D1B" stroke-width="0.1341" x1="187.949" y1="-47.473" x2="34.534" y2="169.302"/>
								
									<line id="_180392592" fill="none" stroke="#1D1D1B" stroke-width="0.1341" x1="194.376" y1="-47.473" x2="40.961" y2="169.302"/>
								
									<line id="_180392688" fill="none" stroke="#1D1D1B" stroke-width="0.1341" x1="200.805" y1="-47.473" x2="47.389" y2="169.302"/>
								
									<line id="_180392784" fill="none" stroke="#1D1D1B" stroke-width="0.1341" x1="207.233" y1="-47.473" x2="53.818" y2="169.302"/>
								
									<line id="_180392880" fill="none" stroke="#1D1D1B" stroke-width="0.1341" x1="213.66" y1="-47.473" x2="60.245" y2="169.302"/>
							</g>
						</g>
						<g>
							<g>
								
									<line id="_180393024" fill="none" stroke="#1D1D1B" stroke-width="0.1341" x1="91.629" y1="-47.473" x2="-61.786" y2="169.302"/>
								
									<line id="_180393120" fill="none" stroke="#1D1D1B" stroke-width="0.1341" x1="98.058" y1="-47.473" x2="-55.358" y2="169.302"/>
								
									<line id="_180393216" fill="none" stroke="#1D1D1B" stroke-width="0.1341" x1="104.485" y1="-47.473" x2="-48.93" y2="169.302"/>
								
									<line id="_180393312" fill="none" stroke="#1D1D1B" stroke-width="0.1341" x1="110.914" y1="-47.473" x2="-42.502" y2="169.302"/>
								
									<line id="_180393408" fill="none" stroke="#1D1D1B" stroke-width="0.1341" x1="117.341" y1="-47.473" x2="-36.075" y2="169.302"/>
								
									<line id="_180393504" fill="none" stroke="#1D1D1B" stroke-width="0.1341" x1="123.769" y1="-47.473" x2="-29.646" y2="169.302"/>
								
									<line id="_180393600" fill="none" stroke="#1D1D1B" stroke-width="0.1341" x1="130.197" y1="-47.473" x2="-23.219" y2="169.302"/>
								
									<line id="_180393696" fill="none" stroke="#1D1D1B" stroke-width="0.1341" x1="136.625" y1="-47.473" x2="-16.791" y2="169.302"/>
								
									<line id="_180393792" fill="none" stroke="#1D1D1B" stroke-width="0.1341" x1="143.052" y1="-47.473" x2="-10.364" y2="169.302"/>
								
									<line id="_180393888" fill="none" stroke="#1D1D1B" stroke-width="0.1341" x1="149.48" y1="-47.473" x2="-3.935" y2="169.302"/>
							</g>
							<g>
								
									<line id="_180394008" fill="none" stroke="#1D1D1B" stroke-width="0.1341" x1="27.321" y1="-47.473" x2="-126.095" y2="169.302"/>
								
									<line id="_180394104" fill="none" stroke="#1D1D1B" stroke-width="0.1341" x1="33.749" y1="-47.473" x2="-119.667" y2="169.302"/>
								
									<line id="_180394200" fill="none" stroke="#1D1D1B" stroke-width="0.1341" x1="40.176" y1="-47.473" x2="-113.24" y2="169.302"/>
								
									<line id="_180394296" fill="none" stroke="#1D1D1B" stroke-width="0.1341" x1="46.604" y1="-47.473" x2="-106.812" y2="169.302"/>
								
									<line id="_180394392" fill="none" stroke="#1D1D1B" stroke-width="0.1341" x1="53.032" y1="-47.473" x2="-100.383" y2="169.302"/>
								
									<line id="_180394488" fill="none" stroke="#1D1D1B" stroke-width="0.1341" x1="59.46" y1="-47.473" x2="-93.956" y2="169.302"/>
								
									<line id="_180394584" fill="none" stroke="#1D1D1B" stroke-width="0.1341" x1="65.887" y1="-47.473" x2="-87.528" y2="169.302"/>
								
									<line id="_180394680" fill="none" stroke="#1D1D1B" stroke-width="0.1341" x1="72.315" y1="-47.473" x2="-81.1" y2="169.302"/>
								
									<line id="_180394776" fill="none" stroke="#1D1D1B" stroke-width="0.1341" x1="78.743" y1="-47.473" x2="-74.672" y2="169.302"/>
								
									<line id="_180394872" fill="none" stroke="#1D1D1B" stroke-width="0.1341" x1="85.171" y1="-47.473" x2="-68.245" y2="169.302"/>
							</g>
							<g>
								
									<line id="_180394992" fill="none" stroke="#1D1D1B" stroke-width="0.1341" x1="-36.988" y1="-47.473" x2="-190.404" y2="169.302"/>
								
									<line id="_180395088" fill="none" stroke="#1D1D1B" stroke-width="0.1341" x1="-30.561" y1="-47.473" x2="-183.976" y2="169.302"/>
								
									<line id="_180395184" fill="none" stroke="#1D1D1B" stroke-width="0.1341" x1="-24.132" y1="-47.473" x2="-177.548" y2="169.302"/>
								
									<line id="_180395280" fill="none" stroke="#1D1D1B" stroke-width="0.1341" x1="-17.705" y1="-47.473" x2="-171.121" y2="169.302"/>
								
									<line id="_180395376" fill="none" stroke="#1D1D1B" stroke-width="0.1341" x1="-11.277" y1="-47.473" x2="-164.692" y2="169.302"/>
								
									<line id="_180395472" fill="none" stroke="#1D1D1B" stroke-width="0.1341" x1="-4.849" y1="-47.473" x2="-158.265" y2="169.302"/>
								
									<line id="_180395568" fill="none" stroke="#1D1D1B" stroke-width="0.1341" x1="1.579" y1="-47.473" x2="-151.836" y2="169.302"/>
								
									<line id="_180395664" fill="none" stroke="#1D1D1B" stroke-width="0.1341" x1="8.006" y1="-47.473" x2="-145.409" y2="169.302"/>
								
									<line id="_180395760" fill="none" stroke="#1D1D1B" stroke-width="0.1341" x1="14.434" y1="-47.473" x2="-138.981" y2="169.302"/>
								
									<line id="_180395856" fill="none" stroke="#1D1D1B" stroke-width="0.1341" x1="20.862" y1="-47.473" x2="-132.553" y2="169.302"/>
							</g>
						</g>
					</g>
				</g>
			</g>
		</g>
		<path fill="none" d="M102.793,94.566H49.081V27.264h23.476C72.556,27.264,76.69,67.932,102.793,94.566L102.793,94.566z"/>
		<g>
			<defs>
				<path id="SVGID_3_" d="M203.678,94.566h53.713V27.264h-23.478C233.914,27.264,229.782,67.932,203.678,94.566L203.678,94.566z"/>
			</defs>
			<clipPath id="SVGID_4_">
				<use xlink:href="#SVGID_3_"  overflow="visible"/>
			</clipPath>
			<g clip-path="url(#SVGID_4_)">
				<g>
					<g id="_180394968">
						<g>
							<g>
								
									<line id="_180396144" fill="none" stroke="#1D1D1B" stroke-width="0.1341" x1="22.043" y1="-47.473" x2="175.458" y2="169.302"/>
								
									<line id="_180396240" fill="none" stroke="#1D1D1B" stroke-width="0.1341" x1="15.616" y1="-47.473" x2="169.03" y2="169.302"/>
								
									<line id="_180396336" fill="none" stroke="#1D1D1B" stroke-width="0.1341" x1="9.188" y1="-47.473" x2="162.604" y2="169.302"/>
								
									<line id="_180396432" fill="none" stroke="#1D1D1B" stroke-width="0.1341" x1="2.759" y1="-47.473" x2="156.175" y2="169.302"/>
								
									<line id="_180396528" fill="none" stroke="#1D1D1B" stroke-width="0.1341" x1="-3.667" y1="-47.473" x2="149.748" y2="169.302"/>
								
									<line id="_180396624" fill="none" stroke="#1D1D1B" stroke-width="0.1341" x1="-10.096" y1="-47.473" x2="143.32" y2="169.302"/>
								
									<line id="_180396720" fill="none" stroke="#1D1D1B" stroke-width="0.1341" x1="-16.524" y1="-47.473" x2="136.892" y2="169.302"/>
								
									<line id="_180396816" fill="none" stroke="#1D1D1B" stroke-width="0.1341" x1="-22.952" y1="-47.473" x2="130.463" y2="169.302"/>
								
									<line id="_180396912" fill="none" stroke="#1D1D1B" stroke-width="0.1341" x1="-29.379" y1="-47.473" x2="124.037" y2="169.302"/>
								
									<line id="_180397008" fill="none" stroke="#1D1D1B" stroke-width="0.1341" x1="-35.807" y1="-47.473" x2="117.609" y2="169.302"/>
							</g>
							<g>
								
									<line id="_180397128" fill="none" stroke="#1D1D1B" stroke-width="0.1341" x1="86.352" y1="-47.473" x2="239.767" y2="169.302"/>
								
									<line id="_180397224" fill="none" stroke="#1D1D1B" stroke-width="0.1341" x1="79.924" y1="-47.473" x2="233.34" y2="169.302"/>
								
									<line id="_180397320" fill="none" stroke="#1D1D1B" stroke-width="0.1341" x1="73.497" y1="-47.473" x2="226.912" y2="169.302"/>
								
									<line id="_180397416" fill="none" stroke="#1D1D1B" stroke-width="0.1341" x1="67.069" y1="-47.473" x2="220.485" y2="169.302"/>
								
									<line id="_180397512" fill="none" stroke="#1D1D1B" stroke-width="0.1341" x1="60.641" y1="-47.473" x2="214.057" y2="169.302"/>
								
									<line id="_180397608" fill="none" stroke="#1D1D1B" stroke-width="0.1341" x1="54.213" y1="-47.473" x2="207.628" y2="169.302"/>
								
									<line id="_180397704" fill="none" stroke="#1D1D1B" stroke-width="0.1341" x1="47.786" y1="-47.473" x2="201.202" y2="169.302"/>
								
									<line id="_180397800" fill="none" stroke="#1D1D1B" stroke-width="0.1341" x1="41.358" y1="-47.473" x2="194.774" y2="169.302"/>
								
									<line id="_180397896" fill="none" stroke="#1D1D1B" stroke-width="0.1341" x1="34.93" y1="-47.473" x2="188.345" y2="169.302"/>
								
									<line id="_180397992" fill="none" stroke="#1D1D1B" stroke-width="0.1341" x1="28.502" y1="-47.473" x2="181.917" y2="169.302"/>
							</g>
							<g>
								
									<line id="_180398112" fill="none" stroke="#1D1D1B" stroke-width="0.1341" x1="150.661" y1="-47.473" x2="304.078" y2="169.302"/>
								
									<line id="_180398208" fill="none" stroke="#1D1D1B" stroke-width="0.1341" x1="144.234" y1="-47.473" x2="297.649" y2="169.302"/>
								
									<line id="_180398304" fill="none" stroke="#1D1D1B" stroke-width="0.1341" x1="137.805" y1="-47.473" x2="291.223" y2="169.302"/>
								
									<line id="_180398400" fill="none" stroke="#1D1D1B" stroke-width="0.1341" x1="131.378" y1="-47.473" x2="284.794" y2="169.302"/>
								
									<line id="_180398496" fill="none" stroke="#1D1D1B" stroke-width="0.1341" x1="124.951" y1="-47.473" x2="278.365" y2="169.302"/>
								
									<line id="_180398592" fill="none" stroke="#1D1D1B" stroke-width="0.1341" x1="118.522" y1="-47.473" x2="271.938" y2="169.302"/>
								
									<line id="_180398688" fill="none" stroke="#1D1D1B" stroke-width="0.1341" x1="112.094" y1="-47.473" x2="265.509" y2="169.302"/>
								
									<line id="_180398784" fill="none" stroke="#1D1D1B" stroke-width="0.1341" x1="105.667" y1="-47.473" x2="259.081" y2="169.302"/>
								
									<line id="_180398880" fill="none" stroke="#1D1D1B" stroke-width="0.1341" x1="99.239" y1="-47.473" x2="252.656" y2="169.302"/>
								
									<line id="_180398976" fill="none" stroke="#1D1D1B" stroke-width="0.1341" x1="92.811" y1="-47.473" x2="246.227" y2="169.302"/>
							</g>
						</g>
						<g>
							<g>
								
									<line id="_180399120" fill="none" stroke="#1D1D1B" stroke-width="0.1341" x1="214.842" y1="-47.473" x2="368.258" y2="169.302"/>
								
									<line id="_180399216" fill="none" stroke="#1D1D1B" stroke-width="0.1341" x1="208.415" y1="-47.473" x2="361.83" y2="169.302"/>
								
									<line id="_180399312" fill="none" stroke="#1D1D1B" stroke-width="0.1341" x1="201.986" y1="-47.473" x2="355.403" y2="169.302"/>
								
									<line id="_180399408" fill="none" stroke="#1D1D1B" stroke-width="0.1341" x1="195.559" y1="-47.473" x2="348.974" y2="169.302"/>
								
									<line id="_180399504" fill="none" stroke="#1D1D1B" stroke-width="0.1341" x1="189.131" y1="-47.473" x2="342.544" y2="169.302"/>
								
									<line id="_180399600" fill="none" stroke="#1D1D1B" stroke-width="0.1341" x1="182.703" y1="-47.473" x2="336.121" y2="169.302"/>
								
									<line id="_180399696" fill="none" stroke="#1D1D1B" stroke-width="0.1341" x1="176.275" y1="-47.473" x2="329.692" y2="169.302"/>
								
									<line id="_180399792" fill="none" stroke="#1D1D1B" stroke-width="0.1341" x1="169.848" y1="-47.473" x2="323.263" y2="169.302"/>
								
									<line id="_180399888" fill="none" stroke="#1D1D1B" stroke-width="0.1341" x1="163.419" y1="-47.473" x2="316.834" y2="169.302"/>
								
									<line id="_180399984" fill="none" stroke="#1D1D1B" stroke-width="0.1341" x1="156.992" y1="-47.473" x2="310.406" y2="169.302"/>
							</g>
							<g>
								
									<line id="_180400104" fill="none" stroke="#1D1D1B" stroke-width="0.1341" x1="279.152" y1="-47.473" x2="432.567" y2="169.302"/>
								
									<line id="_180400200" fill="none" stroke="#1D1D1B" stroke-width="0.1341" x1="272.723" y1="-47.473" x2="426.137" y2="169.302"/>
								
									<line id="_180400296" fill="none" stroke="#1D1D1B" stroke-width="0.1341" x1="266.294" y1="-47.473" x2="419.711" y2="169.302"/>
								
									<line id="_180400392" fill="none" stroke="#1D1D1B" stroke-width="0.1341" x1="259.868" y1="-47.473" x2="413.283" y2="169.302"/>
								
									<line id="_180400488" fill="none" stroke="#1D1D1B" stroke-width="0.1341" x1="253.441" y1="-47.473" x2="406.854" y2="169.302"/>
								
									<line id="_180400584" fill="none" stroke="#1D1D1B" stroke-width="0.1341" x1="247.012" y1="-47.473" x2="400.427" y2="169.302"/>
								
									<line id="_227574336" fill="none" stroke="#1D1D1B" stroke-width="0.1341" x1="240.583" y1="-47.473" x2="394.001" y2="169.302"/>
								
									<line id="_227574432" fill="none" stroke="#1D1D1B" stroke-width="0.1341" x1="234.156" y1="-47.473" x2="387.574" y2="169.302"/>
								
									<line id="_227574528" fill="none" stroke="#1D1D1B" stroke-width="0.1341" x1="227.729" y1="-47.473" x2="381.145" y2="169.302"/>
								
									<line id="_227574624" fill="none" stroke="#1D1D1B" stroke-width="0.1341" x1="221.301" y1="-47.473" x2="374.716" y2="169.302"/>
							</g>
							<g>
								
									<line id="_227574744" fill="none" stroke="#1D1D1B" stroke-width="0.1341" x1="343.462" y1="-47.473" x2="496.875" y2="169.302"/>
								
									<line id="_227574840" fill="none" stroke="#1D1D1B" stroke-width="0.1341" x1="337.034" y1="-47.473" x2="490.449" y2="169.302"/>
								
									<line id="_227574936" fill="none" stroke="#1D1D1B" stroke-width="0.1341" x1="330.605" y1="-47.473" x2="484.02" y2="169.302"/>
								
									<line id="_227575032" fill="none" stroke="#1D1D1B" stroke-width="0.1341" x1="324.176" y1="-47.473" x2="477.594" y2="169.302"/>
								
									<line id="_227575128" fill="none" stroke="#1D1D1B" stroke-width="0.1341" x1="317.748" y1="-47.473" x2="471.165" y2="169.302"/>
								
									<line id="_227575224" fill="none" stroke="#1D1D1B" stroke-width="0.1341" x1="311.321" y1="-47.473" x2="464.736" y2="169.302"/>
								
									<line id="_227575320" fill="none" stroke="#1D1D1B" stroke-width="0.1341" x1="304.892" y1="-47.473" x2="458.307" y2="169.302"/>
								
									<line id="_227575416" fill="none" stroke="#1D1D1B" stroke-width="0.1341" x1="298.465" y1="-47.473" x2="451.878" y2="169.302"/>
								
									<line id="_227575512" fill="none" stroke="#1D1D1B" stroke-width="0.1341" x1="292.037" y1="-47.473" x2="445.455" y2="169.302"/>
								
									<line id="_227575608" fill="none" stroke="#1D1D1B" stroke-width="0.1341" x1="285.612" y1="-47.473" x2="439.026" y2="169.302"/>
							</g>
						</g>
					</g>
				</g>
			</g>
		</g>
		<path fill="none" d="M203.678,94.566h53.713V27.264h-23.478C233.914,27.264,229.782,67.932,203.678,94.566L203.678,94.566z"/>
		<polygon fill="none" points="-76.327,-54.894 397.905,-54.894 397.905,225.412 -76.327,225.412 		"/>
		<polygon fill="#1D1D1B" points="257.354,93.867 49.081,93.867 49.081,95.264 257.354,95.264 257.354,99.639 266.453,94.566 
			257.354,89.495 		"/>
		<path fill="#1D1D1B" d="M258.202,112.705l2.794-4.429l-2.585-4.094h1.619l1.175,1.997c0.219,0.382,0.398,0.7,0.531,0.957
			c0.212-0.354,0.404-0.666,0.585-0.939l1.289-2.015h1.546l-2.641,4.015l2.843,4.508h-1.59l-1.57-2.648l-0.417-0.715l-2.008,3.363
			H258.202L258.202,112.705z"/>
		<path fill="#1D1D1B" d="M96.042,109.668v-1.162h3.188v1.162H96.042z M100.086,110.026l1.089-0.103
			c0.081,0.592,0.268,1.035,0.561,1.332c0.295,0.299,0.648,0.448,1.063,0.448c0.5,0,0.923-0.211,1.266-0.63
			c0.347-0.421,0.521-0.978,0.521-1.669c0-0.66-0.166-1.181-0.498-1.561c-0.332-0.382-0.767-0.573-1.306-0.573
			c-0.334,0-0.635,0.085-0.904,0.255c-0.269,0.169-0.479,0.387-0.633,0.657l-0.974-0.14l0.818-4.836h4.199v1.104h-3.37l-0.455,2.53
			c0.507-0.395,1.039-0.593,1.596-0.593c0.737,0,1.358,0.284,1.866,0.854c0.507,0.57,0.761,1.302,0.761,2.196
			c0,0.854-0.224,1.591-0.669,2.21c-0.542,0.762-1.281,1.142-2.218,1.142c-0.769,0-1.396-0.239-1.882-0.719
			C100.433,111.453,100.156,110.817,100.086,110.026L100.086,110.026z"/>
		<path fill="#1D1D1B" d="M201.027,110.047l1.089-0.103c0.081,0.591,0.268,1.034,0.562,1.332c0.294,0.299,0.648,0.448,1.063,0.448
			c0.5,0,0.922-0.212,1.267-0.629c0.347-0.421,0.52-0.979,0.52-1.672c0-0.659-0.166-1.178-0.498-1.561
			c-0.331-0.38-0.767-0.571-1.305-0.571c-0.334,0-0.636,0.085-0.904,0.254c-0.27,0.169-0.479,0.389-0.634,0.658l-0.974-0.14
			l0.817-4.837h4.2v1.106h-3.37l-0.455,2.528c0.507-0.396,1.04-0.591,1.596-0.591c0.737,0,1.359,0.284,1.866,0.854
			c0.507,0.57,0.761,1.302,0.761,2.196c0,0.853-0.224,1.59-0.669,2.209c-0.541,0.761-1.281,1.143-2.218,1.143
			c-0.769,0-1.396-0.238-1.881-0.719C201.373,111.474,201.096,110.839,201.027,110.047L201.027,110.047z"/>
		<path fill="#1D1D1B" d="M73.176,27.164c3.01,22.534,11.114,42.648,22.668,58.132c11.536,15.461,26.514,26.307,43.288,30.333
			c1.574,0.379,3.144,0.691,4.704,0.943c20.044,3.226,39.406-3.735,55.016-18.007c15.638-14.297,27.516-35.931,32.555-62.016
			c0.555-2.868,1.026-5.787,1.41-8.75l1.238,0.195c-0.389,3.004-0.864,5.954-1.423,8.844c-5.102,26.403-17.137,48.312-32.986,62.803
			c-15.878,14.515-35.582,21.595-55.985,18.312c-1.596-0.257-3.193-0.576-4.789-0.96c-17.054-4.094-32.273-15.109-43.987-30.808
			c-11.698-15.678-19.903-36.03-22.947-58.819L73.176,27.164L73.176,27.164z"/>
		<path fill="#FFFFFF" d="M203.855,89.905c-2.307,0-4.179,2.088-4.179,4.661c0,2.574,1.872,4.661,4.179,4.661
			c2.309,0,4.181-2.087,4.181-4.661C208.036,91.993,206.164,89.905,203.855,89.905z"/>
		<path fill="#1D1D1B" d="M203.855,90.604c-0.979,0-1.869,0.445-2.511,1.161l-0.002-0.002c-0.641,0.718-1.04,1.708-1.04,2.803
			c0,1.094,0.399,2.086,1.04,2.802h0.002c0.642,0.716,1.532,1.16,2.511,1.16c0.982,0,1.87-0.444,2.514-1.16h0.001
			c0.643-0.716,1.04-1.708,1.04-2.802c0-1.095-0.397-2.085-1.04-2.803l-0.001,0.002C205.725,91.05,204.837,90.604,203.855,90.604z
			 M200.457,90.776c0.87-0.97,2.072-1.569,3.398-1.569c1.328,0,2.53,0.6,3.4,1.569v0.004c0.868,0.969,1.407,2.308,1.407,3.786
			c0,1.478-0.539,2.817-1.407,3.787v0.004c-0.87,0.969-2.072,1.568-3.4,1.568c-1.326,0-2.528-0.6-3.398-1.568v-0.004
			c-0.87-0.97-1.408-2.31-1.408-3.787c0-1.479,0.538-2.817,1.408-3.786V90.776z"/>
		<path fill="#FFFFFF" d="M102.793,89.905c-2.308,0-4.18,2.088-4.18,4.661c0,2.574,1.872,4.661,4.18,4.661s4.181-2.087,4.181-4.661
			C106.974,91.993,105.101,89.905,102.793,89.905z"/>
		<path fill="#1D1D1B" d="M102.793,90.604c-0.98,0-1.869,0.445-2.512,1.161l-0.002-0.002c-0.642,0.718-1.04,1.708-1.04,2.803
			c0,1.094,0.398,2.086,1.04,2.802h0.002c0.643,0.716,1.531,1.16,2.512,1.16c0.981,0,1.869-0.444,2.513-1.16h0.001
			c0.642-0.716,1.04-1.708,1.04-2.802c0-1.095-0.398-2.085-1.04-2.803l-0.001,0.002C104.663,91.05,103.775,90.604,102.793,90.604z
			 M99.394,90.776c0.87-0.97,2.072-1.569,3.399-1.569s2.53,0.6,3.399,1.569v0.004c0.869,0.969,1.408,2.308,1.408,3.786
			c0,1.478-0.539,2.817-1.408,3.787v0.004c-0.869,0.969-2.072,1.568-3.399,1.568s-2.529-0.6-3.399-1.568v-0.004
			c-0.869-0.97-1.407-2.31-1.407-3.787c0-1.479,0.538-2.817,1.407-3.786V90.776z"/>
	</g>
</g>
</svg>
