<?xml version="1.0" encoding="UTF-8"?>
<!DOCTYPE svg PUBLIC "-//W3C//DTD SVG 1.1//EN" "http://www.w3.org/Graphics/SVG/1.1/DTD/svg11.dtd">
<!-- Creator: CorelDRAW -->
<svg xmlns="http://www.w3.org/2000/svg" xml:space="preserve" width="113.446mm" height="60.1546mm" style="shape-rendering:geometricPrecision; text-rendering:geometricPrecision; image-rendering:optimizeQuality; fill-rule:evenodd; clip-rule:evenodd"
viewBox="0 0 45.9629 24.3718"
 xmlns:xlink="http://www.w3.org/1999/xlink">
 <defs>
  <style type="text/css">
   <![CDATA[
    .fil0 {fill:none}
    .fil4 {fill:#0093DD}
    .fil3 {fill:#0093DD;fill-rule:nonzero}
    .fil2 {fill:#1F1A17;fill-rule:nonzero}
    .fil1 {fill:#CCCCCC;fill-rule:nonzero}
   ]]>
  </style>
 </defs>
 <g id="Layer_x0020_1">
  <metadata id="CorelCorpID_0Corel-Layer"/>
  <g id="_215599976">
   <polygon id="_215596664" class="fil0" points="-1.1692e-015,-3.9746e-014 45.9629,-3.9746e-014 45.9629,24.3718 -1.1692e-015,24.3718 "/>
   <path id="_215596568" class="fil1" d="M3.2614 0.0313183l0 1.60043 1.58001 0 0 -1.60043 0.0405153 0 0 1.60043 1.58001 0 0 -1.60043 0.0405153 0 0 1.60043 1.58001 0 0 -1.60043 0.0405153 0 0 1.60043 1.58001 0 0 -1.60043 0.0405153 0 0 1.60043 1.58001 0 0 -1.60043 0.0405153 0 0 1.60043 1.58001 0 0 -1.60043 0.0405153 0 0 1.60043 1.58001 0 0 -1.60043 0.0405153 0 0 1.60043 1.58001 0 0 -1.60043 0.0405153 0 0 1.60043 1.58001 0 0 -1.60043 0.0405153 0 0 1.60043 1.58001 0 0 -1.60043 0.0405153 0 0 1.60043 1.58001 0 0 -1.60043 0.0405153 0 0 1.60043 1.58001 0 0 -1.60043 0.0405153 0 0 1.60043 1.58001 0 0 -1.60043 0.0405153 0 0 1.60043 1.58001 0 0 -1.60043 0.0405153 0 0 1.60043 1.58001 0 0 -1.60043 0.0405153 0 0 1.60043 1.58001 0 0 -1.60043 0.0405153 0 0 1.60043 1.58001 0 0 -1.60043 0.0405153 0 0 1.60043 1.58001 0 0 -1.60043 0.0405153 0 0 1.60043 1.58001 0 0 -1.60043 0.0405153 0 0 1.60043 1.58001 0 0 -1.60043 0.0405153 0 0 1.60043 1.58001 0 0 -1.60043 0.0405153 0 0 1.60043 1.58001 0 0 -1.60043 0.0405153 0 0 1.60043 1.58001 0 0 -1.60043 0.0405153 0 0 1.60043 1.58001 0 0 -1.60043 0.0405153 0 0 1.60043 1.58001 0 0 -1.60043 0.0405153 0 0 1.60043 1.58001 0 0 -1.60043 0.0405153 0 0 1.60043 0.5677 0 0 0.0405153 -0.5677 0 0 1.57993 0.5677 0 0 0.0405153 -0.5677 0 0 1.57993 0.5677 0 0 0.0405153 -0.5677 0 0 1.57993 0.5677 0 0 0.0405153 -0.5677 0 0 1.57993 0.5677 0 0 0.0405153 -0.5677 0 0 1.57993 0.5677 0 0 0.0405153 -0.5677 0 0 1.57993 0.5677 0 0 0.0405153 -0.5677 0 0 1.57993 0.5677 0 0 0.0405153 -0.5677 0 0 1.57993 0.5677 0 0 0.0405153 -0.5677 0 0 1.57993 0.5677 0 0 0.0405153 -0.5677 0 0 1.57993 0.5677 0 0 0.0405153 -0.5677 0 0 1.57993 0.5677 0 0 0.0405153 -0.5677 0 0 1.57993 0.5677 0 0 0.0405153 -0.5677 0 0 1.57993 0.5677 0 0 0.0405153 -0.5677 0 0 1.60238 -0.0405153 0 0 -1.60238 -1.58001 0 0 1.60238 -0.0405153 0 0 -1.60238 -1.58001 0 0 1.60238 -0.0405153 0 0 -1.60238 -1.58001 0 0 1.60238 -0.0405153 0 0 -1.60238 -1.58001 0 0 1.60238 -0.0405153 0 0 -1.60238 -1.58001 0 0 1.60238 -0.0405153 0 0 -1.60238 -1.58001 0 0 1.60238 -0.0405153 0 0 -1.60238 -1.58001 0 0 1.60238 -0.0405153 0 0 -1.60238 -1.58001 0 0 1.60238 -0.0405153 0 0 -1.60238 -1.58001 0 0 1.60238 -0.0405153 0 0 -1.60238 -1.58001 0 0 1.60238 -0.0405153 0 0 -1.60238 -1.58001 0 0 1.60238 -0.0405153 0 0 -1.60238 -1.58001 0 0 1.60238 -0.0405153 0 0 -1.60238 -1.58001 0 0 1.60238 -0.0405153 0 0 -1.60238 -1.58001 0 0 1.60238 -0.0405153 0 0 -1.60238 -1.58001 0 0 1.60238 -0.0405153 0 0 -1.60238 -1.58001 0 0 1.60238 -0.0405153 0 0 -1.60238 -1.58001 0 0 1.60238 -0.0405153 0 0 -1.60238 -1.58001 0 0 1.60238 -0.0405153 0 0 -1.60238 -1.58001 0 0 1.60238 -0.0405153 0 0 -1.60238 -1.58001 0 0 1.60238 -0.0405153 0 0 -1.60238 -1.58001 0 0 1.60238 -0.0405153 0 0 -1.60238 -1.58001 0 0 1.60238 -0.0405153 0 0 -1.60238 -1.58001 0 0 1.60238 -0.0405153 0 0 -1.60238 -1.58001 0 0 1.60238 -0.0405153 0 0 -1.60238 -1.58001 0 0 1.60238 -0.0405153 0 0 -1.60238 -1.58001 0 0 1.60238 -0.0405153 0 0 -1.60238 -1.58001 0 0 1.60238 -0.0405153 0 0 -1.60238 -1.60035 0 0 -0.0405153 1.60035 0 0 -1.57993 -1.60035 0 0 -0.0405153 1.60035 0 0 -1.57993 -1.60035 0 0 -0.0405153 1.60035 0 0 -1.57993 -1.60035 0 0 -0.0405153 1.60035 0 0 -1.57993 -1.60035 0 0 -0.0405153 1.60035 0 0 -1.57993 -1.60035 0 0 -0.0405153 1.60035 0 0 -1.57993 -1.60035 0 0 -0.0405153 1.60035 0 0 -1.57993 -1.60035 0 0 -0.0405153 1.60035 0 0 -1.57993 -1.60035 0 0 -0.0405153 1.60035 0 0 -1.57993 -1.60035 0 0 -0.0405153 1.60035 0 0 -1.57993 -1.60035 0 0 -0.0405153 1.60035 0 0 -1.57993 -1.60035 0 0 -0.0405153 1.60035 0 0 -1.57993 -1.60035 0 0 -0.0405153 1.60035 0 0 -1.57993 -1.60035 0 0 -0.0405153 1.60035 0 0 -1.60043 0.0405153 0 0 1.60043 1.58001 0 0 -1.60043 0.0405153 0zm0 1.64095l0 1.57993 1.58001 0 0 -1.57993 -1.58001 0zm0 1.62045l0 1.57993 1.58001 0 0 -1.57993 -1.58001 0zm0 1.62045l0 1.57993 1.58001 0 0 -1.57993 -1.58001 0zm0 1.62045l0 1.57993 1.58001 0 0 -1.57993 -1.58001 0zm0 1.62045l0 1.57993 1.58001 0 0 -1.57993 -1.58001 0zm0 1.62045l0 1.57993 1.58001 0 0 -1.57993 -1.58001 0zm0 1.62045l0 1.57993 1.58001 0 0 -1.57993 -1.58001 0zm0 1.62045l0 1.57993 1.58001 0 0 -1.57993 -1.58001 0zm0 1.62045l0 1.57993 1.58001 0 0 -1.57993 -1.58001 0zm0 1.62045l0 1.57993 1.58001 0 0 -1.57993 -1.58001 0zm0 1.62045l0 1.57993 1.58001 0 0 -1.57993 -1.58001 0zm0 1.62045l0 1.57993 1.58001 0 0 -1.57993 -1.58001 0zm0 1.62045l0 1.57993 1.58001 0 0 -1.57993 -1.58001 0zm-0.0405153 1.57993l0 -1.57993 -1.58001 0 0 1.57993 1.58001 0zm0 -1.62045l0 -1.57993 -1.58001 0 0 1.57993 1.58001 0zm0 -1.62045l0 -1.57993 -1.58001 0 0 1.57993 1.58001 0zm0 -1.62045l0 -1.57993 -1.58001 0 0 1.57993 1.58001 0zm0 -1.62045l0 -1.57993 -1.58001 0 0 1.57993 1.58001 0zm0 -1.62045l0 -1.57993 -1.58001 0 0 1.57993 1.58001 0zm0 -1.62045l0 -1.57993 -1.58001 0 0 1.57993 1.58001 0zm0 -1.62045l0 -1.57993 -1.58001 0 0 1.57993 1.58001 0zm0 -1.62045l0 -1.57993 -1.58001 0 0 1.57993 1.58001 0zm0 -1.62045l0 -1.57993 -1.58001 0 0 1.57993 1.58001 0zm0 -1.62045l0 -1.57993 -1.58001 0 0 1.57993 1.58001 0zm0 -1.62045l0 -1.57993 -1.58001 0 0 1.57993 1.58001 0zm0 -1.62045l0 -1.57993 -1.58001 0 0 1.57993 1.58001 0zm1.66104 19.4454l1.58001 0 0 -1.57993 -1.58001 0 0 1.57993zm1.62053 0l1.58001 0 0 -1.57993 -1.58001 0 0 1.57993zm1.62053 0l1.58001 0 0 -1.57993 -1.58001 0 0 1.57993zm1.62053 0l1.58001 0 0 -1.57993 -1.58001 0 0 1.57993zm1.62053 0l1.58001 0 0 -1.57993 -1.58001 0 0 1.57993zm1.62053 0l1.58001 0 0 -1.57993 -1.58001 0 0 1.57993zm1.62053 0l1.58001 0 0 -1.57993 -1.58001 0 0 1.57993zm1.62053 0l1.58001 0 0 -1.57993 -1.58001 0 0 1.57993zm1.62053 0l1.58001 0 0 -1.57993 -1.58001 0 0 1.57993zm1.62053 0l1.58001 0 0 -1.57993 -1.58001 0 0 1.57993zm1.62053 0l1.58001 0 0 -1.57993 -1.58001 0 0 1.57993zm1.62053 0l1.58001 0 0 -1.57993 -1.58001 0 0 1.57993zm1.62053 0l1.58001 0 0 -1.57993 -1.58001 0 0 1.57993zm1.62053 0l1.58001 0 0 -1.57993 -1.58001 0 0 1.57993zm1.62053 0l1.58001 0 0 -1.57993 -1.58001 0 0 1.57993zm1.62053 0l1.58001 0 0 -1.57993 -1.58001 0 0 1.57993zm1.62053 0l1.58001 0 0 -1.57993 -1.58001 0 0 1.57993zm1.62053 0l1.58001 0 0 -1.57993 -1.58001 0 0 1.57993zm1.62053 0l1.58001 0 0 -1.57993 -1.58001 0 0 1.57993zm1.62053 0l1.58001 0 0 -1.57993 -1.58001 0 0 1.57993zm1.62053 0l1.58001 0 0 -1.57993 -1.58001 0 0 1.57993zm1.62053 0l1.58001 0 0 -1.57993 -1.58001 0 0 1.57993zm1.62053 0l1.58001 0 0 -1.57993 -1.58001 0 0 1.57993zm1.62053 0l1.58001 0 0 -1.57993 -1.58001 0 0 1.57993zm1.62053 0l1.58001 0 0 -1.57993 -1.58001 0 0 1.57993zm-38.8927 -1.62045l1.58001 0 0 -1.57993 -1.58001 0 0 1.57993zm1.62053 0l1.58001 0 0 -1.57993 -1.58001 0 0 1.57993zm1.62053 0l1.58001 0 0 -1.57993 -1.58001 0 0 1.57993zm1.62053 0l1.58001 0 0 -1.57993 -1.58001 0 0 1.57993zm1.62053 0l1.58001 0 0 -1.57993 -1.58001 0 0 1.57993zm1.62053 0l1.58001 0 0 -1.57993 -1.58001 0 0 1.57993zm1.62053 0l1.58001 0 0 -1.57993 -1.58001 0 0 1.57993zm1.62053 0l1.58001 0 0 -1.57993 -1.58001 0 0 1.57993zm1.62053 0l1.58001 0 0 -1.57993 -1.58001 0 0 1.57993zm1.62053 0l1.58001 0 0 -1.57993 -1.58001 0 0 1.57993zm1.62053 0l1.58001 0 0 -1.57993 -1.58001 0 0 1.57993zm1.62053 0l1.58001 0 0 -1.57993 -1.58001 0 0 1.57993zm1.62053 0l1.58001 0 0 -1.57993 -1.58001 0 0 1.57993zm1.62053 0l1.58001 0 0 -1.57993 -1.58001 0 0 1.57993zm1.62053 0l1.58001 0 0 -1.57993 -1.58001 0 0 1.57993zm1.62053 0l1.58001 0 0 -1.57993 -1.58001 0 0 1.57993zm1.62053 0l1.58001 0 0 -1.57993 -1.58001 0 0 1.57993zm1.62053 0l1.58001 0 0 -1.57993 -1.58001 0 0 1.57993zm1.62053 0l1.58001 0 0 -1.57993 -1.58001 0 0 1.57993zm1.62053 0l1.58001 0 0 -1.57993 -1.58001 0 0 1.57993zm1.62053 0l1.58001 0 0 -1.57993 -1.58001 0 0 1.57993zm1.62053 0l1.58001 0 0 -1.57993 -1.58001 0 0 1.57993zm1.62053 0l1.58001 0 0 -1.57993 -1.58001 0 0 1.57993zm1.62053 0l1.58001 0 0 -1.57993 -1.58001 0 0 1.57993zm1.62053 0l1.58001 0 0 -1.57993 -1.58001 0 0 1.57993zm-38.8927 -1.62045l1.58001 0 0 -1.57993 -1.58001 0 0 1.57993zm1.62053 0l1.58001 0 0 -1.57993 -1.58001 0 0 1.57993zm1.62053 0l1.58001 0 0 -1.57993 -1.58001 0 0 1.57993zm1.62053 0l1.58001 0 0 -1.57993 -1.58001 0 0 1.57993zm1.62053 0l1.58001 0 0 -1.57993 -1.58001 0 0 1.57993zm1.62053 0l1.58001 0 0 -1.57993 -1.58001 0 0 1.57993zm1.62053 0l1.58001 0 0 -1.57993 -1.58001 0 0 1.57993zm1.62053 0l1.58001 0 0 -1.57993 -1.58001 0 0 1.57993zm1.62053 0l1.58001 0 0 -1.57993 -1.58001 0 0 1.57993zm1.62053 0l1.58001 0 0 -1.57993 -1.58001 0 0 1.57993zm1.62053 0l1.58001 0 0 -1.57993 -1.58001 0 0 1.57993zm1.62053 0l1.58001 0 0 -1.57993 -1.58001 0 0 1.57993zm1.62053 0l1.58001 0 0 -1.57993 -1.58001 0 0 1.57993zm1.62053 0l1.58001 0 0 -1.57993 -1.58001 0 0 1.57993zm1.62053 0l1.58001 0 0 -1.57993 -1.58001 0 0 1.57993zm1.62053 0l1.58001 0 0 -1.57993 -1.58001 0 0 1.57993zm1.62053 0l1.58001 0 0 -1.57993 -1.58001 0 0 1.57993zm1.62053 0l1.58001 0 0 -1.57993 -1.58001 0 0 1.57993zm1.62053 0l1.58001 0 0 -1.57993 -1.58001 0 0 1.57993zm1.62053 0l1.58001 0 0 -1.57993 -1.58001 0 0 1.57993zm1.62053 0l1.58001 0 0 -1.57993 -1.58001 0 0 1.57993zm1.62053 0l1.58001 0 0 -1.57993 -1.58001 0 0 1.57993zm1.62053 0l1.58001 0 0 -1.57993 -1.58001 0 0 1.57993zm1.62053 0l1.58001 0 0 -1.57993 -1.58001 0 0 1.57993zm1.62053 0l1.58001 0 0 -1.57993 -1.58001 0 0 1.57993zm-38.8927 -1.62045l1.58001 0 0 -1.57993 -1.58001 0 0 1.57993zm1.62053 0l1.58001 0 0 -1.57993 -1.58001 0 0 1.57993zm1.62053 0l1.58001 0 0 -1.57993 -1.58001 0 0 1.57993zm1.62053 0l1.58001 0 0 -1.57993 -1.58001 0 0 1.57993zm1.62053 0l1.58001 0 0 -1.57993 -1.58001 0 0 1.57993zm1.62053 0l1.58001 0 0 -1.57993 -1.58001 0 0 1.57993zm1.62053 0l1.58001 0 0 -1.57993 -1.58001 0 0 1.57993zm1.62053 0l1.58001 0 0 -1.57993 -1.58001 0 0 1.57993zm1.62053 0l1.58001 0 0 -1.57993 -1.58001 0 0 1.57993zm1.62053 0l1.58001 0 0 -1.57993 -1.58001 0 0 1.57993zm1.62053 0l1.58001 0 0 -1.57993 -1.58001 0 0 1.57993zm1.62053 0l1.58001 0 0 -1.57993 -1.58001 0 0 1.57993zm1.62053 0l1.58001 0 0 -1.57993 -1.58001 0 0 1.57993zm1.62053 0l1.58001 0 0 -1.57993 -1.58001 0 0 1.57993zm1.62053 0l1.58001 0 0 -1.57993 -1.58001 0 0 1.57993zm1.62053 0l1.58001 0 0 -1.57993 -1.58001 0 0 1.57993zm1.62053 0l1.58001 0 0 -1.57993 -1.58001 0 0 1.57993zm1.62053 0l1.58001 0 0 -1.57993 -1.58001 0 0 1.57993zm1.62053 0l1.58001 0 0 -1.57993 -1.58001 0 0 1.57993zm1.62053 0l1.58001 0 0 -1.57993 -1.58001 0 0 1.57993zm1.62053 0l1.58001 0 0 -1.57993 -1.58001 0 0 1.57993zm1.62053 0l1.58001 0 0 -1.57993 -1.58001 0 0 1.57993zm1.62053 0l1.58001 0 0 -1.57993 -1.58001 0 0 1.57993zm1.62053 0l1.58001 0 0 -1.57993 -1.58001 0 0 1.57993zm1.62053 0l1.58001 0 0 -1.57993 -1.58001 0 0 1.57993zm-38.8927 -1.62045l1.58001 0 0 -1.57993 -1.58001 0 0 1.57993zm1.62053 0l1.58001 0 0 -1.57993 -1.58001 0 0 1.57993zm1.62053 0l1.58001 0 0 -1.57993 -1.58001 0 0 1.57993zm1.62053 0l1.58001 0 0 -1.57993 -1.58001 0 0 1.57993zm1.62053 0l1.58001 0 0 -1.57993 -1.58001 0 0 1.57993zm1.62053 0l1.58001 0 0 -1.57993 -1.58001 0 0 1.57993zm1.62053 0l1.58001 0 0 -1.57993 -1.58001 0 0 1.57993zm1.62053 0l1.58001 0 0 -1.57993 -1.58001 0 0 1.57993zm1.62053 0l1.58001 0 0 -1.57993 -1.58001 0 0 1.57993zm1.62053 0l1.58001 0 0 -1.57993 -1.58001 0 0 1.57993zm1.62053 0l1.58001 0 0 -1.57993 -1.58001 0 0 1.57993zm1.62053 0l1.58001 0 0 -1.57993 -1.58001 0 0 1.57993zm1.62053 0l1.58001 0 0 -1.57993 -1.58001 0 0 1.57993zm1.62053 0l1.58001 0 0 -1.57993 -1.58001 0 0 1.57993zm1.62053 0l1.58001 0 0 -1.57993 -1.58001 0 0 1.57993zm1.62053 0l1.58001 0 0 -1.57993 -1.58001 0 0 1.57993zm1.62053 0l1.58001 0 0 -1.57993 -1.58001 0 0 1.57993zm1.62053 0l1.58001 0 0 -1.57993 -1.58001 0 0 1.57993zm1.62053 0l1.58001 0 0 -1.57993 -1.58001 0 0 1.57993zm1.62053 0l1.58001 0 0 -1.57993 -1.58001 0 0 1.57993zm1.62053 0l1.58001 0 0 -1.57993 -1.58001 0 0 1.57993zm1.62053 0l1.58001 0 0 -1.57993 -1.58001 0 0 1.57993zm1.62053 0l1.58001 0 0 -1.57993 -1.58001 0 0 1.57993zm1.62053 0l1.58001 0 0 -1.57993 -1.58001 0 0 1.57993zm1.62053 0l1.58001 0 0 -1.57993 -1.58001 0 0 1.57993zm-38.8927 -1.62045l1.58001 0 0 -1.57993 -1.58001 0 0 1.57993zm1.62053 0l1.58001 0 0 -1.57993 -1.58001 0 0 1.57993zm1.62053 0l1.58001 0 0 -1.57993 -1.58001 0 0 1.57993zm1.62053 0l1.58001 0 0 -1.57993 -1.58001 0 0 1.57993zm1.62053 0l1.58001 0 0 -1.57993 -1.58001 0 0 1.57993zm1.62053 0l1.58001 0 0 -1.57993 -1.58001 0 0 1.57993zm1.62053 0l1.58001 0 0 -1.57993 -1.58001 0 0 1.57993zm1.62053 0l1.58001 0 0 -1.57993 -1.58001 0 0 1.57993zm1.62053 0l1.58001 0 0 -1.57993 -1.58001 0 0 1.57993zm1.62053 0l1.58001 0 0 -1.57993 -1.58001 0 0 1.57993zm1.62053 0l1.58001 0 0 -1.57993 -1.58001 0 0 1.57993zm1.62053 0l1.58001 0 0 -1.57993 -1.58001 0 0 1.57993zm1.62053 0l1.58001 0 0 -1.57993 -1.58001 0 0 1.57993zm1.62053 0l1.58001 0 0 -1.57993 -1.58001 0 0 1.57993zm1.62053 0l1.58001 0 0 -1.57993 -1.58001 0 0 1.57993zm1.62053 0l1.58001 0 0 -1.57993 -1.58001 0 0 1.57993zm1.62053 0l1.58001 0 0 -1.57993 -1.58001 0 0 1.57993zm1.62053 0l1.58001 0 0 -1.57993 -1.58001 0 0 1.57993zm1.62053 0l1.58001 0 0 -1.57993 -1.58001 0 0 1.57993zm1.62053 0l1.58001 0 0 -1.57993 -1.58001 0 0 1.57993zm1.62053 0l1.58001 0 0 -1.57993 -1.58001 0 0 1.57993zm1.62053 0l1.58001 0 0 -1.57993 -1.58001 0 0 1.57993zm1.62053 0l1.58001 0 0 -1.57993 -1.58001 0 0 1.57993zm1.62053 0l1.58001 0 0 -1.57993 -1.58001 0 0 1.57993zm1.62053 0l1.58001 0 0 -1.57993 -1.58001 0 0 1.57993zm-38.8927 -1.62045l1.58001 0 0 -1.57993 -1.58001 0 0 1.57993zm1.62053 0l1.58001 0 0 -1.57993 -1.58001 0 0 1.57993zm1.62053 0l1.58001 0 0 -1.57993 -1.58001 0 0 1.57993zm1.62053 0l1.58001 0 0 -1.57993 -1.58001 0 0 1.57993zm1.62053 0l1.58001 0 0 -1.57993 -1.58001 0 0 1.57993zm1.62053 0l1.58001 0 0 -1.57993 -1.58001 0 0 1.57993zm1.62053 0l1.58001 0 0 -1.57993 -1.58001 0 0 1.57993zm1.62053 0l1.58001 0 0 -1.57993 -1.58001 0 0 1.57993zm1.62053 0l1.58001 0 0 -1.57993 -1.58001 0 0 1.57993zm1.62053 0l1.58001 0 0 -1.57993 -1.58001 0 0 1.57993zm1.62053 0l1.58001 0 0 -1.57993 -1.58001 0 0 1.57993zm1.62053 0l1.58001 0 0 -1.57993 -1.58001 0 0 1.57993zm1.62053 0l1.58001 0 0 -1.57993 -1.58001 0 0 1.57993zm1.62053 0l1.58001 0 0 -1.57993 -1.58001 0 0 1.57993zm1.62053 0l1.58001 0 0 -1.57993 -1.58001 0 0 1.57993zm1.62053 0l1.58001 0 0 -1.57993 -1.58001 0 0 1.57993zm1.62053 0l1.58001 0 0 -1.57993 -1.58001 0 0 1.57993zm1.62053 0l1.58001 0 0 -1.57993 -1.58001 0 0 1.57993zm1.62053 0l1.58001 0 0 -1.57993 -1.58001 0 0 1.57993zm1.62053 0l1.58001 0 0 -1.57993 -1.58001 0 0 1.57993zm1.62053 0l1.58001 0 0 -1.57993 -1.58001 0 0 1.57993zm1.62053 0l1.58001 0 0 -1.57993 -1.58001 0 0 1.57993zm1.62053 0l1.58001 0 0 -1.57993 -1.58001 0 0 1.57993zm1.62053 0l1.58001 0 0 -1.57993 -1.58001 0 0 1.57993zm1.62053 0l1.58001 0 0 -1.57993 -1.58001 0 0 1.57993zm-38.8927 -1.62045l1.58001 0 0 -1.57993 -1.58001 0 0 1.57993zm1.62053 0l1.58001 0 0 -1.57993 -1.58001 0 0 1.57993zm1.62053 0l1.58001 0 0 -1.57993 -1.58001 0 0 1.57993zm1.62053 0l1.58001 0 0 -1.57993 -1.58001 0 0 1.57993zm1.62053 0l1.58001 0 0 -1.57993 -1.58001 0 0 1.57993zm1.62053 0l1.58001 0 0 -1.57993 -1.58001 0 0 1.57993zm1.62053 0l1.58001 0 0 -1.57993 -1.58001 0 0 1.57993zm1.62053 0l1.58001 0 0 -1.57993 -1.58001 0 0 1.57993zm1.62053 0l1.58001 0 0 -1.57993 -1.58001 0 0 1.57993zm1.62053 0l1.58001 0 0 -1.57993 -1.58001 0 0 1.57993zm1.62053 0l1.58001 0 0 -1.57993 -1.58001 0 0 1.57993zm1.62053 0l1.58001 0 0 -1.57993 -1.58001 0 0 1.57993zm1.62053 0l1.58001 0 0 -1.57993 -1.58001 0 0 1.57993zm1.62053 0l1.58001 0 0 -1.57993 -1.58001 0 0 1.57993zm1.62053 0l1.58001 0 0 -1.57993 -1.58001 0 0 1.57993zm1.62053 0l1.58001 0 0 -1.57993 -1.58001 0 0 1.57993zm1.62053 0l1.58001 0 0 -1.57993 -1.58001 0 0 1.57993zm1.62053 0l1.58001 0 0 -1.57993 -1.58001 0 0 1.57993zm1.62053 0l1.58001 0 0 -1.57993 -1.58001 0 0 1.57993zm1.62053 0l1.58001 0 0 -1.57993 -1.58001 0 0 1.57993zm1.62053 0l1.58001 0 0 -1.57993 -1.58001 0 0 1.57993zm1.62053 0l1.58001 0 0 -1.57993 -1.58001 0 0 1.57993zm1.62053 0l1.58001 0 0 -1.57993 -1.58001 0 0 1.57993zm1.62053 0l1.58001 0 0 -1.57993 -1.58001 0 0 1.57993zm1.62053 0l1.58001 0 0 -1.57993 -1.58001 0 0 1.57993zm-38.8927 -1.62045l1.58001 0 0 -1.57993 -1.58001 0 0 1.57993zm1.62053 0l1.58001 0 0 -1.57993 -1.58001 0 0 1.57993zm1.62053 0l1.58001 0 0 -1.57993 -1.58001 0 0 1.57993zm1.62053 0l1.58001 0 0 -1.57993 -1.58001 0 0 1.57993zm1.62053 0l1.58001 0 0 -1.57993 -1.58001 0 0 1.57993zm1.62053 0l1.58001 0 0 -1.57993 -1.58001 0 0 1.57993zm1.62053 0l1.58001 0 0 -1.57993 -1.58001 0 0 1.57993zm1.62053 0l1.58001 0 0 -1.57993 -1.58001 0 0 1.57993zm1.62053 0l1.58001 0 0 -1.57993 -1.58001 0 0 1.57993zm1.62053 0l1.58001 0 0 -1.57993 -1.58001 0 0 1.57993zm1.62053 0l1.58001 0 0 -1.57993 -1.58001 0 0 1.57993zm1.62053 0l1.58001 0 0 -1.57993 -1.58001 0 0 1.57993zm1.62053 0l1.58001 0 0 -1.57993 -1.58001 0 0 1.57993zm1.62053 0l1.58001 0 0 -1.57993 -1.58001 0 0 1.57993zm1.62053 0l1.58001 0 0 -1.57993 -1.58001 0 0 1.57993zm1.62053 0l1.58001 0 0 -1.57993 -1.58001 0 0 1.57993zm1.62053 0l1.58001 0 0 -1.57993 -1.58001 0 0 1.57993zm1.62053 0l1.58001 0 0 -1.57993 -1.58001 0 0 1.57993zm1.62053 0l1.58001 0 0 -1.57993 -1.58001 0 0 1.57993zm1.62053 0l1.58001 0 0 -1.57993 -1.58001 0 0 1.57993zm1.62053 0l1.58001 0 0 -1.57993 -1.58001 0 0 1.57993zm1.62053 0l1.58001 0 0 -1.57993 -1.58001 0 0 1.57993zm1.62053 0l1.58001 0 0 -1.57993 -1.58001 0 0 1.57993zm1.62053 0l1.58001 0 0 -1.57993 -1.58001 0 0 1.57993zm1.62053 0l1.58001 0 0 -1.57993 -1.58001 0 0 1.57993zm-38.8927 -1.62045l1.58001 0 0 -1.57993 -1.58001 0 0 1.57993zm1.62053 0l1.58001 0 0 -1.57993 -1.58001 0 0 1.57993zm1.62053 0l1.58001 0 0 -1.57993 -1.58001 0 0 1.57993zm1.62053 0l1.58001 0 0 -1.57993 -1.58001 0 0 1.57993zm1.62053 0l1.58001 0 0 -1.57993 -1.58001 0 0 1.57993zm1.62053 0l1.58001 0 0 -1.57993 -1.58001 0 0 1.57993zm1.62053 0l1.58001 0 0 -1.57993 -1.58001 0 0 1.57993zm1.62053 0l1.58001 0 0 -1.57993 -1.58001 0 0 1.57993zm1.62053 0l1.58001 0 0 -1.57993 -1.58001 0 0 1.57993zm1.62053 0l1.58001 0 0 -1.57993 -1.58001 0 0 1.57993zm1.62053 0l1.58001 0 0 -1.57993 -1.58001 0 0 1.57993zm1.62053 0l1.58001 0 0 -1.57993 -1.58001 0 0 1.57993zm1.62053 0l1.58001 0 0 -1.57993 -1.58001 0 0 1.57993zm1.62053 0l1.58001 0 0 -1.57993 -1.58001 0 0 1.57993zm1.62053 0l1.58001 0 0 -1.57993 -1.58001 0 0 1.57993zm1.62053 0l1.58001 0 0 -1.57993 -1.58001 0 0 1.57993zm1.62053 0l1.58001 0 0 -1.57993 -1.58001 0 0 1.57993zm1.62053 0l1.58001 0 0 -1.57993 -1.58001 0 0 1.57993zm1.62053 0l1.58001 0 0 -1.57993 -1.58001 0 0 1.57993zm1.62053 0l1.58001 0 0 -1.57993 -1.58001 0 0 1.57993zm1.62053 0l1.58001 0 0 -1.57993 -1.58001 0 0 1.57993zm1.62053 0l1.58001 0 0 -1.57993 -1.58001 0 0 1.57993zm1.62053 0l1.58001 0 0 -1.57993 -1.58001 0 0 1.57993zm1.62053 0l1.58001 0 0 -1.57993 -1.58001 0 0 1.57993zm1.62053 0l1.58001 0 0 -1.57993 -1.58001 0 0 1.57993zm-38.8927 -1.62045l1.58001 0 0 -1.57993 -1.58001 0 0 1.57993zm1.62053 0l1.58001 0 0 -1.57993 -1.58001 0 0 1.57993zm1.62053 0l1.58001 0 0 -1.57993 -1.58001 0 0 1.57993zm1.62053 0l1.58001 0 0 -1.57993 -1.58001 0 0 1.57993zm1.62053 0l1.58001 0 0 -1.57993 -1.58001 0 0 1.57993zm1.62053 0l1.58001 0 0 -1.57993 -1.58001 0 0 1.57993zm1.62053 0l1.58001 0 0 -1.57993 -1.58001 0 0 1.57993zm1.62053 0l1.58001 0 0 -1.57993 -1.58001 0 0 1.57993zm1.62053 0l1.58001 0 0 -1.57993 -1.58001 0 0 1.57993zm1.62053 0l1.58001 0 0 -1.57993 -1.58001 0 0 1.57993zm1.62053 0l1.58001 0 0 -1.57993 -1.58001 0 0 1.57993zm1.62053 0l1.58001 0 0 -1.57993 -1.58001 0 0 1.57993zm1.62053 0l1.58001 0 0 -1.57993 -1.58001 0 0 1.57993zm1.62053 0l1.58001 0 0 -1.57993 -1.58001 0 0 1.57993zm1.62053 0l1.58001 0 0 -1.57993 -1.58001 0 0 1.57993zm1.62053 0l1.58001 0 0 -1.57993 -1.58001 0 0 1.57993zm1.62053 0l1.58001 0 0 -1.57993 -1.58001 0 0 1.57993zm1.62053 0l1.58001 0 0 -1.57993 -1.58001 0 0 1.57993zm1.62053 0l1.58001 0 0 -1.57993 -1.58001 0 0 1.57993zm1.62053 0l1.58001 0 0 -1.57993 -1.58001 0 0 1.57993zm1.62053 0l1.58001 0 0 -1.57993 -1.58001 0 0 1.57993zm1.62053 0l1.58001 0 0 -1.57993 -1.58001 0 0 1.57993zm1.62053 0l1.58001 0 0 -1.57993 -1.58001 0 0 1.57993zm1.62053 0l1.58001 0 0 -1.57993 -1.58001 0 0 1.57993zm1.62053 0l1.58001 0 0 -1.57993 -1.58001 0 0 1.57993zm-38.8927 -1.62045l1.58001 0 0 -1.57993 -1.58001 0 0 1.57993zm1.62053 0l1.58001 0 0 -1.57993 -1.58001 0 0 1.57993zm1.62053 0l1.58001 0 0 -1.57993 -1.58001 0 0 1.57993zm1.62053 0l1.58001 0 0 -1.57993 -1.58001 0 0 1.57993zm1.62053 0l1.58001 0 0 -1.57993 -1.58001 0 0 1.57993zm1.62053 0l1.58001 0 0 -1.57993 -1.58001 0 0 1.57993zm1.62053 0l1.58001 0 0 -1.57993 -1.58001 0 0 1.57993zm1.62053 0l1.58001 0 0 -1.57993 -1.58001 0 0 1.57993zm1.62053 0l1.58001 0 0 -1.57993 -1.58001 0 0 1.57993zm1.62053 0l1.58001 0 0 -1.57993 -1.58001 0 0 1.57993zm1.62053 0l1.58001 0 0 -1.57993 -1.58001 0 0 1.57993zm1.62053 0l1.58001 0 0 -1.57993 -1.58001 0 0 1.57993zm1.62053 0l1.58001 0 0 -1.57993 -1.58001 0 0 1.57993zm1.62053 0l1.58001 0 0 -1.57993 -1.58001 0 0 1.57993zm1.62053 0l1.58001 0 0 -1.57993 -1.58001 0 0 1.57993zm1.62053 0l1.58001 0 0 -1.57993 -1.58001 0 0 1.57993zm1.62053 0l1.58001 0 0 -1.57993 -1.58001 0 0 1.57993zm1.62053 0l1.58001 0 0 -1.57993 -1.58001 0 0 1.57993zm1.62053 0l1.58001 0 0 -1.57993 -1.58001 0 0 1.57993zm1.62053 0l1.58001 0 0 -1.57993 -1.58001 0 0 1.57993zm1.62053 0l1.58001 0 0 -1.57993 -1.58001 0 0 1.57993zm1.62053 0l1.58001 0 0 -1.57993 -1.58001 0 0 1.57993zm1.62053 0l1.58001 0 0 -1.57993 -1.58001 0 0 1.57993zm1.62053 0l1.58001 0 0 -1.57993 -1.58001 0 0 1.57993zm1.62053 0l1.58001 0 0 -1.57993 -1.58001 0 0 1.57993zm-38.8927 -1.62045l1.58001 0 0 -1.57993 -1.58001 0 0 1.57993zm1.62053 0l1.58001 0 0 -1.57993 -1.58001 0 0 1.57993zm1.62053 0l1.58001 0 0 -1.57993 -1.58001 0 0 1.57993zm1.62053 0l1.58001 0 0 -1.57993 -1.58001 0 0 1.57993zm1.62053 0l1.58001 0 0 -1.57993 -1.58001 0 0 1.57993zm1.62053 0l1.58001 0 0 -1.57993 -1.58001 0 0 1.57993zm1.62053 0l1.58001 0 0 -1.57993 -1.58001 0 0 1.57993zm1.62053 0l1.58001 0 0 -1.57993 -1.58001 0 0 1.57993zm1.62053 0l1.58001 0 0 -1.57993 -1.58001 0 0 1.57993zm1.62053 0l1.58001 0 0 -1.57993 -1.58001 0 0 1.57993zm1.62053 0l1.58001 0 0 -1.57993 -1.58001 0 0 1.57993zm1.62053 0l1.58001 0 0 -1.57993 -1.58001 0 0 1.57993zm1.62053 0l1.58001 0 0 -1.57993 -1.58001 0 0 1.57993zm1.62053 0l1.58001 0 0 -1.57993 -1.58001 0 0 1.57993zm1.62053 0l1.58001 0 0 -1.57993 -1.58001 0 0 1.57993zm1.62053 0l1.58001 0 0 -1.57993 -1.58001 0 0 1.57993zm1.62053 0l1.58001 0 0 -1.57993 -1.58001 0 0 1.57993zm1.62053 0l1.58001 0 0 -1.57993 -1.58001 0 0 1.57993zm1.62053 0l1.58001 0 0 -1.57993 -1.58001 0 0 1.57993zm1.62053 0l1.58001 0 0 -1.57993 -1.58001 0 0 1.57993zm1.62053 0l1.58001 0 0 -1.57993 -1.58001 0 0 1.57993zm1.62053 0l1.58001 0 0 -1.57993 -1.58001 0 0 1.57993zm1.62053 0l1.58001 0 0 -1.57993 -1.58001 0 0 1.57993zm1.62053 0l1.58001 0 0 -1.57993 -1.58001 0 0 1.57993zm1.62053 0l1.58001 0 0 -1.57993 -1.58001 0 0 1.57993z"/>
   <polygon id="_215596472" class="fil2" points="11.283,2.4895 11.283,22.6754 11.4046,22.6754 11.4046,2.4895 11.7849,2.4895 11.3438,1.60748 10.9029,2.4895 "/>
   <polygon id="_215596376" class="fil2" points="20.9957,12.9344 0.809819,12.9344 0.809819,13.0559 20.9957,13.0559 20.9957,13.4363 21.8778,12.9951 20.9957,12.5543 "/>
   <path id="_215596232" class="fil2" d="M12.7009 2.71894l-0.0140588 -0.117899c0.0276314,0.00737378 0.0514544,0.0112227 0.0719551,0.0112227 0.0278745,0 0.0502389,-0.0047808 0.0669312,-0.0140588 0.0168949,-0.00931851 0.0304675,-0.0221618 0.041204,-0.0390972 0.00810305,-0.0123572 0.0207438,-0.0435944 0.0383679,-0.0933472 0.00234988,-0.0071712 0.00615832,-0.0171785 0.0111822,-0.0307511l-0.281095 -0.742483 0.135321 0 0.154363 0.429016c0.0197714,0.0545335 0.0378413,0.111701 0.0535612,0.171744 0.014545,-0.0576532 0.0316829,-0.113848 0.0516975,-0.168868l0.158415 -0.431893 0.125516 0 -0.281784 0.753705c-0.0302649,0.0814357 -0.0538448,0.137428 -0.0704965,0.168138 -0.0224049,0.0414471 -0.047889,0.071712 -0.0766954,0.0909973 -0.02909,0.0193258 -0.0633659,0.02909 -0.103395,0.02909 -0.0243092,0 -0.0512113,-0.00526698 -0.08099,-0.0155173z"/>
   <path id="_215593304" class="fil2" d="M21.0779 14.5724l0.270804 -0.385179 -0.250587 -0.355886 0.156997 0 0.113848 0.173648c0.0211895,0.0331415 0.038611,0.0607729 0.0514544,0.0831373 0.0205007,-0.0307106 0.0392998,-0.0578558 0.0566808,-0.0816788l0.124828 -0.175107 0.150069 0 -0.256056 0.348998 0.275585 0.392066 -0.15412 0 -0.152216 -0.230329 -0.0404747 -0.0621909 -0.194595 0.29252 -0.152216 0z"/>
   <path id="_215594288" class="fil2" d="M8.04289 22.2532c0.00709017,-0.0440806 2.43853,-15.3827 6.53499,-15.8001l0.0118305 0.120573c-4.0025,0.407786 -6.42009,15.6546 -6.42714,15.6985l-0.119682 -0.0189611z"/>
   <path id="_215596016" class="fil0" d="M21.0649 22.2626c0,0 -2.43156,-15.3367 -6.48106,-15.7493"/>
   <path id="_215600000" class="fil2" d="M21.005 22.2721c-0.00704965,-0.0438375 -2.42464,-15.2907 -6.42714,-15.6985l0.0118305 -0.120573c4.09646,0.417388 6.5279,15.756 6.53499,15.8001l-0.119682 0.0189611z"/>
   <polygon id="_215595608" class="fil2" points="33.9704,2.4895 33.9704,22.6754 34.092,22.6754 34.092,2.4895 34.4723,2.4895 34.0312,1.60748 33.5903,2.4895 "/>
   <polygon id="_215594240" class="fil2" points="43.6831,12.9344 23.4972,12.9344 23.4972,13.0559 43.6831,13.0559 43.6831,13.4363 44.5652,12.9951 43.6831,12.5543 "/>
   <path id="_215594576" class="fil2" d="M35.3883 2.71894l-0.0140588 -0.117899c0.0276314,0.00737378 0.0514544,0.0112227 0.0719551,0.0112227 0.0278745,0 0.0502389,-0.0047808 0.0669312,-0.0140588 0.0168949,-0.00931851 0.0304675,-0.0221618 0.041204,-0.0390972 0.00810305,-0.0123572 0.0207438,-0.0435944 0.0383679,-0.0933472 0.00234988,-0.0071712 0.00615832,-0.0171785 0.0111822,-0.0307511l-0.281095 -0.742483 0.135321 0 0.154363 0.429016c0.0197714,0.0545335 0.0378413,0.111701 0.0535612,0.171744 0.014545,-0.0576532 0.0316829,-0.113848 0.0516975,-0.168868l0.158415 -0.431893 0.125516 0 -0.281784 0.753705c-0.0302649,0.0814357 -0.0538448,0.137428 -0.0704965,0.168138 -0.0224049,0.0414471 -0.047889,0.071712 -0.0766954,0.0909973 -0.02909,0.0193258 -0.0633659,0.02909 -0.103395,0.02909 -0.0243092,0 -0.0512113,-0.00526698 -0.08099,-0.0155173z"/>
   <path id="_215593712" class="fil2" d="M43.7654 14.5724l0.270804 -0.385179 -0.250587 -0.355886 0.156997 0 0.113848 0.173648c0.0211895,0.0331415 0.038611,0.0607729 0.0514544,0.0831373 0.0205007,-0.0307106 0.0392998,-0.0578558 0.0566808,-0.0816788l0.124828 -0.175107 0.150069 0 -0.256056 0.348998 0.275585 0.392066 -0.15412 0 -0.152216 -0.230329 -0.0404747 -0.0621909 -0.194595 0.29252 -0.152216 0z"/>
   <path id="_215594000" class="fil2" d="M30.85 3.71817c0.00704965,0.0438375 2.42464,15.2907 6.42714,15.6985l-0.0118305 0.120573c-4.09646,-0.417388 -6.5279,-15.756 -6.53499,-15.8001l0.119682 -0.0189611z"/>
   <path id="_215594192" class="fil0" d="M43.7523 3.72765c0,0 -2.43156,15.3367 -6.48106,15.7493"/>
   <path id="_215600072" class="fil2" d="M43.8121 3.73713c-0.00709017,0.0440806 -2.43853,15.3827 -6.53499,15.8001l-0.0118305 -0.120573c4.0025,-0.407786 6.42009,-15.6546 6.42714,-15.6985l0.119682 0.0189611z"/>
   <path id="_215594360" class="fil3" d="M11.5858 6.45258l0 0.121546 -0.243092 0 0 -0.121546 0.243092 0zm3.05874 6.17874l-0.121546 0 0 -0.243092 0.121546 0 0 0.243092zm0 -0.607729l-0.121546 0 0 -0.243092 0.121546 0 0 0.243092zm0 -0.607729l-0.121546 0 0 -0.243092 0.121546 0 0 0.243092zm0 -0.607729l-0.121546 0 0 -0.243092 0.121546 0 0 0.243092zm0 -0.607729l-0.121546 0 0 -0.243092 0.121546 0 0 0.243092zm0 -0.607729l-0.121546 0 0 -0.243092 0.121546 0 0 0.243092zm0 -0.607729l-0.121546 0 0 -0.243092 0.121546 0 0 0.243092zm0 -0.607729l-0.121546 0 0 -0.243092 0.121546 0 0 0.243092zm0 -0.607729l-0.121546 0 0 -0.243092 0.121546 0 0 0.243092zm0 -0.607729l-0.121546 0 0 -0.243092 0.121546 0 0 0.243092zm0 -0.607729l-0.0406773 0 -0.0200956 0.0200956 -0.202414 0 0 -0.121546 0.202414 0 0.0607729 0 0 0.0607729 0 0.0406773zm-0.627824 -0.10145l0 0.121546 -0.243092 0 0 -0.121546 0.243092 0zm-0.607729 0l0 0.121546 -0.243092 0 0 -0.121546 0.243092 0zm-0.607729 0l0 0.121546 -0.243092 0 0 -0.121546 0.243092 0zm-0.607729 0l0 0.121546 -0.243092 0 0 -0.121546 0.243092 0z"/>
   <path id="_215593424" class="fil4" d="M14.5838 6.31074c-0.111822,0 -0.202576,0.0907137 -0.202576,0.202617 0,0.111863 0.0907542,0.202617 0.202576,0.202617 0.111863,0 0.202576,-0.0907542 0.202576,-0.202617 0,-0.111903 -0.0907137,-0.202617 -0.202576,-0.202617z"/>
   <path id="_215590952" class="fil3" d="M14.5838 6.37151c-0.0390972,0 -0.0745886,0.0159225 -0.100235,0.0415687 -0.0256462,0.0256462 -0.0415687,0.0611375 -0.0415687,0.100275 0,0.0390972 0.0159225,0.0746291 0.0415687,0.100275 0.0256462,0.0256462 0.0611375,0.0415687 0.100235,0.0415687 0.0390972,0 0.0745886,-0.0159225 0.100235,-0.0415687 0.0256462,-0.0256462 0.0415687,-0.0611375 0.0415687,-0.100275 0,-0.0391377 -0.0159225,-0.0746291 -0.0415687,-0.100275l0 -0.000243092c-0.0254436,-0.0254841 -0.0609349,-0.0413256 -0.100235,-0.0413256zm-0.186208 -0.0444047c0.0476054,-0.0476054 0.113524,-0.0771411 0.186208,-0.0771411 0.0725223,0 0.13836,0.0295761 0.186087,0.0772626l0.000121546 -0.000121546c0.0476054,0.0476054 0.0771411,0.113524 0.0771411,0.186249 0,0.0727249 -0.0295356,0.138643 -0.0771411,0.186249 -0.0476054,0.0476054 -0.113524,0.0771411 -0.186208,0.0771411 -0.0726844,0 -0.138603,-0.0295356 -0.186208,-0.0771411 -0.0476054,-0.0476054 -0.0771411,-0.113564 -0.0771411,-0.186249 0,-0.0727249 0.0295356,-0.138643 0.0771411,-0.186249z"/>
   <path id="_215594048" class="fil3" d="M10.8353 7.15495l0 -0.362774c-0.0195284,0.0273883 -0.0469167,0.0502389 -0.0819624,0.0683492 -0.0352483,0.0181103 -0.0726439,0.0271857 -0.112187,0.0271857 -0.0878776,0 -0.163641,-0.0350457 -0.227007,-0.105299 -0.063609,-0.070294 -0.0952514,-0.166518 -0.0952514,-0.288955 0,-0.074305 0.0128433,-0.141236 0.0388136,-0.200307 0.0257272,-0.0590712 0.0631228,-0.103881 0.112187,-0.134349 0.049064,-0.030508 0.102909,-0.0457417 0.161494,-0.0457417 0.0917265,0 0.163884,0.0385705 0.216554,0.115995l0 -0.0991003 0.112876 0 0 1.025 -0.125516 0zm-0.387326 -0.656469c0,0.0952514 0.0200145,0.16672 0.0600436,0.214366 0.0399886,0.047889 0.0878776,0.071712 0.143627,0.071712 0.0536017,0 0.0995865,-0.022648 0.138157,-0.0681467 0.0388136,-0.0452555 0.0581394,-0.114334 0.0581394,-0.206992 0,-0.0986141 -0.0205007,-0.172676 -0.0612186,-0.222469 -0.0407583,-0.0497933 -0.0884043,-0.0747912 -0.143424,-0.0747912 -0.0542904,0 -0.100518,0.0233368 -0.1384,0.0695647 -0.0378818,0.0461874 -0.0569239,0.118386 -0.0569239,0.216757z"/>
   <path id="_215594072" class="fil3" d="M14.2897 14.3731l0 -1.025 0.114334 0 0 0.0962643c0.0269426,-0.0376387 0.0574101,-0.0659994 0.0914835,-0.0847984 0.0338302,-0.0188396 0.0750343,-0.0283607 0.123369,-0.0283607 0.0633659,0 0.119115,0.0164492 0.16749,0.0488209 0.0485778,0.0326553 0.0850415,0.0785996 0.109553,0.137914 0.0247953,0.0593143 0.0371525,0.124341 0.0371525,0.195121 0,0.075723 -0.0135726,0.144113 -0.0409609,0.204845 -0.0271452,0.0607324 -0.0666881,0.107163 -0.118629,0.139575 -0.0519406,0.0321691 -0.106474,0.0483752 -0.163641,0.0483752 -0.0419333,0 -0.0793289,-0.00883233 -0.112673,-0.0264565 -0.0333441,-0.0176241 -0.0604893,-0.0400291 -0.0819219,-0.0669312l0 0.360626 -0.125557 0zm0.113645 -0.65027c0,0.0952514 0.0192853,0.165788 0.0578558,0.21149 0.038611,0.0454986 0.0855277,0.0683898 0.140304,0.0683898 0.055749,0 0.103638,-0.0235799 0.143424,-0.0709827 0.0397455,-0.0471598 0.05976,-0.12029 0.05976,-0.21939 0,-0.0945626 -0.0195284,-0.165059 -0.058342,-0.212259 -0.0388136,-0.0469167 -0.0852846,-0.0704965 -0.139129,-0.0704965 -0.0535612,0 -0.100964,0.0249979 -0.142209,0.0750343 -0.041204,0.0500363 -0.0616642,0.122923 -0.0616642,0.218215z"/>
   <path id="_215595776" class="fil2" d="M12.4288 19.5328l0 -0.741065 0.112916 0 0 0.112227c0.0288063,-0.0524267 0.0555059,-0.0871888 0.0800176,-0.103881 0.0243092,-0.0166518 0.0512113,-0.025241 0.0805038,-0.025241 0.0424195,0 0.0852846,0.0135726 0.129122,0.0404747l-0.0433513 0.116724c-0.030508,-0.0183129 -0.0612186,-0.0273883 -0.0919291,-0.0273883 -0.0276314,0 -0.0521837,0.00834614 -0.0741024,0.0247953 -0.0219188,0.0166518 -0.0373956,0.0395429 -0.0466736,0.0688354 -0.0140588,0.0445263 -0.0209869,0.0933472 -0.0209869,0.146503l0 0.388015 -0.125516 0zm0.9609 -0.0914835c-0.0466736,0.0395429 -0.0914429,0.0674174 -0.134349,0.0838666 -0.0431082,0.0162061 -0.0892956,0.0243092 -0.138603,0.0243092 -0.0814762,0 -0.14391,-0.0197714 -0.187707,-0.0595574 -0.0435944,-0.039786 -0.0655132,-0.0907542 -0.0655132,-0.152459 0,-0.0364637 0.00810305,-0.0695647 0.0247548,-0.0995865 0.0164492,-0.0299813 0.0381249,-0.0540474 0.0647839,-0.0721577 0.0269426,-0.0181103 0.0569645,-0.031926 0.0905516,-0.041204 0.0245117,-0.00644193 0.0616642,-0.0128839 0.111457,-0.0188396 0.101491,-0.0121141 0.176282,-0.0264159 0.224171,-0.0433513 0.000445668,-0.017138 0.000688759,-0.0280771 0.000688759,-0.0326148 0,-0.0512113 -0.0119115,-0.0874319 -0.0357345,-0.108135 -0.031926,-0.0286038 -0.0797745,-0.0426626 -0.142897,-0.0426626 -0.0590712,0 -0.102666,0.0102504 -0.131026,0.0309942 -0.0281176,0.0207033 -0.0488209,0.0573696 -0.0623935,0.110039l-0.12268 -0.0169354c0.0111822,-0.0523862 0.0295356,-0.0950083 0.0550197,-0.127177 0.0254841,-0.0324122 0.0626366,-0.0574101 0.111012,-0.0747912 0.0483347,-0.0174216 0.104327,-0.0262134 0.168179,-0.0262134 0.0633253,0 0.114537,0.00761687 0.15408,0.0224049 0.0395429,0.0149906 0.0686328,0.0335871 0.0874319,0.0561947 0.0185965,0.022648 0.0314398,0.0509682 0.0390567,0.0855277 0.00405153,0.0214326 0.00619883,0.0600031 0.00619883,0.115752l0 0.16745c0,0.116968 0.00263349,0.190827 0.00810305,0.221537 0.00522647,0.0309537 0.015963,0.0607324 0.0316829,0.0890931l-0.131229 0c-0.0128839,-0.0259703 -0.0214731,-0.0564378 -0.0250384,-0.0914835zm-0.0104529 -0.280609c-0.0457417,0.0188396 -0.114131,0.0345595 -0.205129,0.0476459 -0.051657,0.00741429 -0.0883638,0.0157199 -0.109553,0.0250384 -0.0214326,0.00927799 -0.0381249,0.0228506 -0.0495502,0.0409609 -0.0116684,0.0178672 -0.0176241,0.0376387 -0.0176241,0.0595574 0,0.0335871 0.0128433,0.0614616 0.0381249,0.0838261 0.025241,0.0221618 0.0623935,0.0333441 0.111214,0.0333441 0.0483752,0 0.0914835,-0.0104529 0.129122,-0.0316829 0.0376387,-0.0211895 0.0655132,-0.0502389 0.0831373,-0.0869457 0.0135726,-0.0283202 0.0202576,-0.0702535 0.0202576,-0.125516l0 -0.0462279zm0.321772 0.372092l0 -0.741065 0.112187 0 0 0.103881c0.0233773,-0.0362206 0.054331,-0.0655132 0.0929015,-0.0874319 0.038611,-0.0221618 0.0826511,-0.0333441 0.131958,-0.0333441 0.0548171,0 0.0998296,0.0114253 0.134835,0.0343164 0.0352483,0.0228506 0.0600436,0.0545335 0.0743455,0.0954945 0.0588282,-0.0864596 0.135037,-0.129811 0.228911,-0.129811 0.0735757,0 0.130054,0.0205007 0.169597,0.0612186 0.0395429,0.0407178 0.0593143,0.103395 0.0593143,0.18795l0 0.508791 -0.124828 0 0 -0.466857c0,-0.0502794 -0.00405153,-0.0865001 -0.0121546,-0.108621 -0.00834614,-0.0219188 -0.0230937,-0.039786 -0.0443237,-0.0533586 -0.0214326,-0.01337 -0.0466736,-0.0202576 -0.0754799,-0.0202576 -0.0521837,0 -0.0952919,0.017381 -0.129851,0.0521431 -0.0342759,0.0345595 -0.051657,0.0900654 -0.051657,0.166275l0 0.430677 -0.125557 0 0 -0.481402c0,-0.0559921 -0.0102504,-0.0979254 -0.0307106,-0.125759 -0.0205007,-0.0278745 -0.0538448,-0.0419333 -0.100518,-0.0419333 -0.0352483,0 -0.0679036,0.00927799 -0.0979254,0.0281176 -0.0299813,0.018556 -0.0519,0.0457012 -0.0652701,0.0814357 -0.0135726,0.0359775 -0.0202171,0.087675 -0.0202171,0.155092l0 0.384449 -0.125557 0zm1.19103 -0.878492l0 -0.144599 0.125759 0 0 0.144599 -0.125759 0zm0 0.878492l0 -0.741065 0.125759 0 0 0.741065 -0.125759 0zm0.270115 -0.370634c0,-0.137225 0.0381249,-0.238918 0.114577,-0.304918 0.063609,-0.0547766 0.141236,-0.082408 0.232963,-0.082408 0.101936,0 0.185317,0.0333441 0.249858,0.100275 0.0648244,0.0666881 0.096953,0.158901 0.096953,0.276557 0,0.095535 -0.0143019,0.170569 -0.0428651,0.225103 -0.0286038,0.0547766 -0.0702535,0.0971961 -0.124828,0.12742 -0.0547766,0.0302649 -0.114334,0.0452961 -0.179118,0.0452961 -0.103638,0 -0.187464,-0.0331415 -0.251559,-0.0998296 -0.0640546,-0.066445 -0.0959806,-0.162223 -0.0959806,-0.287496zm0.129122 0c0,0.0950488 0.0207033,0.166032 0.0621504,0.213191 0.0414471,0.0474029 0.0936308,0.0709827 0.156267,0.0709827 0.0623935,0 0.114334,-0.023823 0.155781,-0.0712258 0.041204,-0.0474029 0.0619478,-0.119804 0.0619478,-0.217 0,-0.0917265 -0.0207438,-0.161291 -0.062434,-0.208451 -0.0416902,-0.0471598 -0.0933472,-0.0707396 -0.155295,-0.0707396 -0.0626366,0 -0.11482,0.0235799 -0.156267,0.0705371 -0.0414471,0.0469167 -0.0621504,0.117899 -0.0621504,0.212705zm0.712663 0.370634l0 -0.741065 0.112916 0 0 0.105299c0.0545335,-0.0814762 0.133174,-0.122194 0.235839,-0.122194 0.0447694,0 0.0857303,0.00810305 0.123126,0.0240661 0.0376387,0.0162061 0.0655132,0.0371525 0.0841097,0.0633659 0.0187991,0.0259703 0.0316829,0.0569239 0.0392998,0.0926584 0.00449719,0.0233368 0.00688759,0.0640546 0.00688759,0.122194l0 0.455675 -0.125759 0 0 -0.450935c0,-0.0509682 -0.0047808,-0.0892956 -0.014545,-0.11478 -0.00976418,-0.0252815 -0.0271452,-0.0454986 -0.0519,-0.0605298 -0.0250384,-0.0152337 -0.0540879,-0.0228506 -0.087675,-0.0228506 -0.0536017,0 -0.0995865,0.017138 -0.138643,0.0509682 -0.0388136,0.0340733 -0.0580989,0.098371 -0.0580989,0.19342l0 0.404707 -0.125557 0zm1.27842 -0.0914835c-0.0466736,0.0395429 -0.0914429,0.0674174 -0.134349,0.0838666 -0.0431082,0.0162061 -0.0892956,0.0243092 -0.138603,0.0243092 -0.0814762,0 -0.14391,-0.0197714 -0.187707,-0.0595574 -0.0435944,-0.039786 -0.0655132,-0.0907542 -0.0655132,-0.152459 0,-0.0364637 0.00810305,-0.0695647 0.0247548,-0.0995865 0.0164492,-0.0299813 0.0381249,-0.0540474 0.0647839,-0.0721577 0.0269426,-0.0181103 0.0569645,-0.031926 0.0905516,-0.041204 0.0245117,-0.00644193 0.0616642,-0.0128839 0.111457,-0.0188396 0.101491,-0.0121141 0.176282,-0.0264159 0.224171,-0.0433513 0.000445668,-0.017138 0.000688759,-0.0280771 0.000688759,-0.0326148 0,-0.0512113 -0.0119115,-0.0874319 -0.0357345,-0.108135 -0.031926,-0.0286038 -0.0797745,-0.0426626 -0.142897,-0.0426626 -0.0590712,0 -0.102666,0.0102504 -0.131026,0.0309942 -0.0281176,0.0207033 -0.0488209,0.0573696 -0.0623935,0.110039l-0.12268 -0.0169354c0.0111822,-0.0523862 0.0295356,-0.0950083 0.0550197,-0.127177 0.0254841,-0.0324122 0.0626366,-0.0574101 0.111012,-0.0747912 0.0483347,-0.0174216 0.104327,-0.0262134 0.168179,-0.0262134 0.0633253,0 0.114537,0.00761687 0.15408,0.0224049 0.0395429,0.0149906 0.0686328,0.0335871 0.0874319,0.0561947 0.0185965,0.022648 0.0314398,0.0509682 0.0390567,0.0855277 0.00405153,0.0214326 0.00619883,0.0600031 0.00619883,0.115752l0 0.16745c0,0.116968 0.00263349,0.190827 0.00810305,0.221537 0.00522647,0.0309537 0.015963,0.0607324 0.0316829,0.0890931l-0.131229 0c-0.0128839,-0.0259703 -0.0214731,-0.0564378 -0.0250384,-0.0914835zm-0.0104529 -0.280609c-0.0457417,0.0188396 -0.114131,0.0345595 -0.205129,0.0476459 -0.051657,0.00741429 -0.0883638,0.0157199 -0.109553,0.0250384 -0.0214326,0.00927799 -0.0381249,0.0228506 -0.0495502,0.0409609 -0.0116684,0.0178672 -0.0176241,0.0376387 -0.0176241,0.0595574 0,0.0335871 0.0128433,0.0614616 0.0381249,0.0838261 0.025241,0.0221618 0.0623935,0.0333441 0.111214,0.0333441 0.0483752,0 0.0914835,-0.0104529 0.129122,-0.0316829 0.0376387,-0.0211895 0.0655132,-0.0502389 0.0831373,-0.0869457 0.0135726,-0.0283202 0.0202576,-0.0702535 0.0202576,-0.125516l0 -0.0462279zm-4.8026 2.25273l0 -1.025 0.114334 0 0 0.0962643c0.0269426,-0.0376387 0.0574101,-0.0659994 0.0914835,-0.0847984 0.0338302,-0.0188396 0.0750343,-0.0283607 0.123369,-0.0283607 0.0633659,0 0.119115,0.0164492 0.16749,0.0488209 0.0485778,0.0326553 0.0850415,0.0785996 0.109553,0.137914 0.0247953,0.0593143 0.0371525,0.124341 0.0371525,0.195121 0,0.075723 -0.0135726,0.144113 -0.0409609,0.204845 -0.0271452,0.0607324 -0.0666881,0.107163 -0.118629,0.139575 -0.0519406,0.0321691 -0.106474,0.0483752 -0.163641,0.0483752 -0.0419333,0 -0.0793289,-0.00883233 -0.112673,-0.0264565 -0.0333441,-0.0176241 -0.0604893,-0.0400291 -0.0819219,-0.0669312l0 0.360626 -0.125557 0zm0.113645 -0.65027c0,0.0952514 0.0192853,0.165788 0.0578558,0.21149 0.038611,0.0454986 0.0855277,0.0683898 0.140304,0.0683898 0.055749,0 0.103638,-0.0235799 0.143424,-0.0709827 0.0397455,-0.0471598 0.05976,-0.12029 0.05976,-0.21939 0,-0.0945626 -0.0195284,-0.165059 -0.058342,-0.212259 -0.0388136,-0.0469167 -0.0852846,-0.0704965 -0.139129,-0.0704965 -0.0535612,0 -0.100964,0.0249979 -0.142209,0.0750343 -0.041204,0.0500363 -0.0616642,0.122923 -0.0616642,0.218215zm1.16477 0.274856c-0.0466736,0.0395429 -0.0914429,0.0674174 -0.134349,0.0838666 -0.0431082,0.0162061 -0.0892956,0.0243092 -0.138603,0.0243092 -0.0814762,0 -0.14391,-0.0197714 -0.187707,-0.0595574 -0.0435944,-0.039786 -0.0655132,-0.0907542 -0.0655132,-0.152459 0,-0.0364637 0.00810305,-0.0695647 0.0247548,-0.0995865 0.0164492,-0.0299813 0.0381249,-0.0540474 0.0647839,-0.0721577 0.0269426,-0.0181103 0.0569645,-0.031926 0.0905516,-0.041204 0.0245117,-0.00644193 0.0616642,-0.0128839 0.111457,-0.0188396 0.101491,-0.0121141 0.176282,-0.0264159 0.224171,-0.0433513 0.000445668,-0.017138 0.000688759,-0.0280771 0.000688759,-0.0326148 0,-0.0512113 -0.0119115,-0.0874319 -0.0357345,-0.108135 -0.031926,-0.0286038 -0.0797745,-0.0426626 -0.142897,-0.0426626 -0.0590712,0 -0.102666,0.0102504 -0.131026,0.0309942 -0.0281176,0.0207033 -0.0488209,0.0573696 -0.0623935,0.110039l-0.12268 -0.0169354c0.0111822,-0.0523862 0.0295356,-0.0950083 0.0550197,-0.127177 0.0254841,-0.0324122 0.0626366,-0.0574101 0.111012,-0.0747912 0.0483347,-0.0174216 0.104327,-0.0262134 0.168179,-0.0262134 0.0633253,0 0.114537,0.00761687 0.15408,0.0224049 0.0395429,0.0149906 0.0686328,0.0335871 0.0874319,0.0561947 0.0185965,0.022648 0.0314398,0.0509682 0.0390567,0.0855277 0.00405153,0.0214326 0.00619883,0.0600031 0.00619883,0.115752l0 0.16745c0,0.116968 0.00263349,0.190827 0.00810305,0.221537 0.00522647,0.0309537 0.015963,0.0607324 0.0316829,0.0890931l-0.131229 0c-0.0128839,-0.0259703 -0.0214731,-0.0564378 -0.0250384,-0.0914835zm-0.0104529 -0.280609c-0.0457417,0.0188396 -0.114131,0.0345595 -0.205129,0.0476459 -0.051657,0.00741429 -0.0883638,0.0157199 -0.109553,0.0250384 -0.0214326,0.00927799 -0.0381249,0.0228506 -0.0495502,0.0409609 -0.0116684,0.0178672 -0.0176241,0.0376387 -0.0176241,0.0595574 0,0.0335871 0.0128433,0.0614616 0.0381249,0.0838261 0.025241,0.0221618 0.0623935,0.0333441 0.111214,0.0333441 0.0483752,0 0.0914835,-0.0104529 0.129122,-0.0316829 0.0376387,-0.0211895 0.0655132,-0.0502389 0.0831373,-0.0869457 0.0135726,-0.0283202 0.0202576,-0.0702535 0.0202576,-0.125516l0 -0.0462279zm0.320354 0.372092l0 -0.741065 0.112916 0 0 0.112227c0.0288063,-0.0524267 0.0555059,-0.0871888 0.0800176,-0.103881 0.0243092,-0.0166518 0.0512113,-0.025241 0.0805038,-0.025241 0.0424195,0 0.0852846,0.0135726 0.129122,0.0404747l-0.0433513 0.116724c-0.030508,-0.0183129 -0.0612186,-0.0273883 -0.0919291,-0.0273883 -0.0276314,0 -0.0521837,0.00834614 -0.0741024,0.0247953 -0.0219188,0.0166518 -0.0373956,0.0395429 -0.0466736,0.0688354 -0.0140588,0.0445263 -0.0209869,0.0933472 -0.0209869,0.146503l0 0.388015 -0.125516 0zm0.9609 -0.0914835c-0.0466736,0.0395429 -0.0914429,0.0674174 -0.134349,0.0838666 -0.0431082,0.0162061 -0.0892956,0.0243092 -0.138603,0.0243092 -0.0814762,0 -0.14391,-0.0197714 -0.187707,-0.0595574 -0.0435944,-0.039786 -0.0655132,-0.0907542 -0.0655132,-0.152459 0,-0.0364637 0.00810305,-0.0695647 0.0247548,-0.0995865 0.0164492,-0.0299813 0.0381249,-0.0540474 0.0647839,-0.0721577 0.0269426,-0.0181103 0.0569645,-0.031926 0.0905516,-0.041204 0.0245117,-0.00644193 0.0616642,-0.0128839 0.111457,-0.0188396 0.101491,-0.0121141 0.176282,-0.0264159 0.224171,-0.0433513 0.000445668,-0.017138 0.000688759,-0.0280771 0.000688759,-0.0326148 0,-0.0512113 -0.0119115,-0.0874319 -0.0357345,-0.108135 -0.031926,-0.0286038 -0.0797745,-0.0426626 -0.142897,-0.0426626 -0.0590712,0 -0.102666,0.0102504 -0.131026,0.0309942 -0.0281176,0.0207033 -0.0488209,0.0573696 -0.0623935,0.110039l-0.12268 -0.0169354c0.0111822,-0.0523862 0.0295356,-0.0950083 0.0550197,-0.127177 0.0254841,-0.0324122 0.0626366,-0.0574101 0.111012,-0.0747912 0.0483347,-0.0174216 0.104327,-0.0262134 0.168179,-0.0262134 0.0633253,0 0.114537,0.00761687 0.15408,0.0224049 0.0395429,0.0149906 0.0686328,0.0335871 0.0874319,0.0561947 0.0185965,0.022648 0.0314398,0.0509682 0.0390567,0.0855277 0.00405153,0.0214326 0.00619883,0.0600031 0.00619883,0.115752l0 0.16745c0,0.116968 0.00263349,0.190827 0.00810305,0.221537 0.00522647,0.0309537 0.015963,0.0607324 0.0316829,0.0890931l-0.131229 0c-0.0128839,-0.0259703 -0.0214731,-0.0564378 -0.0250384,-0.0914835zm-0.0104529 -0.280609c-0.0457417,0.0188396 -0.114131,0.0345595 -0.205129,0.0476459 -0.051657,0.00741429 -0.0883638,0.0157199 -0.109553,0.0250384 -0.0214326,0.00927799 -0.0381249,0.0228506 -0.0495502,0.0409609 -0.0116684,0.0178672 -0.0176241,0.0376387 -0.0176241,0.0595574 0,0.0335871 0.0128433,0.0614616 0.0381249,0.0838261 0.025241,0.0221618 0.0623935,0.0333441 0.111214,0.0333441 0.0483752,0 0.0914835,-0.0104529 0.129122,-0.0316829 0.0376387,-0.0211895 0.0655132,-0.0502389 0.0831373,-0.0869457 0.0135726,-0.0283202 0.0202576,-0.0702535 0.0202576,-0.125516l0 -0.0462279zm0.437565 0.372092l-0.116481 0 0 -1.02309 0.125516 0 0 0.364921c0.0531155,-0.066445 0.120776,-0.0997891 0.202941,-0.0997891 0.0457417,0 0.08885,0.00927799 0.129608,0.0276314 0.0407178,0.0183534 0.0740619,0.0443237 0.100518,0.0774247 0.0261729,0.0333441 0.0469167,0.0733731 0.0616642,0.120533 0.0150312,0.0469167 0.0224049,0.0971556 0.0224049,0.150514 0,0.127218 -0.0314398,0.225346 -0.0943195,0.294667 -0.0626366,0.0693216 -0.138157,0.103881 -0.226075,0.103881 -0.0873914,0 -0.156024,-0.0364637 -0.205777,-0.109594l0 0.0929015zm-0.00145855 -0.376103c0,0.08885 0.0121546,0.152905 0.0362206,0.192447 0.0395429,0.0647839 0.0931446,0.0971961 0.160562,0.0971961 0.0550197,0 0.102423,-0.023823 0.142411,-0.071712 0.0400291,-0.0476459 0.0600436,-0.118629 0.0600436,-0.213191 0,-0.0967099 -0.0192853,-0.168179 -0.0576532,-0.214123 -0.0383274,-0.0459848 -0.0847984,-0.0690785 -0.139089,-0.0690785 -0.0550197,0 -0.102423,0.023823 -0.142452,0.0714284 -0.0400291,0.0476459 -0.0600436,0.116724 -0.0600436,0.207033zm0.633618 0.00546956c0,-0.137225 0.0381249,-0.238918 0.114577,-0.304918 0.063609,-0.0547766 0.141236,-0.082408 0.232963,-0.082408 0.101936,0 0.185317,0.0333441 0.249858,0.100275 0.0648244,0.0666881 0.096953,0.158901 0.096953,0.276557 0,0.095535 -0.0143019,0.170569 -0.0428651,0.225103 -0.0286038,0.0547766 -0.0702535,0.0971961 -0.124828,0.12742 -0.0547766,0.0302649 -0.114334,0.0452961 -0.179118,0.0452961 -0.103638,0 -0.187464,-0.0331415 -0.251559,-0.0998296 -0.0640546,-0.066445 -0.0959806,-0.162223 -0.0959806,-0.287496zm0.129122 0c0,0.0950488 0.0207033,0.166032 0.0621504,0.213191 0.0414471,0.0474029 0.0936308,0.0709827 0.156267,0.0709827 0.0623935,0 0.114334,-0.023823 0.155781,-0.0712258 0.041204,-0.0474029 0.0619478,-0.119804 0.0619478,-0.217 0,-0.0917265 -0.0207438,-0.161291 -0.062434,-0.208451 -0.0416902,-0.0471598 -0.0933472,-0.0707396 -0.155295,-0.0707396 -0.0626366,0 -0.11482,0.0235799 -0.156267,0.0705371 -0.0414471,0.0469167 -0.0621504,0.117899 -0.0621504,0.212705zm0.709827 0.370634l0 -1.02309 0.125516 0 0 1.02309 -0.125516 0zm0.32084 -0.878492l0 -0.144599 0.125759 0 0 0.144599 -0.125759 0zm0 0.878492l0 -0.741065 0.125759 0 0 0.741065 -0.125759 0z"/>
   <polygon id="_215594120" class="fil2" points="11.9082,17.8295 9.74785,16.8148 9.69656,16.9246 11.8567,17.9391 11.7223,18.2252 12.5021,18.1754 12.0425,17.5435 "/>
   <polygon id="_215594504" class="fil2" points="17.4497,17.9391 19.6098,16.9246 19.5585,16.8148 17.3982,17.8295 17.2639,17.5435 16.8043,18.1754 17.5841,18.2252 "/>
   <path id="_215594984" class="fil3" d="M34.2732 19.4162l0 0.121546 -0.243092 0 0 -0.121546 0.243092 0zm2.93719 -6.05719l0.121546 0 0 0.243092 -0.121546 0 0 -0.243092zm0 0.607729l0.121546 0 0 0.243092 -0.121546 0 0 -0.243092zm0 0.607729l0.121546 0 0 0.243092 -0.121546 0 0 -0.243092zm0 0.607729l0.121546 0 0 0.243092 -0.121546 0 0 -0.243092zm0 0.607729l0.121546 0 0 0.243092 -0.121546 0 0 -0.243092zm0 0.607729l0.121546 0 0 0.243092 -0.121546 0 0 -0.243092zm0 0.607729l0.121546 0 0 0.243092 -0.121546 0 0 -0.243092zm0 0.607729l0.121546 0 0 0.243092 -0.121546 0 0 -0.243092zm0 0.607729l0.121546 0 0 0.243092 -0.121546 0 0 -0.243092zm0 0.607729l0.121546 0 0 0.243092 -0.121546 0 0 -0.243092zm0.0808685 0.607729l0.0406773 0 0 0.0406773 0 0.0607729 -0.0607729 0 -0.202414 0 0 -0.121546 0.202414 0 0.0200956 0.0200956zm-0.587147 -0.0200956l0 0.121546 -0.243092 0 0 -0.121546 0.243092 0zm-0.607729 0l0 0.121546 -0.243092 0 0 -0.121546 0.243092 0zm-0.607729 0l0 0.121546 -0.243092 0 0 -0.121546 0.243092 0zm-0.607729 0l0 0.121546 -0.243092 0 0 -0.121546 0.243092 0z"/>
   <path id="_215595440" class="fil4" d="M37.2712 19.3022c-0.111822,0 -0.202576,0.0907137 -0.202576,0.202617 0,0.111863 0.0907542,0.202617 0.202576,0.202617 0.111863,0 0.202576,-0.0907542 0.202576,-0.202617 0,-0.111903 -0.0907137,-0.202617 -0.202576,-0.202617z"/>
   <path id="_215588000" class="fil3" d="M37.2712 19.3629c-0.0390972,0 -0.0745886,0.0159225 -0.100235,0.0415687 -0.0256462,0.0256462 -0.0415687,0.0611375 -0.0415687,0.100275 0,0.0390972 0.0159225,0.0746291 0.0415687,0.100275 0.0256462,0.0256462 0.0611375,0.0415687 0.100235,0.0415687 0.0390972,0 0.0745886,-0.0159225 0.100235,-0.0415687 0.0256462,-0.0256462 0.0415687,-0.0611375 0.0415687,-0.100275 0,-0.0391377 -0.0159225,-0.0746291 -0.0415687,-0.100275l0 -0.000243092c-0.0254436,-0.0254841 -0.0609349,-0.0413256 -0.100235,-0.0413256zm-0.186208 -0.0444047c0.0476054,-0.0476054 0.113524,-0.0771411 0.186208,-0.0771411 0.0725223,0 0.13836,0.0295761 0.186087,0.0772626l0.000121546 -0.000121546c0.0476054,0.0476054 0.0771411,0.113524 0.0771411,0.186249 0,0.0727249 -0.0295356,0.138643 -0.0771411,0.186249 -0.0476054,0.0476054 -0.113524,0.0771411 -0.186208,0.0771411 -0.0726844,0 -0.138603,-0.0295356 -0.186208,-0.0771411 -0.0476054,-0.0476054 -0.0771411,-0.113564 -0.0771411,-0.186249 0,-0.0727249 0.0295356,-0.138643 0.0771411,-0.186249z"/>
   <path id="_215594528" class="fil3" d="M36.9967 12.7068l0 -1.025 0.114334 0 0 0.0962643c0.0269426,-0.0376387 0.0574101,-0.0659994 0.0914835,-0.0847984 0.0338302,-0.0188396 0.0750343,-0.0283607 0.123369,-0.0283607 0.0633659,0 0.119115,0.0164492 0.16749,0.0488209 0.0485778,0.0326553 0.0850415,0.0785996 0.109553,0.137914 0.0247953,0.0593143 0.0371525,0.124341 0.0371525,0.195121 0,0.075723 -0.0135726,0.144113 -0.0409609,0.204845 -0.0271452,0.0607324 -0.0666881,0.107163 -0.118629,0.139575 -0.0519406,0.0321691 -0.106474,0.0483752 -0.163641,0.0483752 -0.0419333,0 -0.0793289,-0.00883233 -0.112673,-0.0264565 -0.0333441,-0.0176241 -0.0604893,-0.0400291 -0.0819219,-0.0669312l0 0.360626 -0.125557 0zm0.113645 -0.65027c0,0.0952514 0.0192853,0.165788 0.0578558,0.21149 0.038611,0.0454986 0.0855277,0.0683898 0.140304,0.0683898 0.055749,0 0.103638,-0.0235799 0.143424,-0.0709827 0.0397455,-0.0471598 0.05976,-0.12029 0.05976,-0.21939 0,-0.0945626 -0.0195284,-0.165059 -0.058342,-0.212259 -0.0388136,-0.0469167 -0.0852846,-0.0704965 -0.139129,-0.0704965 -0.0535612,0 -0.100964,0.0249979 -0.142209,0.0750343 -0.041204,0.0500363 -0.0616642,0.122923 -0.0616642,0.218215z"/>
   <path id="_215593904" class="fil2" d="M34.9361 8.99159l0 -0.741065 0.112916 0 0 0.112227c0.0288063,-0.0524267 0.0555059,-0.0871888 0.0800176,-0.103881 0.0243092,-0.0166518 0.0512113,-0.025241 0.0805038,-0.025241 0.0424195,0 0.0852846,0.0135726 0.129122,0.0404747l-0.0433513 0.116724c-0.030508,-0.0183129 -0.0612186,-0.0273883 -0.0919291,-0.0273883 -0.0276314,0 -0.0521837,0.00834614 -0.0741024,0.0247953 -0.0219188,0.0166518 -0.0373956,0.0395429 -0.0466736,0.0688354 -0.0140588,0.0445263 -0.0209869,0.0933472 -0.0209869,0.146503l0 0.388015 -0.125516 0zm0.9609 -0.0914835c-0.0466736,0.0395429 -0.0914429,0.0674174 -0.134349,0.0838666 -0.0431082,0.0162061 -0.0892956,0.0243092 -0.138603,0.0243092 -0.0814762,0 -0.14391,-0.0197714 -0.187707,-0.0595574 -0.0435944,-0.039786 -0.0655132,-0.0907542 -0.0655132,-0.152459 0,-0.0364637 0.00810305,-0.0695647 0.0247548,-0.0995865 0.0164492,-0.0299813 0.0381249,-0.0540474 0.0647839,-0.0721577 0.0269426,-0.0181103 0.0569645,-0.031926 0.0905516,-0.041204 0.0245117,-0.00644193 0.0616642,-0.0128839 0.111457,-0.0188396 0.101491,-0.0121141 0.176282,-0.0264159 0.224171,-0.0433513 0.000445668,-0.017138 0.000688759,-0.0280771 0.000688759,-0.0326148 0,-0.0512113 -0.0119115,-0.0874319 -0.0357345,-0.108135 -0.031926,-0.0286038 -0.0797745,-0.0426626 -0.142897,-0.0426626 -0.0590712,0 -0.102666,0.0102504 -0.131026,0.0309942 -0.0281176,0.0207033 -0.0488209,0.0573696 -0.0623935,0.110039l-0.12268 -0.0169354c0.0111822,-0.0523862 0.0295356,-0.0950083 0.0550197,-0.127177 0.0254841,-0.0324122 0.0626366,-0.0574101 0.111012,-0.0747912 0.0483347,-0.0174216 0.104327,-0.0262134 0.168179,-0.0262134 0.0633253,0 0.114537,0.00761687 0.15408,0.0224049 0.0395429,0.0149906 0.0686328,0.0335871 0.0874319,0.0561947 0.0185965,0.022648 0.0314398,0.0509682 0.0390567,0.0855277 0.00405153,0.0214326 0.00619883,0.0600031 0.00619883,0.115752l0 0.16745c0,0.116968 0.00263349,0.190827 0.00810305,0.221537 0.00522647,0.0309537 0.015963,0.0607324 0.0316829,0.0890931l-0.131229 0c-0.0128839,-0.0259703 -0.0214731,-0.0564378 -0.0250384,-0.0914835zm-0.0104529 -0.280609c-0.0457417,0.0188396 -0.114131,0.0345595 -0.205129,0.0476459 -0.051657,0.00741429 -0.0883638,0.0157199 -0.109553,0.0250384 -0.0214326,0.00927799 -0.0381249,0.0228506 -0.0495502,0.0409609 -0.0116684,0.0178672 -0.0176241,0.0376387 -0.0176241,0.0595574 0,0.0335871 0.0128433,0.0614616 0.0381249,0.0838261 0.025241,0.0221618 0.0623935,0.0333441 0.111214,0.0333441 0.0483752,0 0.0914835,-0.0104529 0.129122,-0.0316829 0.0376387,-0.0211895 0.0655132,-0.0502389 0.0831373,-0.0869457 0.0135726,-0.0283202 0.0202576,-0.0702535 0.0202576,-0.125516l0 -0.0462279zm0.321772 0.372092l0 -0.741065 0.112187 0 0 0.103881c0.0233773,-0.0362206 0.054331,-0.0655132 0.0929015,-0.0874319 0.038611,-0.0221618 0.0826511,-0.0333441 0.131958,-0.0333441 0.0548171,0 0.0998296,0.0114253 0.134835,0.0343164 0.0352483,0.0228506 0.0600436,0.0545335 0.0743455,0.0954945 0.0588282,-0.0864596 0.135037,-0.129811 0.228911,-0.129811 0.0735757,0 0.130054,0.0205007 0.169597,0.0612186 0.0395429,0.0407178 0.0593143,0.103395 0.0593143,0.18795l0 0.508791 -0.124828 0 0 -0.466857c0,-0.0502794 -0.00405153,-0.0865001 -0.0121546,-0.108621 -0.00834614,-0.0219188 -0.0230937,-0.039786 -0.0443237,-0.0533586 -0.0214326,-0.01337 -0.0466736,-0.0202576 -0.0754799,-0.0202576 -0.0521837,0 -0.0952919,0.017381 -0.129851,0.0521431 -0.0342759,0.0345595 -0.051657,0.0900654 -0.051657,0.166275l0 0.430677 -0.125557 0 0 -0.481402c0,-0.0559921 -0.0102504,-0.0979254 -0.0307106,-0.125759 -0.0205007,-0.0278745 -0.0538448,-0.0419333 -0.100518,-0.0419333 -0.0352483,0 -0.0679036,0.00927799 -0.0979254,0.0281176 -0.0299813,0.018556 -0.0519,0.0457012 -0.0652701,0.0814357 -0.0135726,0.0359775 -0.0202171,0.087675 -0.0202171,0.155092l0 0.384449 -0.125557 0zm1.19103 -0.878492l0 -0.144599 0.125759 0 0 0.144599 -0.125759 0zm0 0.878492l0 -0.741065 0.125759 0 0 0.741065 -0.125759 0zm0.270115 -0.370634c0,-0.137225 0.0381249,-0.238918 0.114577,-0.304918 0.063609,-0.0547766 0.141236,-0.082408 0.232963,-0.082408 0.101936,0 0.185317,0.0333441 0.249858,0.100275 0.0648244,0.0666881 0.096953,0.158901 0.096953,0.276557 0,0.095535 -0.0143019,0.170569 -0.0428651,0.225103 -0.0286038,0.0547766 -0.0702535,0.0971961 -0.124828,0.12742 -0.0547766,0.0302649 -0.114334,0.0452961 -0.179118,0.0452961 -0.103638,0 -0.187464,-0.0331415 -0.251559,-0.0998296 -0.0640546,-0.066445 -0.0959806,-0.162223 -0.0959806,-0.287496zm0.129122 0c0,0.0950488 0.0207033,0.166032 0.0621504,0.213191 0.0414471,0.0474029 0.0936308,0.0709827 0.156267,0.0709827 0.0623935,0 0.114334,-0.023823 0.155781,-0.0712258 0.041204,-0.0474029 0.0619478,-0.119804 0.0619478,-0.217 0,-0.0917265 -0.0207438,-0.161291 -0.062434,-0.208451 -0.0416902,-0.0471598 -0.0933472,-0.0707396 -0.155295,-0.0707396 -0.0626366,0 -0.11482,0.0235799 -0.156267,0.0705371 -0.0414471,0.0469167 -0.0621504,0.117899 -0.0621504,0.212705zm0.712663 0.370634l0 -0.741065 0.112916 0 0 0.105299c0.0545335,-0.0814762 0.133174,-0.122194 0.235839,-0.122194 0.0447694,0 0.0857303,0.00810305 0.123126,0.0240661 0.0376387,0.0162061 0.0655132,0.0371525 0.0841097,0.0633659 0.0187991,0.0259703 0.0316829,0.0569239 0.0392998,0.0926584 0.00449719,0.0233368 0.00688759,0.0640546 0.00688759,0.122194l0 0.455675 -0.125759 0 0 -0.450935c0,-0.0509682 -0.0047808,-0.0892956 -0.014545,-0.11478 -0.00976418,-0.0252815 -0.0271452,-0.0454986 -0.0519,-0.0605298 -0.0250384,-0.0152337 -0.0540879,-0.0228506 -0.087675,-0.0228506 -0.0536017,0 -0.0995865,0.017138 -0.138643,0.0509682 -0.0388136,0.0340733 -0.0580989,0.098371 -0.0580989,0.19342l0 0.404707 -0.125557 0zm1.27842 -0.0914835c-0.0466736,0.0395429 -0.0914429,0.0674174 -0.134349,0.0838666 -0.0431082,0.0162061 -0.0892956,0.0243092 -0.138603,0.0243092 -0.0814762,0 -0.14391,-0.0197714 -0.187707,-0.0595574 -0.0435944,-0.039786 -0.0655132,-0.0907542 -0.0655132,-0.152459 0,-0.0364637 0.00810305,-0.0695647 0.0247548,-0.0995865 0.0164492,-0.0299813 0.0381249,-0.0540474 0.0647839,-0.0721577 0.0269426,-0.0181103 0.0569645,-0.031926 0.0905516,-0.041204 0.0245117,-0.00644193 0.0616642,-0.0128839 0.111457,-0.0188396 0.101491,-0.0121141 0.176282,-0.0264159 0.224171,-0.0433513 0.000445668,-0.017138 0.000688759,-0.0280771 0.000688759,-0.0326148 0,-0.0512113 -0.0119115,-0.0874319 -0.0357345,-0.108135 -0.031926,-0.0286038 -0.0797745,-0.0426626 -0.142897,-0.0426626 -0.0590712,0 -0.102666,0.0102504 -0.131026,0.0309942 -0.0281176,0.0207033 -0.0488209,0.0573696 -0.0623935,0.110039l-0.12268 -0.0169354c0.0111822,-0.0523862 0.0295356,-0.0950083 0.0550197,-0.127177 0.0254841,-0.0324122 0.0626366,-0.0574101 0.111012,-0.0747912 0.0483347,-0.0174216 0.104327,-0.0262134 0.168179,-0.0262134 0.0633253,0 0.114537,0.00761687 0.15408,0.0224049 0.0395429,0.0149906 0.0686328,0.0335871 0.0874319,0.0561947 0.0185965,0.022648 0.0314398,0.0509682 0.0390567,0.0855277 0.00405153,0.0214326 0.00619883,0.0600031 0.00619883,0.115752l0 0.16745c0,0.116968 0.00263349,0.190827 0.00810305,0.221537 0.00522647,0.0309537 0.015963,0.0607324 0.0316829,0.0890931l-0.131229 0c-0.0128839,-0.0259703 -0.0214731,-0.0564378 -0.0250384,-0.0914835zm-0.0104529 -0.280609c-0.0457417,0.0188396 -0.114131,0.0345595 -0.205129,0.0476459 -0.051657,0.00741429 -0.0883638,0.0157199 -0.109553,0.0250384 -0.0214326,0.00927799 -0.0381249,0.0228506 -0.0495502,0.0409609 -0.0116684,0.0178672 -0.0176241,0.0376387 -0.0176241,0.0595574 0,0.0335871 0.0128433,0.0614616 0.0381249,0.0838261 0.025241,0.0221618 0.0623935,0.0333441 0.111214,0.0333441 0.0483752,0 0.0914835,-0.0104529 0.129122,-0.0316829 0.0376387,-0.0211895 0.0655132,-0.0502389 0.0831373,-0.0869457 0.0135726,-0.0283202 0.0202576,-0.0702535 0.0202576,-0.125516l0 -0.0462279zm-4.8026 2.25273l0 -1.025 0.114334 0 0 0.0962643c0.0269426,-0.0376387 0.0574101,-0.0659994 0.0914835,-0.0847984 0.0338302,-0.0188396 0.0750343,-0.0283607 0.123369,-0.0283607 0.0633659,0 0.119115,0.0164492 0.16749,0.0488209 0.0485778,0.0326553 0.0850415,0.0785996 0.109553,0.137914 0.0247953,0.0593143 0.0371525,0.124341 0.0371525,0.195121 0,0.075723 -0.0135726,0.144113 -0.0409609,0.204845 -0.0271452,0.0607324 -0.0666881,0.107163 -0.118629,0.139575 -0.0519406,0.0321691 -0.106474,0.0483752 -0.163641,0.0483752 -0.0419333,0 -0.0793289,-0.00883233 -0.112673,-0.0264565 -0.0333441,-0.0176241 -0.0604893,-0.0400291 -0.0819219,-0.0669312l0 0.360626 -0.125557 0zm0.113645 -0.65027c0,0.0952514 0.0192853,0.165788 0.0578558,0.21149 0.038611,0.0454986 0.0855277,0.0683898 0.140304,0.0683898 0.055749,0 0.103638,-0.0235799 0.143424,-0.0709827 0.0397455,-0.0471598 0.05976,-0.12029 0.05976,-0.21939 0,-0.0945626 -0.0195284,-0.165059 -0.058342,-0.212259 -0.0388136,-0.0469167 -0.0852846,-0.0704965 -0.139129,-0.0704965 -0.0535612,0 -0.100964,0.0249979 -0.142209,0.0750343 -0.041204,0.0500363 -0.0616642,0.122923 -0.0616642,0.218215zm1.16477 0.274856c-0.0466736,0.0395429 -0.0914429,0.0674174 -0.134349,0.0838666 -0.0431082,0.0162061 -0.0892956,0.0243092 -0.138603,0.0243092 -0.0814762,0 -0.14391,-0.0197714 -0.187707,-0.0595574 -0.0435944,-0.039786 -0.0655132,-0.0907542 -0.0655132,-0.152459 0,-0.0364637 0.00810305,-0.0695647 0.0247548,-0.0995865 0.0164492,-0.0299813 0.0381249,-0.0540474 0.0647839,-0.0721577 0.0269426,-0.0181103 0.0569645,-0.031926 0.0905516,-0.041204 0.0245117,-0.00644193 0.0616642,-0.0128839 0.111457,-0.0188396 0.101491,-0.0121141 0.176282,-0.0264159 0.224171,-0.0433513 0.000445668,-0.017138 0.000688759,-0.0280771 0.000688759,-0.0326148 0,-0.0512113 -0.0119115,-0.0874319 -0.0357345,-0.108135 -0.031926,-0.0286038 -0.0797745,-0.0426626 -0.142897,-0.0426626 -0.0590712,0 -0.102666,0.0102504 -0.131026,0.0309942 -0.0281176,0.0207033 -0.0488209,0.0573696 -0.0623935,0.110039l-0.12268 -0.0169354c0.0111822,-0.0523862 0.0295356,-0.0950083 0.0550197,-0.127177 0.0254841,-0.0324122 0.0626366,-0.0574101 0.111012,-0.0747912 0.0483347,-0.0174216 0.104327,-0.0262134 0.168179,-0.0262134 0.0633253,0 0.114537,0.00761687 0.15408,0.0224049 0.0395429,0.0149906 0.0686328,0.0335871 0.0874319,0.0561947 0.0185965,0.022648 0.0314398,0.0509682 0.0390567,0.0855277 0.00405153,0.0214326 0.00619883,0.0600031 0.00619883,0.115752l0 0.16745c0,0.116968 0.00263349,0.190827 0.00810305,0.221537 0.00522647,0.0309537 0.015963,0.0607324 0.0316829,0.0890931l-0.131229 0c-0.0128839,-0.0259703 -0.0214731,-0.0564378 -0.0250384,-0.0914835zm-0.0104529 -0.280609c-0.0457417,0.0188396 -0.114131,0.0345595 -0.205129,0.0476459 -0.051657,0.00741429 -0.0883638,0.0157199 -0.109553,0.0250384 -0.0214326,0.00927799 -0.0381249,0.0228506 -0.0495502,0.0409609 -0.0116684,0.0178672 -0.0176241,0.0376387 -0.0176241,0.0595574 0,0.0335871 0.0128433,0.0614616 0.0381249,0.0838261 0.025241,0.0221618 0.0623935,0.0333441 0.111214,0.0333441 0.0483752,0 0.0914835,-0.0104529 0.129122,-0.0316829 0.0376387,-0.0211895 0.0655132,-0.0502389 0.0831373,-0.0869457 0.0135726,-0.0283202 0.0202576,-0.0702535 0.0202576,-0.125516l0 -0.0462279zm0.320354 0.372092l0 -0.741065 0.112916 0 0 0.112227c0.0288063,-0.0524267 0.0555059,-0.0871888 0.0800176,-0.103881 0.0243092,-0.0166518 0.0512113,-0.025241 0.0805038,-0.025241 0.0424195,0 0.0852846,0.0135726 0.129122,0.0404747l-0.0433513 0.116724c-0.030508,-0.0183129 -0.0612186,-0.0273883 -0.0919291,-0.0273883 -0.0276314,0 -0.0521837,0.00834614 -0.0741024,0.0247953 -0.0219188,0.0166518 -0.0373956,0.0395429 -0.0466736,0.0688354 -0.0140588,0.0445263 -0.0209869,0.0933472 -0.0209869,0.146503l0 0.388015 -0.125516 0zm0.9609 -0.0914835c-0.0466736,0.0395429 -0.0914429,0.0674174 -0.134349,0.0838666 -0.0431082,0.0162061 -0.0892956,0.0243092 -0.138603,0.0243092 -0.0814762,0 -0.14391,-0.0197714 -0.187707,-0.0595574 -0.0435944,-0.039786 -0.0655132,-0.0907542 -0.0655132,-0.152459 0,-0.0364637 0.00810305,-0.0695647 0.0247548,-0.0995865 0.0164492,-0.0299813 0.0381249,-0.0540474 0.0647839,-0.0721577 0.0269426,-0.0181103 0.0569645,-0.031926 0.0905516,-0.041204 0.0245117,-0.00644193 0.0616642,-0.0128839 0.111457,-0.0188396 0.101491,-0.0121141 0.176282,-0.0264159 0.224171,-0.0433513 0.000445668,-0.017138 0.000688759,-0.0280771 0.000688759,-0.0326148 0,-0.0512113 -0.0119115,-0.0874319 -0.0357345,-0.108135 -0.031926,-0.0286038 -0.0797745,-0.0426626 -0.142897,-0.0426626 -0.0590712,0 -0.102666,0.0102504 -0.131026,0.0309942 -0.0281176,0.0207033 -0.0488209,0.0573696 -0.0623935,0.110039l-0.12268 -0.0169354c0.0111822,-0.0523862 0.0295356,-0.0950083 0.0550197,-0.127177 0.0254841,-0.0324122 0.0626366,-0.0574101 0.111012,-0.0747912 0.0483347,-0.0174216 0.104327,-0.0262134 0.168179,-0.0262134 0.0633253,0 0.114537,0.00761687 0.15408,0.0224049 0.0395429,0.0149906 0.0686328,0.0335871 0.0874319,0.0561947 0.0185965,0.022648 0.0314398,0.0509682 0.0390567,0.0855277 0.00405153,0.0214326 0.00619883,0.0600031 0.00619883,0.115752l0 0.16745c0,0.116968 0.00263349,0.190827 0.00810305,0.221537 0.00522647,0.0309537 0.015963,0.0607324 0.0316829,0.0890931l-0.131229 0c-0.0128839,-0.0259703 -0.0214731,-0.0564378 -0.0250384,-0.0914835zm-0.0104529 -0.280609c-0.0457417,0.0188396 -0.114131,0.0345595 -0.205129,0.0476459 -0.051657,0.00741429 -0.0883638,0.0157199 -0.109553,0.0250384 -0.0214326,0.00927799 -0.0381249,0.0228506 -0.0495502,0.0409609 -0.0116684,0.0178672 -0.0176241,0.0376387 -0.0176241,0.0595574 0,0.0335871 0.0128433,0.0614616 0.0381249,0.0838261 0.025241,0.0221618 0.0623935,0.0333441 0.111214,0.0333441 0.0483752,0 0.0914835,-0.0104529 0.129122,-0.0316829 0.0376387,-0.0211895 0.0655132,-0.0502389 0.0831373,-0.0869457 0.0135726,-0.0283202 0.0202576,-0.0702535 0.0202576,-0.125516l0 -0.0462279zm0.437565 0.372092l-0.116481 0 0 -1.02309 0.125516 0 0 0.364921c0.0531155,-0.066445 0.120776,-0.0997891 0.202941,-0.0997891 0.0457417,0 0.08885,0.00927799 0.129608,0.0276314 0.0407178,0.0183534 0.0740619,0.0443237 0.100518,0.0774247 0.0261729,0.0333441 0.0469167,0.0733731 0.0616642,0.120533 0.0150312,0.0469167 0.0224049,0.0971556 0.0224049,0.150514 0,0.127218 -0.0314398,0.225346 -0.0943195,0.294667 -0.0626366,0.0693216 -0.138157,0.103881 -0.226075,0.103881 -0.0873914,0 -0.156024,-0.0364637 -0.205777,-0.109594l0 0.0929015zm-0.00145855 -0.376103c0,0.08885 0.0121546,0.152905 0.0362206,0.192447 0.0395429,0.0647839 0.0931446,0.0971961 0.160562,0.0971961 0.0550197,0 0.102423,-0.023823 0.142411,-0.071712 0.0400291,-0.0476459 0.0600436,-0.118629 0.0600436,-0.213191 0,-0.0967099 -0.0192853,-0.168179 -0.0576532,-0.214123 -0.0383274,-0.0459848 -0.0847984,-0.0690785 -0.139089,-0.0690785 -0.0550197,0 -0.102423,0.023823 -0.142452,0.0714284 -0.0400291,0.0476459 -0.0600436,0.116724 -0.0600436,0.207033zm0.633618 0.00546956c0,-0.137225 0.0381249,-0.238918 0.114577,-0.304918 0.063609,-0.0547766 0.141236,-0.082408 0.232963,-0.082408 0.101936,0 0.185317,0.0333441 0.249858,0.100275 0.0648244,0.0666881 0.096953,0.158901 0.096953,0.276557 0,0.095535 -0.0143019,0.170569 -0.0428651,0.225103 -0.0286038,0.0547766 -0.0702535,0.0971961 -0.124828,0.12742 -0.0547766,0.0302649 -0.114334,0.0452961 -0.179118,0.0452961 -0.103638,0 -0.187464,-0.0331415 -0.251559,-0.0998296 -0.0640546,-0.066445 -0.0959806,-0.162223 -0.0959806,-0.287496zm0.129122 0c0,0.0950488 0.0207033,0.166032 0.0621504,0.213191 0.0414471,0.0474029 0.0936308,0.0709827 0.156267,0.0709827 0.0623935,0 0.114334,-0.023823 0.155781,-0.0712258 0.041204,-0.0474029 0.0619478,-0.119804 0.0619478,-0.217 0,-0.0917265 -0.0207438,-0.161291 -0.062434,-0.208451 -0.0416902,-0.0471598 -0.0933472,-0.0707396 -0.155295,-0.0707396 -0.0626366,0 -0.11482,0.0235799 -0.156267,0.0705371 -0.0414471,0.0469167 -0.0621504,0.117899 -0.0621504,0.212705zm0.709827 0.370634l0 -1.02309 0.125516 0 0 1.02309 -0.125516 0zm0.32084 -0.878492l0 -0.144599 0.125759 0 0 0.144599 -0.125759 0zm0 0.878492l0 -0.741065 0.125759 0 0 0.741065 -0.125759 0z"/>
   <polygon id="_215595320" class="fil2" points="34.4154,7.28833 32.2551,6.27367 32.2038,6.38338 34.3639,7.39796 34.2296,7.68404 35.0094,7.63421 34.5498,7.00229 "/>
   <polygon id="_215594672" class="fil2" points="39.957,7.39796 42.1171,6.38338 42.0658,6.27367 39.9055,7.28833 39.7712,7.00229 39.3116,7.63421 40.0914,7.68404 "/>
   <path id="_215597408" class="fil3" d="M33.5358 19.9979l0 -0.362774c-0.0195284,0.0273883 -0.0469167,0.0502389 -0.0819624,0.0683492 -0.0352483,0.0181103 -0.0726439,0.0271857 -0.112187,0.0271857 -0.0878776,0 -0.163641,-0.0350457 -0.227007,-0.105299 -0.063609,-0.070294 -0.0952514,-0.166518 -0.0952514,-0.288955 0,-0.074305 0.0128433,-0.141236 0.0388136,-0.200307 0.0257272,-0.0590712 0.0631228,-0.103881 0.112187,-0.134349 0.049064,-0.030508 0.102909,-0.0457417 0.161494,-0.0457417 0.0917265,0 0.163884,0.0385705 0.216554,0.115995l0 -0.0991003 0.112876 0 0 1.025 -0.125516 0zm-0.387326 -0.656469c0,0.0952514 0.0200145,0.16672 0.0600436,0.214366 0.0399886,0.047889 0.0878776,0.071712 0.143627,0.071712 0.0536017,0 0.0995865,-0.022648 0.138157,-0.0681467 0.0388136,-0.0452555 0.0581394,-0.114334 0.0581394,-0.206992 0,-0.0986141 -0.0205007,-0.172676 -0.0612186,-0.222469 -0.0407583,-0.0497933 -0.0884043,-0.0747912 -0.143424,-0.0747912 -0.0542904,0 -0.100518,0.0233368 -0.1384,0.0695647 -0.0378818,0.0461874 -0.0569239,0.118386 -0.0569239,0.216757z"/>
  </g>
 </g>
</svg>
