<svg baseProfile="full" xmlns="http://www.w3.org/2000/svg" width="538" height="344" viewBox="0 0 537 343"><title/><g stroke-miterlimit="10" stroke-linecap="square"><clipPath id="a"><path d="M0 0v344h538V0z"/></clipPath><g clip-path="url(#a)"><path d="M274 2v342" stroke-linecap="butt" fill="none" stroke="#000"/></g><clipPath id="b"><path d="M0 0v344h538V0z"/></clipPath><g clip-path="url(#b)"><path d="M274 1l-4 4" stroke-linecap="butt" fill="none" stroke="#000"/></g><clipPath id="c"><path d="M0 0v344h538V0z"/></clipPath><g clip-path="url(#c)"><path d="M274 1l4 4" stroke-linecap="butt" fill="none" stroke="#000"/></g><clipPath id="d"><path d="M0 0v344h538V0z"/></clipPath><g clip-path="url(#d)"><path d="M0 173h536" stroke-linecap="butt" fill="none" stroke="#000"/></g><clipPath id="e"><path d="M0 0v344h538V0z"/></clipPath><g clip-path="url(#e)"><path d="M537 173l-4-4" stroke-linecap="butt" fill="none" stroke="#000"/></g><clipPath id="f"><path d="M0 0v344h538V0z"/></clipPath><g clip-path="url(#f)"><path d="M537 173l-4 4" stroke-linecap="butt" fill="none" stroke="#000"/></g><clipPath id="g"><path d="M0 0v344h538V0z"/></clipPath><g clip-path="url(#g)"><path d="M18.719 186.28v-.92h5.562v.92h-5.562zm6.859 1.1l1.297-.11q.141.93.664 1.41.523.48 1.258.48.891 0 1.508-.68.617-.67.617-1.76 0-1.06-.594-1.67-.594-.61-1.547-.61-.593 0-1.07.27-.477.27-.758.7l-1.156-.14.969-5.16h4.984v1.19h-4l-.531 2.68q.906-.62 1.89-.62 1.313 0 2.211.91.899.9.899 2.34 0 1.36-.781 2.34-.969 1.22-2.641 1.22-1.359 0-2.227-.76-.867-.77-.992-2.03z"/></g><clipPath id="h"><path d="M0 0v344h538V0z"/></clipPath><g clip-path="url(#h)"><path d="M24 173v3" stroke-linecap="butt" fill="none" stroke="#000"/></g><clipPath id="i"><path d="M0 0v344h538V0z"/></clipPath><g clip-path="url(#i)"><path d="M68.719 186.28v-.92h5.562v.92h-5.562zM79.531 190v-2.41h-4.359v-1.12l4.578-6.49h1v6.49h1.359v1.12H80.75V190h-1.219zm0-3.53v-4.52l-3.14 4.52h3.14z"/></g><clipPath id="j"><path d="M0 0v344h538V0z"/></clipPath><g clip-path="url(#j)"><path d="M74 173v3" stroke-linecap="butt" fill="none" stroke="#000"/></g><clipPath id="k"><path d="M0 0v344h538V0z"/></clipPath><g clip-path="url(#k)"><path d="M118.72 186.28v-.92h5.56v.92h-5.56zm6.87 1.08l1.22-.17q.22 1.04.73 1.51.51.46 1.24.46.88 0 1.47-.61.59-.6.59-1.49 0-.84-.55-1.39-.56-.55-1.4-.55-.36 0-.87.13l.14-1.08q.12.02.18.02.8 0 1.43-.41.62-.4.62-1.26 0-.68-.45-1.12-.46-.45-1.19-.45-.72 0-1.2.45-.47.44-.61 1.35l-1.22-.22q.22-1.23 1.01-1.91.8-.68 1.99-.68.83 0 1.51.35.69.35 1.06.96.37.61.37 1.3 0 .64-.35 1.17-.34.53-1.03.86.89.2 1.38.84.5.64.5 1.63 0 1.31-.96 2.22-.97.9-2.42.9-1.33 0-2.19-.78-.87-.78-1-2.03z"/></g><clipPath id="l"><path d="M0 0v344h538V0z"/></clipPath><g clip-path="url(#l)"><path d="M124 173v3" stroke-linecap="butt" fill="none" stroke="#000"/></g><clipPath id="m"><path d="M0 0v344h538V0z"/></clipPath><g clip-path="url(#m)"><path d="M168.72 186.28v-.92h5.56v.92h-5.56zm13.33 2.53V190h-6.63q-.01-.44.14-.86.27-.67.82-1.33.56-.65 1.6-1.51 1.64-1.35 2.22-2.13.57-.78.57-1.48 0-.74-.53-1.24-.52-.5-1.35-.5-.89 0-1.43.53-.54.54-.54 1.49l-1.26-.14q.12-1.41.97-2.15t2.28-.74q1.45 0 2.29.79.83.8.83 1.99 0 .61-.24 1.19-.24.57-.81 1.21-.57.65-1.9 1.77-1.11.92-1.42 1.26-.32.33-.52.66h4.91z"/></g><clipPath id="n"><path d="M0 0v344h538V0z"/></clipPath><g clip-path="url(#n)"><path d="M174 173v3" stroke-linecap="butt" fill="none" stroke="#000"/></g><clipPath id="o"><path d="M0 0v344h538V0z"/></clipPath><g clip-path="url(#o)"><path d="M218.72 186.28v-.92h5.56v.92h-5.56zm11.5 3.72h-1.24v-7.84q-.43.42-1.16.85t-1.29.63v-1.19q1.03-.48 1.81-1.17.77-.69 1.08-1.34h.8V190z"/></g><clipPath id="p"><path d="M0 0v344h538V0z"/></clipPath><g clip-path="url(#p)"><path d="M224 173v3" stroke-linecap="butt" fill="none" stroke="#000"/></g><clipPath id="q"><path d="M0 0v344h538V0z"/></clipPath><g clip-path="url(#q)"><path d="M280.58 185.06q0-1.78.37-2.86.36-1.09 1.08-1.68.72-.58 1.81-.58.82 0 1.43.33.61.32 1 .93.4.61.62 1.49.22.87.22 2.37 0 1.77-.36 2.85-.36 1.07-1.08 1.67-.72.59-1.83.59-1.43 0-2.26-1.05-1-1.24-1-4.06zm1.26 0q0 2.47.58 3.28.58.82 1.42.82.86 0 1.44-.82t.58-3.28q0-2.48-.58-3.29-.58-.82-1.45-.82-.85 0-1.35.72-.64.92-.64 3.39z"/></g><clipPath id="r"><path d="M0 0v344h538V0z"/></clipPath><g clip-path="url(#r)"><path d="M326.22 190h-1.24v-7.84q-.43.42-1.16.85t-1.29.63v-1.19q1.03-.48 1.81-1.17.77-.69 1.08-1.34h.8V190z"/></g><clipPath id="s"><path d="M0 0v344h538V0z"/></clipPath><g clip-path="url(#s)"><path d="M324 173v3" stroke-linecap="butt" fill="none" stroke="#000"/></g><clipPath id="t"><path d="M0 0v344h538V0z"/></clipPath><g clip-path="url(#t)"><path d="M378.05 188.81V190h-6.63q-.01-.44.14-.86.27-.67.82-1.33.56-.65 1.6-1.51 1.64-1.35 2.22-2.13.57-.78.57-1.48 0-.74-.53-1.24-.52-.5-1.35-.5-.89 0-1.43.53-.54.54-.54 1.49l-1.26-.14q.12-1.41.97-2.15t2.28-.74q1.45 0 2.29.79.83.8.83 1.99 0 .61-.24 1.19-.24.57-.81 1.21-.57.65-1.9 1.77-1.11.92-1.42 1.26-.32.33-.52.66h4.91z"/></g><clipPath id="u"><path d="M0 0v344h538V0z"/></clipPath><g clip-path="url(#u)"><path d="M374 173v3" stroke-linecap="butt" fill="none" stroke="#000"/></g><clipPath id="v"><path d="M0 0v344h538V0z"/></clipPath><g clip-path="url(#v)"><path d="M421.59 187.36l1.22-.17q.22 1.04.73 1.51.51.46 1.24.46.88 0 1.47-.61.59-.6.59-1.49 0-.84-.55-1.39-.56-.55-1.4-.55-.36 0-.87.13l.14-1.08q.12.02.18.02.8 0 1.43-.41.62-.4.62-1.26 0-.68-.45-1.12-.46-.45-1.19-.45-.72 0-1.2.45-.47.44-.61 1.35l-1.22-.22q.22-1.23 1.01-1.91.8-.68 1.99-.68.83 0 1.51.35.69.35 1.06.96.37.61.37 1.3 0 .64-.35 1.17-.34.53-1.03.86.89.2 1.38.84.5.64.5 1.63 0 1.31-.96 2.22-.97.9-2.42.9-1.33 0-2.19-.78-.87-.78-1-2.03z"/></g><clipPath id="w"><path d="M0 0v344h538V0z"/></clipPath><g clip-path="url(#w)"><path d="M424 173v3" stroke-linecap="butt" fill="none" stroke="#000"/></g><clipPath id="x"><path d="M0 0v344h538V0z"/></clipPath><g clip-path="url(#x)"><path d="M475.53 190v-2.41h-4.36v-1.12l4.58-6.49h1v6.49h1.36v1.12h-1.36V190h-1.22zm0-3.53v-4.52l-3.14 4.52h3.14z"/></g><clipPath id="y"><path d="M0 0v344h538V0z"/></clipPath><g clip-path="url(#y)"><path d="M474 173v3" stroke-linecap="butt" fill="none" stroke="#000"/></g><clipPath id="z"><path d="M0 0v344h538V0z"/></clipPath><g clip-path="url(#z)"><path d="M521.58 187.38l1.3-.11q.14.93.66 1.41.52.48 1.26.48.89 0 1.5-.68.62-.67.62-1.76 0-1.06-.59-1.67-.6-.61-1.55-.61-.59 0-1.07.27-.48.27-.76.7l-1.15-.14.97-5.16h4.98v1.19h-4l-.53 2.68q.9-.62 1.89-.62 1.31 0 2.21.91.9.9.9 2.34 0 1.36-.78 2.34-.97 1.22-2.64 1.22-1.36 0-2.23-.76-.87-.77-.99-2.03z"/></g><clipPath id="A"><path d="M0 0v344h538V0z"/></clipPath><g clip-path="url(#A)"><path d="M524 173v3" stroke-linecap="butt" fill="none" stroke="#000"/></g><clipPath id="B"><path d="M0 0v344h538V0z"/></clipPath><g clip-path="url(#B)"><path d="M252.72 324.28v-.92h5.56v.92h-5.56zm6.87 1.08l1.22-.17q.22 1.04.73 1.51.51.46 1.24.46.88 0 1.47-.61.59-.6.59-1.49 0-.84-.55-1.39-.56-.55-1.4-.55-.36 0-.87.13l.14-1.08q.12.02.18.02.8 0 1.43-.41.62-.4.62-1.26 0-.68-.45-1.12-.46-.45-1.19-.45-.72 0-1.2.45-.47.44-.61 1.35l-1.22-.22q.22-1.23 1.01-1.91.8-.68 1.99-.68.83 0 1.51.35.69.35 1.06.96.37.61.37 1.3 0 .64-.35 1.17-.34.53-1.03.86.89.2 1.38.84.5.64.5 1.63 0 1.31-.96 2.22-.97.9-2.42.9-1.33 0-2.19-.78-.87-.78-1-2.03z"/></g><clipPath id="C"><path d="M0 0v344h538V0z"/></clipPath><g clip-path="url(#C)"><path d="M271 323h3" stroke-linecap="butt" fill="none" stroke="#000"/></g><clipPath id="D"><path d="M0 0v344h538V0z"/></clipPath><g clip-path="url(#D)"><path d="M252.72 274.28v-.92h5.56v.92h-5.56zm13.33 2.53V278h-6.63q-.01-.44.14-.86.27-.67.82-1.33.56-.65 1.6-1.51 1.64-1.35 2.22-2.13.57-.78.57-1.48 0-.74-.53-1.24-.52-.5-1.35-.5-.89 0-1.43.53-.54.54-.54 1.49l-1.26-.14q.12-1.41.97-2.15t2.28-.74q1.45 0 2.29.79.83.8.83 1.99 0 .61-.24 1.19-.24.57-.81 1.21-.57.65-1.9 1.77-1.11.92-1.42 1.26-.32.33-.52.66h4.91z"/></g><clipPath id="E"><path d="M0 0v344h538V0z"/></clipPath><g clip-path="url(#E)"><path d="M271 273h3" stroke-linecap="butt" fill="none" stroke="#000"/></g><clipPath id="F"><path d="M0 0v344h538V0z"/></clipPath><g clip-path="url(#F)"><path d="M252.72 224.28v-.92h5.56v.92h-5.56zm11.5 3.72h-1.24v-7.84q-.43.42-1.16.85t-1.29.63v-1.19q1.03-.48 1.81-1.17.77-.69 1.08-1.34h.8V228z"/></g><clipPath id="G"><path d="M0 0v344h538V0z"/></clipPath><g clip-path="url(#G)"><path d="M271 223h3" stroke-linecap="butt" fill="none" stroke="#000"/></g><clipPath id="H"><path d="M0 0v344h538V0z"/></clipPath><g clip-path="url(#H)"><path d="M259.58 165.06q0-1.78.37-2.86.36-1.09 1.08-1.68.72-.58 1.81-.58.82 0 1.43.33.61.32 1 .93.4.61.62 1.49.22.87.22 2.37 0 1.77-.36 2.85-.36 1.07-1.08 1.67-.72.59-1.83.59-1.43 0-2.26-1.05-1-1.24-1-4.06zm1.26 0q0 2.47.58 3.28.58.82 1.42.82.86 0 1.44-.82t.58-3.28q0-2.48-.58-3.29-.58-.82-1.45-.82-.85 0-1.35.72-.64.92-.64 3.39z"/></g><clipPath id="I"><path d="M0 0v344h538V0z"/></clipPath><g clip-path="url(#I)"><path d="M264.22 128h-1.24v-7.84q-.43.42-1.16.85t-1.29.63v-1.19q1.03-.48 1.81-1.17.77-.69 1.08-1.34h.8V128z"/></g><clipPath id="J"><path d="M0 0v344h538V0z"/></clipPath><g clip-path="url(#J)"><path d="M271 123h3" stroke-linecap="butt" fill="none" stroke="#000"/></g><clipPath id="K"><path d="M0 0v344h538V0z"/></clipPath><g clip-path="url(#K)"><path d="M266.05 77.812V79h-6.63q-.01-.438.14-.859.27-.672.82-1.329.56-.656 1.6-1.515 1.64-1.344 2.22-2.125.57-.781.57-1.484 0-.735-.53-1.235-.52-.5-1.35-.5-.89 0-1.43.531-.54.532-.54 1.485l-1.26-.141q.12-1.406.97-2.148.85-.742 2.28-.742 1.45 0 2.29.796.83.797.83 1.985 0 .609-.24 1.187-.24.578-.81 1.219-.57.641-1.9 1.766-1.11.921-1.42 1.257-.32.336-.52.664h4.91z"/></g><clipPath id="L"><path d="M0 0v344h538V0z"/></clipPath><g clip-path="url(#L)"><path d="M271 73h3" stroke-linecap="butt" fill="none" stroke="#000"/></g><clipPath id="M"><path d="M0 0v344h538V0z"/></clipPath><g clip-path="url(#M)"><path d="M259.59 26.359l1.22-.171q.22 1.046.73 1.507.51.461 1.24.461.88 0 1.47-.601.59-.602.59-1.493 0-.843-.55-1.39-.56-.547-1.4-.547-.36 0-.87.125l.14-1.078q.12.016.18.016.8 0 1.43-.407.62-.406.62-1.265 0-.672-.45-1.118-.46-.445-1.19-.445-.72 0-1.2.445-.47.446-.61 1.352l-1.22-.219q.22-1.234 1.01-1.914.8-.679 1.99-.679.83 0 1.51.351.69.352 1.06.961.37.609.37 1.297 0 .641-.35 1.172-.34.531-1.03.859.89.203 1.38.844.5.64.5 1.625 0 1.312-.96 2.219-.97.906-2.42.906-1.33 0-2.19-.781-.87-.782-1-2.032z"/></g><clipPath id="N"><path d="M0 0v344h538V0z"/></clipPath><g clip-path="url(#N)"><path d="M271 23h3" stroke-linecap="butt" fill="none" stroke="#000"/></g><clipPath id="O"><path d="M0 0v344h538V0z"/></clipPath><g stroke-linejoin="round" stroke-width="2.5" stroke-linecap="round" fill="none" stroke="red" clip-path="url(#O)"><path d="M184.94 351.12l4.2-8.4 4.2-8.41 4.21-8.4 4.2-8.41 4.2-8.41 4.21-8.4 4.2-8.41 4.2-8.4 4.21-8.41 4.2-8.41 4.2-8.4 4.21-8.41 4.2-8.41 4.2-8.4 4.2-8.41 4.21-8.41 4.2-8.4 4.2-8.41 4.21-8.4L269 183l4.2-8.41 4.21-8.4 4.2-8.41 4.2-8.4 4.21-8.41 4.2-8.41 4.2-8.4 4.2-8.41 4.21-8.41 4.2-8.402 4.2-8.407 4.21-8.406 4.2-8.406 4.2-8.407 4.21-8.406 4.2-8.406 4.2-8.406 4.21-8.406 4.2-8.407 4.2-8.406 4.21-8.406 4.2-8.407 4.2-8.406"/><title>Function f</title><desc>f(x) = 2x</desc></g><g transform="matrix(21 0 0 21 229 297.75)"><clipPath id="P"><path d="M-10.905-14.179V2.202h25.619v-16.381z"/></clipPath><g fill="red" clip-path="url(#P)"><path d="M.36-.406l-.047.328q-.016.062-.047.14Q.266.095.25.11.219.188.156.203H.141Q.094.203.063.172.046.156.046.14q0-.047.047-.063h.015q.032 0 .032.016v.015q0 .032-.032.047L.094.172Q.109.188.14.188q.047 0 .062-.11Q.22.063.22.031V0l.078-.406H.204q0-.016.015-.031h.093q.016-.126.032-.157.031-.094.094-.11h.03q.048 0 .079.032v.031q0 .047-.031.063H.5q-.031 0-.031-.016L.453-.609q0-.032.031-.047.016 0 .032-.016Q.5-.687.469-.687t-.047.03Q.406-.64.39-.546l-.016.11h.078q.031 0 .031.015 0 .016-.015.016h-.11z"/><title>Function f</title><desc>f(x) = 2x</desc></g></g><g transform="matrix(21 0 0 21 239.28 297.75)"><clipPath id="Q"><path d="M-11.394-14.179V2.202h25.619v-16.381z"/></clipPath><g fill="red" clip-path="url(#Q)"><path d="M.328.234V.25Q.312.25.266.203.203.141.172.063.094-.078.094-.25q0-.172.062-.313.063-.109.14-.171Q.314-.75.329-.75v.016L.312-.72Q.157-.563.157-.25q0 .313.157.469l.015.015z"/><title>Function f</title><desc>f(x) = 2x</desc></g></g><g transform="matrix(21 0 0 21 247.45 297.75)"><clipPath id="R"><path d="M-11.783-14.179V2.202h25.619v-16.381z"/></clipPath><g fill="red" clip-path="url(#R)"><path d="M.328-.297l-.031.125Q.28-.094.28-.078q0 .047.031.062h.032q.047 0 .078-.046.031-.032.047-.079 0-.015.015-.015.016 0 .016.015 0 .016-.031.063Q.406.016.344.016q-.078 0-.11-.063v-.015Q.204-.017.156 0 .141.016.125.016q-.063 0-.094-.047v-.032q0-.03.032-.046h.015q.031 0 .047.015v.016q0 .031-.031.047H.078q.016.015.047.015.047 0 .078-.062Q.22-.094.22-.11q.047-.204.047-.25 0-.063-.047-.063t-.094.063q-.016.015-.031.046v.016L.078-.28H.063q0-.031.03-.078.048-.079.126-.079t.11.079q.03-.063.077-.079h.031q.063 0 .079.032.015.015.015.031 0 .047-.047.047 0 .016-.015.016-.031 0-.031-.032v-.015q0-.032.03-.047h.016Q.47-.422.438-.422q-.079 0-.094.11-.016 0-.016.015z"/><title>Function f</title><desc>f(x) = 2x</desc></g></g><g transform="matrix(21 0 0 21 259.45 297.75)"><clipPath id="S"><path d="M-12.355-14.179V2.202h25.619v-16.381z"/></clipPath><g fill="red" clip-path="url(#S)"><path d="M.281-.25q0 .172-.062.313Q.172.171.094.234.078.25.062.25V.234.22Q.234.062.234-.25q0-.313-.156-.469L.063-.734V-.75q.015 0 .062.047.063.062.094.14.062.141.062.313z"/><title>Function f</title><desc>f(x) = 2x</desc></g></g><g transform="matrix(21 0 0 21 279.28 297.75)"><clipPath id="T"><path d="M-13.299-14.179V2.202H12.32v-16.381z"/></clipPath><g fill="red" clip-path="url(#T)"><path d="M.688-.328H.094q-.032 0-.032-.016 0-.015.032-.015h.594q.03 0 .03.015 0 .016-.03.016zm0 .187H.094q-.032 0-.032-.015 0-.016.032-.016h.594q.03 0 .03.016 0 .015-.03.015z"/><title>Function f</title><desc>f(x) = 2x</desc></g></g><g transform="matrix(21 0 0 21 307.28 297.75)"><clipPath id="U"><path d="M-14.633-14.179V2.202h25.619v-16.381z"/></clipPath><g fill="red" clip-path="url(#U)"><path d="M.453-.172L.422 0H.047q0-.031.015-.031L.25-.25q.11-.125.11-.219t-.063-.14Q.266-.641.219-.641q-.063 0-.11.063-.015.015-.015.047h.015q.032 0 .047.031v.016q0 .046-.047.046v.016q-.046 0-.062-.031v-.031q0-.079.062-.125.047-.063.125-.063.11 0 .172.078.031.047.047.11v.015q0 .063-.062.14-.032.032-.094.079L.25-.187H.234l-.109.109h.281q0-.016.016-.094h.031z"/><title>Function f</title><desc>f(x) = 2x</desc></g></g><g transform="matrix(21 0 0 21 323.62 297.75)"><clipPath id="V"><path d="M-15.41-14.179V2.202h25.619v-16.381z"/></clipPath><g fill="red" clip-path="url(#V)"><path d="M.328-.297l-.031.125Q.28-.094.28-.078q0 .047.031.062h.032q.047 0 .078-.046.031-.032.047-.079 0-.015.015-.015.016 0 .016.015 0 .016-.031.063Q.406.016.344.016q-.078 0-.11-.063v-.015Q.204-.017.156 0 .141.016.125.016q-.063 0-.094-.047v-.032q0-.03.032-.046h.015q.031 0 .047.015v.016q0 .031-.031.047H.078q.016.015.047.015.047 0 .078-.062Q.22-.094.22-.11q.047-.204.047-.25 0-.063-.047-.063t-.094.063q-.016.015-.031.046v.016L.078-.28H.063q0-.031.03-.078.048-.079.126-.079t.11.079q.03-.063.077-.079h.031q.063 0 .079.032.015.015.015.031 0 .047-.047.047 0 .016-.015.016-.031 0-.031-.032v-.015q0-.032.03-.047h.016Q.47-.422.438-.422q-.079 0-.094.11-.016 0-.016.015z"/><title>Function f</title><desc>f(x) = 2x</desc></g></g></g></svg>