<?xml version="1.0" encoding="UTF-8"?>
<!DOCTYPE svg PUBLIC "-//W3C//DTD SVG 1.1//EN" "http://www.w3.org/Graphics/SVG/1.1/DTD/svg11.dtd">
<!-- Creator: CorelDRAW -->
<svg xmlns="http://www.w3.org/2000/svg" xml:space="preserve" width="113.446mm" height="60.1546mm" style="shape-rendering:geometricPrecision; text-rendering:geometricPrecision; image-rendering:optimizeQuality; fill-rule:evenodd; clip-rule:evenodd"
viewBox="0 0 11.0339 5.85072"
 xmlns:xlink="http://www.w3.org/1999/xlink">
 <defs>
  <style type="text/css">
   <![CDATA[
    .fil0 {fill:none}
    .fil2 {fill:#1F1A17;fill-rule:nonzero}
    .fil3 {fill:#DD137B;fill-rule:nonzero}
    .fil1 {fill:#CCCCCC;fill-rule:nonzero}
   ]]>
  </style>
 </defs>
 <g id="Layer_x0020_1">
  <metadata id="CorelCorpID_0Corel-Layer"/>
  <g id="_225018616">
   <polygon id="_222191560" class="fil0" points="-1.42941e-015,-2.78944e-015 11.0339,-2.78944e-015 11.0339,5.85072 -1.42941e-015,5.85072 "/>
   <path id="_221221632" class="fil1" d="M0.782935 0.00751831l0 0.384202 0.3793 0 0 -0.384202 0.00972615 0 0 0.384202 0.3793 0 0 -0.384202 0.00972615 0 0 0.384202 0.3793 0 0 -0.384202 0.00972615 0 0 0.384202 0.3793 0 0 -0.384202 0.00972615 0 0 0.384202 0.3793 0 0 -0.384202 0.00972615 0 0 0.384202 0.3793 0 0 -0.384202 0.00972615 0 0 0.384202 0.3793 0 0 -0.384202 0.00972615 0 0 0.384202 0.3793 0 0 -0.384202 0.00972615 0 0 0.384202 0.3793 0 0 -0.384202 0.00972615 0 0 0.384202 0.3793 0 0 -0.384202 0.00972615 0 0 0.384202 0.3793 0 0 -0.384202 0.00972615 0 0 0.384202 0.3793 0 0 -0.384202 0.00972615 0 0 0.384202 0.3793 0 0 -0.384202 0.00972615 0 0 0.384202 0.3793 0 0 -0.384202 0.00972615 0 0 0.384202 0.3793 0 0 -0.384202 0.00972615 0 0 0.384202 0.3793 0 0 -0.384202 0.00972615 0 0 0.384202 0.3793 0 0 -0.384202 0.00972615 0 0 0.384202 0.3793 0 0 -0.384202 0.00972615 0 0 0.384202 0.3793 0 0 -0.384202 0.00972615 0 0 0.384202 0.3793 0 0 -0.384202 0.00972615 0 0 0.384202 0.3793 0 0 -0.384202 0.00972615 0 0 0.384202 0.3793 0 0 -0.384202 0.00972615 0 0 0.384202 0.3793 0 0 -0.384202 0.00972615 0 0 0.384202 0.3793 0 0 -0.384202 0.00972615 0 0 0.384202 0.3793 0 0 -0.384202 0.00972615 0 0 0.384202 0.3793 0 0 -0.384202 0.00972615 0 0 0.384202 0.136283 0 0 0.00972615 -0.136283 0 0 0.379281 0.136283 0 0 0.00972615 -0.136283 0 0 0.379281 0.136283 0 0 0.00972615 -0.136283 0 0 0.379281 0.136283 0 0 0.00972615 -0.136283 0 0 0.379281 0.136283 0 0 0.00972615 -0.136283 0 0 0.379281 0.136283 0 0 0.00972615 -0.136283 0 0 0.379281 0.136283 0 0 0.00972615 -0.136283 0 0 0.379281 0.136283 0 0 0.00972615 -0.136283 0 0 0.379281 0.136283 0 0 0.00972615 -0.136283 0 0 0.379281 0.136283 0 0 0.00972615 -0.136283 0 0 0.379281 0.136283 0 0 0.00972615 -0.136283 0 0 0.379281 0.136283 0 0 0.00972615 -0.136283 0 0 0.379281 0.136283 0 0 0.00972615 -0.136283 0 0 0.379281 0.136283 0 0 0.00972615 -0.136283 0 0 0.384669 -0.00972615 0 0 -0.384669 -0.3793 0 0 0.384669 -0.00972615 0 0 -0.384669 -0.3793 0 0 0.384669 -0.00972615 0 0 -0.384669 -0.3793 0 0 0.384669 -0.00972615 0 0 -0.384669 -0.3793 0 0 0.384669 -0.00972615 0 0 -0.384669 -0.3793 0 0 0.384669 -0.00972615 0 0 -0.384669 -0.3793 0 0 0.384669 -0.00972615 0 0 -0.384669 -0.3793 0 0 0.384669 -0.00972615 0 0 -0.384669 -0.3793 0 0 0.384669 -0.00972615 0 0 -0.384669 -0.3793 0 0 0.384669 -0.00972615 0 0 -0.384669 -0.3793 0 0 0.384669 -0.00972615 0 0 -0.384669 -0.3793 0 0 0.384669 -0.00972615 0 0 -0.384669 -0.3793 0 0 0.384669 -0.00972615 0 0 -0.384669 -0.3793 0 0 0.384669 -0.00972615 0 0 -0.384669 -0.3793 0 0 0.384669 -0.00972615 0 0 -0.384669 -0.3793 0 0 0.384669 -0.00972615 0 0 -0.384669 -0.3793 0 0 0.384669 -0.00972615 0 0 -0.384669 -0.3793 0 0 0.384669 -0.00972615 0 0 -0.384669 -0.3793 0 0 0.384669 -0.00972615 0 0 -0.384669 -0.3793 0 0 0.384669 -0.00972615 0 0 -0.384669 -0.3793 0 0 0.384669 -0.00972615 0 0 -0.384669 -0.3793 0 0 0.384669 -0.00972615 0 0 -0.384669 -0.3793 0 0 0.384669 -0.00972615 0 0 -0.384669 -0.3793 0 0 0.384669 -0.00972615 0 0 -0.384669 -0.3793 0 0 0.384669 -0.00972615 0 0 -0.384669 -0.3793 0 0 0.384669 -0.00972615 0 0 -0.384669 -0.3793 0 0 0.384669 -0.00972615 0 0 -0.384669 -0.3793 0 0 0.384669 -0.00972615 0 0 -0.384669 -0.384183 0 0 -0.00972615 0.384183 0 0 -0.379281 -0.384183 0 0 -0.00972615 0.384183 0 0 -0.379281 -0.384183 0 0 -0.00972615 0.384183 0 0 -0.379281 -0.384183 0 0 -0.00972615 0.384183 0 0 -0.379281 -0.384183 0 0 -0.00972615 0.384183 0 0 -0.379281 -0.384183 0 0 -0.00972615 0.384183 0 0 -0.379281 -0.384183 0 0 -0.00972615 0.384183 0 0 -0.379281 -0.384183 0 0 -0.00972615 0.384183 0 0 -0.379281 -0.384183 0 0 -0.00972615 0.384183 0 0 -0.379281 -0.384183 0 0 -0.00972615 0.384183 0 0 -0.379281 -0.384183 0 0 -0.00972615 0.384183 0 0 -0.379281 -0.384183 0 0 -0.00972615 0.384183 0 0 -0.379281 -0.384183 0 0 -0.00972615 0.384183 0 0 -0.379281 -0.384183 0 0 -0.00972615 0.384183 0 0 -0.384202 0.00972615 0 0 0.384202 0.3793 0 0 -0.384202 0.00972615 0zm0 0.393928l0 0.379281 0.3793 0 0 -0.379281 -0.3793 0zm0 0.389007l0 0.379281 0.3793 0 0 -0.379281 -0.3793 0zm0 0.389007l0 0.379281 0.3793 0 0 -0.379281 -0.3793 0zm0 0.389007l0 0.379281 0.3793 0 0 -0.379281 -0.3793 0zm0 0.389007l0 0.379281 0.3793 0 0 -0.379281 -0.3793 0zm0 0.389007l0 0.379281 0.3793 0 0 -0.379281 -0.3793 0zm0 0.389007l0 0.379281 0.3793 0 0 -0.379281 -0.3793 0zm0 0.389007l0 0.379281 0.3793 0 0 -0.379281 -0.3793 0zm0 0.389007l0 0.379281 0.3793 0 0 -0.379281 -0.3793 0zm0 0.389007l0 0.379281 0.3793 0 0 -0.379281 -0.3793 0zm0 0.389007l0 0.379281 0.3793 0 0 -0.379281 -0.3793 0zm0 0.389007l0 0.379281 0.3793 0 0 -0.379281 -0.3793 0zm0 0.389007l0 0.379281 0.3793 0 0 -0.379281 -0.3793 0zm-0.00972615 0.379281l0 -0.379281 -0.3793 0 0 0.379281 0.3793 0zm0 -0.389007l0 -0.379281 -0.3793 0 0 0.379281 0.3793 0zm0 -0.389007l0 -0.379281 -0.3793 0 0 0.379281 0.3793 0zm0 -0.389007l0 -0.379281 -0.3793 0 0 0.379281 0.3793 0zm0 -0.389007l0 -0.379281 -0.3793 0 0 0.379281 0.3793 0zm0 -0.389007l0 -0.379281 -0.3793 0 0 0.379281 0.3793 0zm0 -0.389007l0 -0.379281 -0.3793 0 0 0.379281 0.3793 0zm0 -0.389007l0 -0.379281 -0.3793 0 0 0.379281 0.3793 0zm0 -0.389007l0 -0.379281 -0.3793 0 0 0.379281 0.3793 0zm0 -0.389007l0 -0.379281 -0.3793 0 0 0.379281 0.3793 0zm0 -0.389007l0 -0.379281 -0.3793 0 0 0.379281 0.3793 0zm0 -0.389007l0 -0.379281 -0.3793 0 0 0.379281 0.3793 0zm0 -0.389007l0 -0.379281 -0.3793 0 0 0.379281 0.3793 0zm0.398753 4.66808l0.3793 0 0 -0.379281 -0.3793 0 0 0.379281zm0.389026 0l0.3793 0 0 -0.379281 -0.3793 0 0 0.379281zm0.389026 0l0.3793 0 0 -0.379281 -0.3793 0 0 0.379281zm0.389026 0l0.3793 0 0 -0.379281 -0.3793 0 0 0.379281zm0.389026 0l0.3793 0 0 -0.379281 -0.3793 0 0 0.379281zm0.389026 0l0.3793 0 0 -0.379281 -0.3793 0 0 0.379281zm0.389026 0l0.3793 0 0 -0.379281 -0.3793 0 0 0.379281zm0.389026 0l0.3793 0 0 -0.379281 -0.3793 0 0 0.379281zm0.389026 0l0.3793 0 0 -0.379281 -0.3793 0 0 0.379281zm0.389026 0l0.3793 0 0 -0.379281 -0.3793 0 0 0.379281zm0.389026 0l0.3793 0 0 -0.379281 -0.3793 0 0 0.379281zm0.389026 0l0.3793 0 0 -0.379281 -0.3793 0 0 0.379281zm0.389026 0l0.3793 0 0 -0.379281 -0.3793 0 0 0.379281zm0.389026 0l0.3793 0 0 -0.379281 -0.3793 0 0 0.379281zm0.389026 0l0.3793 0 0 -0.379281 -0.3793 0 0 0.379281zm0.389026 0l0.3793 0 0 -0.379281 -0.3793 0 0 0.379281zm0.389026 0l0.3793 0 0 -0.379281 -0.3793 0 0 0.379281zm0.389026 0l0.3793 0 0 -0.379281 -0.3793 0 0 0.379281zm0.389026 0l0.3793 0 0 -0.379281 -0.3793 0 0 0.379281zm0.389026 0l0.3793 0 0 -0.379281 -0.3793 0 0 0.379281zm0.389026 0l0.3793 0 0 -0.379281 -0.3793 0 0 0.379281zm0.389026 0l0.3793 0 0 -0.379281 -0.3793 0 0 0.379281zm0.389026 0l0.3793 0 0 -0.379281 -0.3793 0 0 0.379281zm0.389026 0l0.3793 0 0 -0.379281 -0.3793 0 0 0.379281zm0.389026 0l0.3793 0 0 -0.379281 -0.3793 0 0 0.379281zm-9.33663 -0.389007l0.3793 0 0 -0.379281 -0.3793 0 0 0.379281zm0.389026 0l0.3793 0 0 -0.379281 -0.3793 0 0 0.379281zm0.389026 0l0.3793 0 0 -0.379281 -0.3793 0 0 0.379281zm0.389026 0l0.3793 0 0 -0.379281 -0.3793 0 0 0.379281zm0.389026 0l0.3793 0 0 -0.379281 -0.3793 0 0 0.379281zm0.389026 0l0.3793 0 0 -0.379281 -0.3793 0 0 0.379281zm0.389026 0l0.3793 0 0 -0.379281 -0.3793 0 0 0.379281zm0.389026 0l0.3793 0 0 -0.379281 -0.3793 0 0 0.379281zm0.389026 0l0.3793 0 0 -0.379281 -0.3793 0 0 0.379281zm0.389026 0l0.3793 0 0 -0.379281 -0.3793 0 0 0.379281zm0.389026 0l0.3793 0 0 -0.379281 -0.3793 0 0 0.379281zm0.389026 0l0.3793 0 0 -0.379281 -0.3793 0 0 0.379281zm0.389026 0l0.3793 0 0 -0.379281 -0.3793 0 0 0.379281zm0.389026 0l0.3793 0 0 -0.379281 -0.3793 0 0 0.379281zm0.389026 0l0.3793 0 0 -0.379281 -0.3793 0 0 0.379281zm0.389026 0l0.3793 0 0 -0.379281 -0.3793 0 0 0.379281zm0.389026 0l0.3793 0 0 -0.379281 -0.3793 0 0 0.379281zm0.389026 0l0.3793 0 0 -0.379281 -0.3793 0 0 0.379281zm0.389026 0l0.3793 0 0 -0.379281 -0.3793 0 0 0.379281zm0.389026 0l0.3793 0 0 -0.379281 -0.3793 0 0 0.379281zm0.389026 0l0.3793 0 0 -0.379281 -0.3793 0 0 0.379281zm0.389026 0l0.3793 0 0 -0.379281 -0.3793 0 0 0.379281zm0.389026 0l0.3793 0 0 -0.379281 -0.3793 0 0 0.379281zm0.389026 0l0.3793 0 0 -0.379281 -0.3793 0 0 0.379281zm0.389026 0l0.3793 0 0 -0.379281 -0.3793 0 0 0.379281zm-9.33663 -0.389007l0.3793 0 0 -0.379281 -0.3793 0 0 0.379281zm0.389026 0l0.3793 0 0 -0.379281 -0.3793 0 0 0.379281zm0.389026 0l0.3793 0 0 -0.379281 -0.3793 0 0 0.379281zm0.389026 0l0.3793 0 0 -0.379281 -0.3793 0 0 0.379281zm0.389026 0l0.3793 0 0 -0.379281 -0.3793 0 0 0.379281zm0.389026 0l0.3793 0 0 -0.379281 -0.3793 0 0 0.379281zm0.389026 0l0.3793 0 0 -0.379281 -0.3793 0 0 0.379281zm0.389026 0l0.3793 0 0 -0.379281 -0.3793 0 0 0.379281zm0.389026 0l0.3793 0 0 -0.379281 -0.3793 0 0 0.379281zm0.389026 0l0.3793 0 0 -0.379281 -0.3793 0 0 0.379281zm0.389026 0l0.3793 0 0 -0.379281 -0.3793 0 0 0.379281zm0.389026 0l0.3793 0 0 -0.379281 -0.3793 0 0 0.379281zm0.389026 0l0.3793 0 0 -0.379281 -0.3793 0 0 0.379281zm0.389026 0l0.3793 0 0 -0.379281 -0.3793 0 0 0.379281zm0.389026 0l0.3793 0 0 -0.379281 -0.3793 0 0 0.379281zm0.389026 0l0.3793 0 0 -0.379281 -0.3793 0 0 0.379281zm0.389026 0l0.3793 0 0 -0.379281 -0.3793 0 0 0.379281zm0.389026 0l0.3793 0 0 -0.379281 -0.3793 0 0 0.379281zm0.389026 0l0.3793 0 0 -0.379281 -0.3793 0 0 0.379281zm0.389026 0l0.3793 0 0 -0.379281 -0.3793 0 0 0.379281zm0.389026 0l0.3793 0 0 -0.379281 -0.3793 0 0 0.379281zm0.389026 0l0.3793 0 0 -0.379281 -0.3793 0 0 0.379281zm0.389026 0l0.3793 0 0 -0.379281 -0.3793 0 0 0.379281zm0.389026 0l0.3793 0 0 -0.379281 -0.3793 0 0 0.379281zm0.389026 0l0.3793 0 0 -0.379281 -0.3793 0 0 0.379281zm-9.33663 -0.389007l0.3793 0 0 -0.379281 -0.3793 0 0 0.379281zm0.389026 0l0.3793 0 0 -0.379281 -0.3793 0 0 0.379281zm0.389026 0l0.3793 0 0 -0.379281 -0.3793 0 0 0.379281zm0.389026 0l0.3793 0 0 -0.379281 -0.3793 0 0 0.379281zm0.389026 0l0.3793 0 0 -0.379281 -0.3793 0 0 0.379281zm0.389026 0l0.3793 0 0 -0.379281 -0.3793 0 0 0.379281zm0.389026 0l0.3793 0 0 -0.379281 -0.3793 0 0 0.379281zm0.389026 0l0.3793 0 0 -0.379281 -0.3793 0 0 0.379281zm0.389026 0l0.3793 0 0 -0.379281 -0.3793 0 0 0.379281zm0.389026 0l0.3793 0 0 -0.379281 -0.3793 0 0 0.379281zm0.389026 0l0.3793 0 0 -0.379281 -0.3793 0 0 0.379281zm0.389026 0l0.3793 0 0 -0.379281 -0.3793 0 0 0.379281zm0.389026 0l0.3793 0 0 -0.379281 -0.3793 0 0 0.379281zm0.389026 0l0.3793 0 0 -0.379281 -0.3793 0 0 0.379281zm0.389026 0l0.3793 0 0 -0.379281 -0.3793 0 0 0.379281zm0.389026 0l0.3793 0 0 -0.379281 -0.3793 0 0 0.379281zm0.389026 0l0.3793 0 0 -0.379281 -0.3793 0 0 0.379281zm0.389026 0l0.3793 0 0 -0.379281 -0.3793 0 0 0.379281zm0.389026 0l0.3793 0 0 -0.379281 -0.3793 0 0 0.379281zm0.389026 0l0.3793 0 0 -0.379281 -0.3793 0 0 0.379281zm0.389026 0l0.3793 0 0 -0.379281 -0.3793 0 0 0.379281zm0.389026 0l0.3793 0 0 -0.379281 -0.3793 0 0 0.379281zm0.389026 0l0.3793 0 0 -0.379281 -0.3793 0 0 0.379281zm0.389026 0l0.3793 0 0 -0.379281 -0.3793 0 0 0.379281zm0.389026 0l0.3793 0 0 -0.379281 -0.3793 0 0 0.379281zm-9.33663 -0.389007l0.3793 0 0 -0.379281 -0.3793 0 0 0.379281zm0.389026 0l0.3793 0 0 -0.379281 -0.3793 0 0 0.379281zm0.389026 0l0.3793 0 0 -0.379281 -0.3793 0 0 0.379281zm0.389026 0l0.3793 0 0 -0.379281 -0.3793 0 0 0.379281zm0.389026 0l0.3793 0 0 -0.379281 -0.3793 0 0 0.379281zm0.389026 0l0.3793 0 0 -0.379281 -0.3793 0 0 0.379281zm0.389026 0l0.3793 0 0 -0.379281 -0.3793 0 0 0.379281zm0.389026 0l0.3793 0 0 -0.379281 -0.3793 0 0 0.379281zm0.389026 0l0.3793 0 0 -0.379281 -0.3793 0 0 0.379281zm0.389026 0l0.3793 0 0 -0.379281 -0.3793 0 0 0.379281zm0.389026 0l0.3793 0 0 -0.379281 -0.3793 0 0 0.379281zm0.389026 0l0.3793 0 0 -0.379281 -0.3793 0 0 0.379281zm0.389026 0l0.3793 0 0 -0.379281 -0.3793 0 0 0.379281zm0.389026 0l0.3793 0 0 -0.379281 -0.3793 0 0 0.379281zm0.389026 0l0.3793 0 0 -0.379281 -0.3793 0 0 0.379281zm0.389026 0l0.3793 0 0 -0.379281 -0.3793 0 0 0.379281zm0.389026 0l0.3793 0 0 -0.379281 -0.3793 0 0 0.379281zm0.389026 0l0.3793 0 0 -0.379281 -0.3793 0 0 0.379281zm0.389026 0l0.3793 0 0 -0.379281 -0.3793 0 0 0.379281zm0.389026 0l0.3793 0 0 -0.379281 -0.3793 0 0 0.379281zm0.389026 0l0.3793 0 0 -0.379281 -0.3793 0 0 0.379281zm0.389026 0l0.3793 0 0 -0.379281 -0.3793 0 0 0.379281zm0.389026 0l0.3793 0 0 -0.379281 -0.3793 0 0 0.379281zm0.389026 0l0.3793 0 0 -0.379281 -0.3793 0 0 0.379281zm0.389026 0l0.3793 0 0 -0.379281 -0.3793 0 0 0.379281zm-9.33663 -0.389007l0.3793 0 0 -0.379281 -0.3793 0 0 0.379281zm0.389026 0l0.3793 0 0 -0.379281 -0.3793 0 0 0.379281zm0.389026 0l0.3793 0 0 -0.379281 -0.3793 0 0 0.379281zm0.389026 0l0.3793 0 0 -0.379281 -0.3793 0 0 0.379281zm0.389026 0l0.3793 0 0 -0.379281 -0.3793 0 0 0.379281zm0.389026 0l0.3793 0 0 -0.379281 -0.3793 0 0 0.379281zm0.389026 0l0.3793 0 0 -0.379281 -0.3793 0 0 0.379281zm0.389026 0l0.3793 0 0 -0.379281 -0.3793 0 0 0.379281zm0.389026 0l0.3793 0 0 -0.379281 -0.3793 0 0 0.379281zm0.389026 0l0.3793 0 0 -0.379281 -0.3793 0 0 0.379281zm0.389026 0l0.3793 0 0 -0.379281 -0.3793 0 0 0.379281zm0.389026 0l0.3793 0 0 -0.379281 -0.3793 0 0 0.379281zm0.389026 0l0.3793 0 0 -0.379281 -0.3793 0 0 0.379281zm0.389026 0l0.3793 0 0 -0.379281 -0.3793 0 0 0.379281zm0.389026 0l0.3793 0 0 -0.379281 -0.3793 0 0 0.379281zm0.389026 0l0.3793 0 0 -0.379281 -0.3793 0 0 0.379281zm0.389026 0l0.3793 0 0 -0.379281 -0.3793 0 0 0.379281zm0.389026 0l0.3793 0 0 -0.379281 -0.3793 0 0 0.379281zm0.389026 0l0.3793 0 0 -0.379281 -0.3793 0 0 0.379281zm0.389026 0l0.3793 0 0 -0.379281 -0.3793 0 0 0.379281zm0.389026 0l0.3793 0 0 -0.379281 -0.3793 0 0 0.379281zm0.389026 0l0.3793 0 0 -0.379281 -0.3793 0 0 0.379281zm0.389026 0l0.3793 0 0 -0.379281 -0.3793 0 0 0.379281zm0.389026 0l0.3793 0 0 -0.379281 -0.3793 0 0 0.379281zm0.389026 0l0.3793 0 0 -0.379281 -0.3793 0 0 0.379281zm-9.33663 -0.389007l0.3793 0 0 -0.379281 -0.3793 0 0 0.379281zm0.389026 0l0.3793 0 0 -0.379281 -0.3793 0 0 0.379281zm0.389026 0l0.3793 0 0 -0.379281 -0.3793 0 0 0.379281zm0.389026 0l0.3793 0 0 -0.379281 -0.3793 0 0 0.379281zm0.389026 0l0.3793 0 0 -0.379281 -0.3793 0 0 0.379281zm0.389026 0l0.3793 0 0 -0.379281 -0.3793 0 0 0.379281zm0.389026 0l0.3793 0 0 -0.379281 -0.3793 0 0 0.379281zm0.389026 0l0.3793 0 0 -0.379281 -0.3793 0 0 0.379281zm0.389026 0l0.3793 0 0 -0.379281 -0.3793 0 0 0.379281zm0.389026 0l0.3793 0 0 -0.379281 -0.3793 0 0 0.379281zm0.389026 0l0.3793 0 0 -0.379281 -0.3793 0 0 0.379281zm0.389026 0l0.3793 0 0 -0.379281 -0.3793 0 0 0.379281zm0.389026 0l0.3793 0 0 -0.379281 -0.3793 0 0 0.379281zm0.389026 0l0.3793 0 0 -0.379281 -0.3793 0 0 0.379281zm0.389026 0l0.3793 0 0 -0.379281 -0.3793 0 0 0.379281zm0.389026 0l0.3793 0 0 -0.379281 -0.3793 0 0 0.379281zm0.389026 0l0.3793 0 0 -0.379281 -0.3793 0 0 0.379281zm0.389026 0l0.3793 0 0 -0.379281 -0.3793 0 0 0.379281zm0.389026 0l0.3793 0 0 -0.379281 -0.3793 0 0 0.379281zm0.389026 0l0.3793 0 0 -0.379281 -0.3793 0 0 0.379281zm0.389026 0l0.3793 0 0 -0.379281 -0.3793 0 0 0.379281zm0.389026 0l0.3793 0 0 -0.379281 -0.3793 0 0 0.379281zm0.389026 0l0.3793 0 0 -0.379281 -0.3793 0 0 0.379281zm0.389026 0l0.3793 0 0 -0.379281 -0.3793 0 0 0.379281zm0.389026 0l0.3793 0 0 -0.379281 -0.3793 0 0 0.379281zm-9.33663 -0.389007l0.3793 0 0 -0.379281 -0.3793 0 0 0.379281zm0.389026 0l0.3793 0 0 -0.379281 -0.3793 0 0 0.379281zm0.389026 0l0.3793 0 0 -0.379281 -0.3793 0 0 0.379281zm0.389026 0l0.3793 0 0 -0.379281 -0.3793 0 0 0.379281zm0.389026 0l0.3793 0 0 -0.379281 -0.3793 0 0 0.379281zm0.389026 0l0.3793 0 0 -0.379281 -0.3793 0 0 0.379281zm0.389026 0l0.3793 0 0 -0.379281 -0.3793 0 0 0.379281zm0.389026 0l0.3793 0 0 -0.379281 -0.3793 0 0 0.379281zm0.389026 0l0.3793 0 0 -0.379281 -0.3793 0 0 0.379281zm0.389026 0l0.3793 0 0 -0.379281 -0.3793 0 0 0.379281zm0.389026 0l0.3793 0 0 -0.379281 -0.3793 0 0 0.379281zm0.389026 0l0.3793 0 0 -0.379281 -0.3793 0 0 0.379281zm0.389026 0l0.3793 0 0 -0.379281 -0.3793 0 0 0.379281zm0.389026 0l0.3793 0 0 -0.379281 -0.3793 0 0 0.379281zm0.389026 0l0.3793 0 0 -0.379281 -0.3793 0 0 0.379281zm0.389026 0l0.3793 0 0 -0.379281 -0.3793 0 0 0.379281zm0.389026 0l0.3793 0 0 -0.379281 -0.3793 0 0 0.379281zm0.389026 0l0.3793 0 0 -0.379281 -0.3793 0 0 0.379281zm0.389026 0l0.3793 0 0 -0.379281 -0.3793 0 0 0.379281zm0.389026 0l0.3793 0 0 -0.379281 -0.3793 0 0 0.379281zm0.389026 0l0.3793 0 0 -0.379281 -0.3793 0 0 0.379281zm0.389026 0l0.3793 0 0 -0.379281 -0.3793 0 0 0.379281zm0.389026 0l0.3793 0 0 -0.379281 -0.3793 0 0 0.379281zm0.389026 0l0.3793 0 0 -0.379281 -0.3793 0 0 0.379281zm0.389026 0l0.3793 0 0 -0.379281 -0.3793 0 0 0.379281zm-9.33663 -0.389007l0.3793 0 0 -0.379281 -0.3793 0 0 0.379281zm0.389026 0l0.3793 0 0 -0.379281 -0.3793 0 0 0.379281zm0.389026 0l0.3793 0 0 -0.379281 -0.3793 0 0 0.379281zm0.389026 0l0.3793 0 0 -0.379281 -0.3793 0 0 0.379281zm0.389026 0l0.3793 0 0 -0.379281 -0.3793 0 0 0.379281zm0.389026 0l0.3793 0 0 -0.379281 -0.3793 0 0 0.379281zm0.389026 0l0.3793 0 0 -0.379281 -0.3793 0 0 0.379281zm0.389026 0l0.3793 0 0 -0.379281 -0.3793 0 0 0.379281zm0.389026 0l0.3793 0 0 -0.379281 -0.3793 0 0 0.379281zm0.389026 0l0.3793 0 0 -0.379281 -0.3793 0 0 0.379281zm0.389026 0l0.3793 0 0 -0.379281 -0.3793 0 0 0.379281zm0.389026 0l0.3793 0 0 -0.379281 -0.3793 0 0 0.379281zm0.389026 0l0.3793 0 0 -0.379281 -0.3793 0 0 0.379281zm0.389026 0l0.3793 0 0 -0.379281 -0.3793 0 0 0.379281zm0.389026 0l0.3793 0 0 -0.379281 -0.3793 0 0 0.379281zm0.389026 0l0.3793 0 0 -0.379281 -0.3793 0 0 0.379281zm0.389026 0l0.3793 0 0 -0.379281 -0.3793 0 0 0.379281zm0.389026 0l0.3793 0 0 -0.379281 -0.3793 0 0 0.379281zm0.389026 0l0.3793 0 0 -0.379281 -0.3793 0 0 0.379281zm0.389026 0l0.3793 0 0 -0.379281 -0.3793 0 0 0.379281zm0.389026 0l0.3793 0 0 -0.379281 -0.3793 0 0 0.379281zm0.389026 0l0.3793 0 0 -0.379281 -0.3793 0 0 0.379281zm0.389026 0l0.3793 0 0 -0.379281 -0.3793 0 0 0.379281zm0.389026 0l0.3793 0 0 -0.379281 -0.3793 0 0 0.379281zm0.389026 0l0.3793 0 0 -0.379281 -0.3793 0 0 0.379281zm-9.33663 -0.389007l0.3793 0 0 -0.379281 -0.3793 0 0 0.379281zm0.389026 0l0.3793 0 0 -0.379281 -0.3793 0 0 0.379281zm0.389026 0l0.3793 0 0 -0.379281 -0.3793 0 0 0.379281zm0.389026 0l0.3793 0 0 -0.379281 -0.3793 0 0 0.379281zm0.389026 0l0.3793 0 0 -0.379281 -0.3793 0 0 0.379281zm0.389026 0l0.3793 0 0 -0.379281 -0.3793 0 0 0.379281zm0.389026 0l0.3793 0 0 -0.379281 -0.3793 0 0 0.379281zm0.389026 0l0.3793 0 0 -0.379281 -0.3793 0 0 0.379281zm0.389026 0l0.3793 0 0 -0.379281 -0.3793 0 0 0.379281zm0.389026 0l0.3793 0 0 -0.379281 -0.3793 0 0 0.379281zm0.389026 0l0.3793 0 0 -0.379281 -0.3793 0 0 0.379281zm0.389026 0l0.3793 0 0 -0.379281 -0.3793 0 0 0.379281zm0.389026 0l0.3793 0 0 -0.379281 -0.3793 0 0 0.379281zm0.389026 0l0.3793 0 0 -0.379281 -0.3793 0 0 0.379281zm0.389026 0l0.3793 0 0 -0.379281 -0.3793 0 0 0.379281zm0.389026 0l0.3793 0 0 -0.379281 -0.3793 0 0 0.379281zm0.389026 0l0.3793 0 0 -0.379281 -0.3793 0 0 0.379281zm0.389026 0l0.3793 0 0 -0.379281 -0.3793 0 0 0.379281zm0.389026 0l0.3793 0 0 -0.379281 -0.3793 0 0 0.379281zm0.389026 0l0.3793 0 0 -0.379281 -0.3793 0 0 0.379281zm0.389026 0l0.3793 0 0 -0.379281 -0.3793 0 0 0.379281zm0.389026 0l0.3793 0 0 -0.379281 -0.3793 0 0 0.379281zm0.389026 0l0.3793 0 0 -0.379281 -0.3793 0 0 0.379281zm0.389026 0l0.3793 0 0 -0.379281 -0.3793 0 0 0.379281zm0.389026 0l0.3793 0 0 -0.379281 -0.3793 0 0 0.379281zm-9.33663 -0.389007l0.3793 0 0 -0.379281 -0.3793 0 0 0.379281zm0.389026 0l0.3793 0 0 -0.379281 -0.3793 0 0 0.379281zm0.389026 0l0.3793 0 0 -0.379281 -0.3793 0 0 0.379281zm0.389026 0l0.3793 0 0 -0.379281 -0.3793 0 0 0.379281zm0.389026 0l0.3793 0 0 -0.379281 -0.3793 0 0 0.379281zm0.389026 0l0.3793 0 0 -0.379281 -0.3793 0 0 0.379281zm0.389026 0l0.3793 0 0 -0.379281 -0.3793 0 0 0.379281zm0.389026 0l0.3793 0 0 -0.379281 -0.3793 0 0 0.379281zm0.389026 0l0.3793 0 0 -0.379281 -0.3793 0 0 0.379281zm0.389026 0l0.3793 0 0 -0.379281 -0.3793 0 0 0.379281zm0.389026 0l0.3793 0 0 -0.379281 -0.3793 0 0 0.379281zm0.389026 0l0.3793 0 0 -0.379281 -0.3793 0 0 0.379281zm0.389026 0l0.3793 0 0 -0.379281 -0.3793 0 0 0.379281zm0.389026 0l0.3793 0 0 -0.379281 -0.3793 0 0 0.379281zm0.389026 0l0.3793 0 0 -0.379281 -0.3793 0 0 0.379281zm0.389026 0l0.3793 0 0 -0.379281 -0.3793 0 0 0.379281zm0.389026 0l0.3793 0 0 -0.379281 -0.3793 0 0 0.379281zm0.389026 0l0.3793 0 0 -0.379281 -0.3793 0 0 0.379281zm0.389026 0l0.3793 0 0 -0.379281 -0.3793 0 0 0.379281zm0.389026 0l0.3793 0 0 -0.379281 -0.3793 0 0 0.379281zm0.389026 0l0.3793 0 0 -0.379281 -0.3793 0 0 0.379281zm0.389026 0l0.3793 0 0 -0.379281 -0.3793 0 0 0.379281zm0.389026 0l0.3793 0 0 -0.379281 -0.3793 0 0 0.379281zm0.389026 0l0.3793 0 0 -0.379281 -0.3793 0 0 0.379281zm0.389026 0l0.3793 0 0 -0.379281 -0.3793 0 0 0.379281zm-9.33663 -0.389007l0.3793 0 0 -0.379281 -0.3793 0 0 0.379281zm0.389026 0l0.3793 0 0 -0.379281 -0.3793 0 0 0.379281zm0.389026 0l0.3793 0 0 -0.379281 -0.3793 0 0 0.379281zm0.389026 0l0.3793 0 0 -0.379281 -0.3793 0 0 0.379281zm0.389026 0l0.3793 0 0 -0.379281 -0.3793 0 0 0.379281zm0.389026 0l0.3793 0 0 -0.379281 -0.3793 0 0 0.379281zm0.389026 0l0.3793 0 0 -0.379281 -0.3793 0 0 0.379281zm0.389026 0l0.3793 0 0 -0.379281 -0.3793 0 0 0.379281zm0.389026 0l0.3793 0 0 -0.379281 -0.3793 0 0 0.379281zm0.389026 0l0.3793 0 0 -0.379281 -0.3793 0 0 0.379281zm0.389026 0l0.3793 0 0 -0.379281 -0.3793 0 0 0.379281zm0.389026 0l0.3793 0 0 -0.379281 -0.3793 0 0 0.379281zm0.389026 0l0.3793 0 0 -0.379281 -0.3793 0 0 0.379281zm0.389026 0l0.3793 0 0 -0.379281 -0.3793 0 0 0.379281zm0.389026 0l0.3793 0 0 -0.379281 -0.3793 0 0 0.379281zm0.389026 0l0.3793 0 0 -0.379281 -0.3793 0 0 0.379281zm0.389026 0l0.3793 0 0 -0.379281 -0.3793 0 0 0.379281zm0.389026 0l0.3793 0 0 -0.379281 -0.3793 0 0 0.379281zm0.389026 0l0.3793 0 0 -0.379281 -0.3793 0 0 0.379281zm0.389026 0l0.3793 0 0 -0.379281 -0.3793 0 0 0.379281zm0.389026 0l0.3793 0 0 -0.379281 -0.3793 0 0 0.379281zm0.389026 0l0.3793 0 0 -0.379281 -0.3793 0 0 0.379281zm0.389026 0l0.3793 0 0 -0.379281 -0.3793 0 0 0.379281zm0.389026 0l0.3793 0 0 -0.379281 -0.3793 0 0 0.379281zm0.389026 0l0.3793 0 0 -0.379281 -0.3793 0 0 0.379281zm-9.33663 -0.389007l0.3793 0 0 -0.379281 -0.3793 0 0 0.379281zm0.389026 0l0.3793 0 0 -0.379281 -0.3793 0 0 0.379281zm0.389026 0l0.3793 0 0 -0.379281 -0.3793 0 0 0.379281zm0.389026 0l0.3793 0 0 -0.379281 -0.3793 0 0 0.379281zm0.389026 0l0.3793 0 0 -0.379281 -0.3793 0 0 0.379281zm0.389026 0l0.3793 0 0 -0.379281 -0.3793 0 0 0.379281zm0.389026 0l0.3793 0 0 -0.379281 -0.3793 0 0 0.379281zm0.389026 0l0.3793 0 0 -0.379281 -0.3793 0 0 0.379281zm0.389026 0l0.3793 0 0 -0.379281 -0.3793 0 0 0.379281zm0.389026 0l0.3793 0 0 -0.379281 -0.3793 0 0 0.379281zm0.389026 0l0.3793 0 0 -0.379281 -0.3793 0 0 0.379281zm0.389026 0l0.3793 0 0 -0.379281 -0.3793 0 0 0.379281zm0.389026 0l0.3793 0 0 -0.379281 -0.3793 0 0 0.379281zm0.389026 0l0.3793 0 0 -0.379281 -0.3793 0 0 0.379281zm0.389026 0l0.3793 0 0 -0.379281 -0.3793 0 0 0.379281zm0.389026 0l0.3793 0 0 -0.379281 -0.3793 0 0 0.379281zm0.389026 0l0.3793 0 0 -0.379281 -0.3793 0 0 0.379281zm0.389026 0l0.3793 0 0 -0.379281 -0.3793 0 0 0.379281zm0.389026 0l0.3793 0 0 -0.379281 -0.3793 0 0 0.379281zm0.389026 0l0.3793 0 0 -0.379281 -0.3793 0 0 0.379281zm0.389026 0l0.3793 0 0 -0.379281 -0.3793 0 0 0.379281zm0.389026 0l0.3793 0 0 -0.379281 -0.3793 0 0 0.379281zm0.389026 0l0.3793 0 0 -0.379281 -0.3793 0 0 0.379281zm0.389026 0l0.3793 0 0 -0.379281 -0.3793 0 0 0.379281zm0.389026 0l0.3793 0 0 -0.379281 -0.3793 0 0 0.379281z"/>
   <polygon id="_132652448" class="fil2" points="5.4318,0.581157 5.4318,5.42702 5.46098,5.42702 5.46098,0.581157 5.55229,0.581157 5.44639,0.369419 5.34056,0.581157 "/>
   <polygon id="_132652304" class="fil2" points="7.95758,3.08857 2.91759,3.08857 2.91759,3.11775 7.95758,3.11775 7.95758,3.20905 8.16932,3.10316 7.95758,2.99733 "/>
   <path id="_132040424" class="fil2" d="M7.99067 3.47127l0.0650096 -0.0924665 -0.0601562 -0.0854345 0.0376888 0 0.0273305 0.0416863c0.00508677,0.00795599 0.00926902,0.0145892 0.0123522,0.0199581 0.00492143,-0.00737242 0.00943436,-0.0138889 0.0136069,-0.0196079l0.0299663 -0.0420364 0.0360256 0 -0.0614693 0.083781 0.0661573 0.0941199 -0.0369983 0 -0.0365411 -0.0552931 -0.00971642 -0.0149296 -0.0467147 0.0702228 -0.0365411 0z"/>
   <polygon id="_132652376" class="fil2" points="3.11969,0.756976 8.17736,4.12835 8.16129,4.15263 3.10362,0.781253 "/>
   <path id="_132645488" class="fil2" d="M5.77218 0.629807l-0.00337497 -0.0283031c0.00663323,0.00177016 0.0123522,0.00269414 0.0172736,0.00269414 0.00669159,0 0.0120604,-0.00114769 0.0160676,-0.00337497 0.0040558,-0.00223701 0.00731406,-0.0053202 0.00989149,-0.00938573 0.00194523,-0.00296647 0.00497979,-0.0104653 0.00921066,-0.022409 0.000564117,-0.00172153 0.00147837,-0.00412389 0.00268442,-0.00738215l-0.06748 -0.178241 0.0324853 0 0.0370566 0.10299c0.00474636,0.0130914 0.00908422,0.026815 0.012858,0.0412291 0.00349169,-0.0138403 0.00760585,-0.0273305 0.0124106,-0.0405386l0.0380292 -0.103681 0.0301316 0 -0.0676454 0.180936c-0.00726543,0.0195496 -0.012926,0.0329911 -0.0169235,0.0403635 -0.00537856,0.00994985 -0.0114963,0.0172153 -0.0184116,0.0218449 -0.00698337,0.00463937 -0.0152117,0.00698337 -0.0248211,0.00698337 -0.00583569,0 -0.0122939,-0.0012644 -0.0194426,-0.00372511z"/>
   <path id="_132035720" class="fil3" d="M6.24072 1.82852l0 -0.246081 0.0274569 0 0 0.0231093c0.00645816,-0.00903559 0.013782,-0.0158439 0.0219519,-0.0203568 0.00812133,-0.00452266 0.0180128,-0.0068083 0.0296258,-0.0068083 0.0152117,0 0.0285949,0.00394882 0.0401982,0.01172 0.0116714,0.00783927 0.0204152,0.0188785 0.0263092,0.0331175 0.0059524,0.0142391 0.00891888,0.0298495 0.00891888,0.0468314 0,0.0181879 -0.00325826,0.0345959 -0.00983313,0.0491851 -0.00651652,0.0145795 -0.0160092,0.0257257 -0.0284782,0.0335066 -0.0124689,0.00772256 -0.0255603,0.011613 -0.0392839,0.011613 -0.0100666,0 -0.0190438,-0.0021203 -0.0270484,-0.00635117 -0.00801435,-0.00423087 -0.0145309,-0.00960943 -0.019676,-0.0160676l0 0.0865822 -0.0301413 0zm0.0272818 -0.156124c0,0.0228759 0.00462965,0.0397994 0.0138987,0.0507802 0.00925929,0.0109225 0.0205319,0.0164177 0.0336816,0.0164177 0.0133832,0 0.0248698,-0.00566062 0.0344208,-0.0170402 0.00955108,-0.011331 0.0143558,-0.0288867 0.0143558,-0.0526768 0,-0.0227008 -0.004688,-0.0396243 -0.0140057,-0.0509456 -0.00932738,-0.0112726 -0.0204735,-0.0169332 -0.0333996,-0.0169332 -0.0128677,0 -0.0242473,0.00601076 -0.0341388,0.0180128 -0.00989149,0.0120118 -0.0148129,0.0295091 -0.0148129,0.052385zm0.163205 0.0879535l0 -0.177911 0.0271068 0 0 0.0269414c0.00691529,-0.0125856 0.0133248,-0.0209307 0.0192189,-0.0249378 0.00582596,-0.00399745 0.0122939,-0.00605939 0.0193259,-0.00605939 0.0101833,0 0.0204735,0.00325826 0.0309972,0.00971642l-0.010407 0.028021c-0.00732379,-0.00439622 -0.0146962,-0.00657488 -0.0220784,-0.00657488 -0.00663323,0 -0.0125273,0.00200359 -0.0177891,0.0059524 -0.00525212,0.00399745 -0.00897723,0.00949272 -0.0112045,0.0165247 -0.00337497,0.0106988 -0.00502842,0.0224188 -0.00502842,0.0351697l0 0.093157 -0.0301413 0zm0.0986523 0l0 -0.024471 0.11329 -0.12999c-0.0128677,0.000690556 -0.0241987,0.000972615 -0.0340318,0.000972615l-0.0725668 0 0 -0.0244224 0.145425 0 0 0.0198997 -0.0963083 0.11295 -0.0185769 0.0205903c0.0134902,-0.000972615 0.0261828,-0.0014881 0.0380292,-0.0014881l0.0822346 0 0 0.0259591 -0.157496 0zm0.309262 -0.0572967l0.0311723 0.0038321c-0.00492143,0.0182365 -0.0140154,0.0323589 -0.0272818,0.0424255 -0.0133248,0.0100082 -0.0303067,0.0150463 -0.0509553,0.0150463 -0.0260174,0 -0.0466661,-0.00801435 -0.0618777,-0.0240236 -0.0152603,-0.0160092 -0.0228662,-0.0384864 -0.0228662,-0.0674217 0,-0.0299663 0.00771283,-0.0531826 0.0230996,-0.0697073 0.0154354,-0.0165345 0.0353934,-0.0248211 0.0599909,-0.0248211 0.0237902,0 0.0432327,0.00812133 0.0582693,0.0243056 0.015095,0.0161843 0.0226425,0.0390019 0.0226425,0.0683359 0,0.00182852 -4.86307e-005,0.00451293 -0.000165345,0.00806298l-0.132674 0c0.00108933,0.0195593 0.00663323,0.0345375 0.0165831,0.0448959 0.00994985,0.010407 0.0223021,0.0156105 0.0371733,0.0156105 0.0110392,0 0.0204735,-0.00291784 0.0283031,-0.00875353 0.00783927,-0.00577733 0.0140154,-0.0150366 0.0185867,-0.0277876zm-0.0989927 -0.0487864l0.0993331 0c-0.00131303,-0.0149199 -0.00514513,-0.0261925 -0.0113796,-0.0336233 -0.00959971,-0.011613 -0.0220686,-0.017439 -0.0373387,-0.017439 -0.0138403,0 -0.025502,0.00462965 -0.034946,0.0138889 -0.00943436,0.00926902 -0.0146379,0.0216796 -0.0156688,0.0371733zm0.284159 0.0408887l0.0296258 0.00389046c-0.00320963,0.0204152 -0.0114963,0.0364244 -0.0248795,0.0479791 -0.0133248,0.0115547 -0.0297328,0.017332 -0.0491754,0.017332 -0.0243056,0 -0.0439233,-0.00795599 -0.0586778,-0.0238485 -0.0148129,-0.0159023 -0.0222437,-0.0387198 -0.0222437,-0.0684526 0,-0.0192189 0.0031999,-0.0360256 0.00955108,-0.0504398 0.0063998,-0.0144142 0.0160676,-0.0252199 0.0291006,-0.032427 0.0129844,-0.00720708 0.0271651,-0.0108057 0.0424352,-0.0108057 0.0193356,0 0.0351697,0.00492143 0.0474052,0.0146962 0.0123036,0.00977478 0.0201915,0.0236151 0.0236832,0.0416279l-0.0293438 0.00452266c-0.00280113,-0.0119534 -0.00771283,-0.0209307 -0.0148032,-0.0269901 -0.00710009,-0.00601076 -0.0156688,-0.00903559 -0.0257354,-0.00903559 -0.0152117,0 -0.0275639,0.00542719 -0.0370566,0.0163497 -0.00949272,0.0108641 -0.0142391,0.0280794 -0.0142391,0.0516458 0,0.0238971 0.00457129,0.0412875 0.013782,0.0521516 0.00914258,0.0108057 0.021096,0.0162427 0.0358506,0.0162427 0.0118367,0 0.0216796,-0.00366676 0.0296258,-0.0109225 0.00794626,-0.00726543 0.0129844,-0.0184213 0.015095,-0.0335163zm0.0555849 -0.145707l0 -0.0347126 0.0301997 0 0 0.0347126 -0.0301997 0zm0 0.210902l0 -0.177911 0.0301997 0 0 0.177911 -0.0301997 0zm0.197869 -0.0572967l0.0311723 0.0038321c-0.00492143,0.0182365 -0.0140154,0.0323589 -0.0272818,0.0424255 -0.0133248,0.0100082 -0.0303067,0.0150463 -0.0509553,0.0150463 -0.0260174,0 -0.0466661,-0.00801435 -0.0618777,-0.0240236 -0.0152603,-0.0160092 -0.0228662,-0.0384864 -0.0228662,-0.0674217 0,-0.0299663 0.00771283,-0.0531826 0.0230996,-0.0697073 0.0154354,-0.0165345 0.0353934,-0.0248211 0.0599909,-0.0248211 0.0237902,0 0.0432327,0.00812133 0.0582693,0.0243056 0.015095,0.0161843 0.0226425,0.0390019 0.0226425,0.0683359 0,0.00182852 -4.86307e-005,0.00451293 -0.000165345,0.00806298l-0.132674 0c0.00108933,0.0195593 0.00663323,0.0345375 0.0165831,0.0448959 0.00994985,0.010407 0.0223021,0.0156105 0.0371733,0.0156105 0.0110392,0 0.0204735,-0.00291784 0.0283031,-0.00875353 0.00783927,-0.00577733 0.0140154,-0.0150366 0.0185867,-0.0277876zm-0.0989927 -0.0487864l0.0993331 0c-0.00131303,-0.0149199 -0.00514513,-0.0261925 -0.0113796,-0.0336233 -0.00959971,-0.011613 -0.0220686,-0.017439 -0.0373387,-0.017439 -0.0138403,0 -0.025502,0.00462965 -0.034946,0.0138889 -0.00943436,0.00926902 -0.0146379,0.0216796 -0.0156688,0.0371733zm0.07778 0.106083c-0.00640953,0.00389046 -0.0113212,0.00875353 -0.0148713,0.0144725 -0.00349169,0.00576761 -0.00526185,0.0116033 -0.00526185,0.0175557 0,0.004688 0.00131303,0.00862709 0.00389046,0.0118951 0.00251907,0.0031999 0.00674995,0.00485335 0.0125273,0.00485335 0.0025677,0 0.00520349,-0.000398772 0.00788791,-0.00113796 0.00268442,-0.000690556 0.00514513,-0.00166317 0.00737242,-0.00291784l0 0.0214462c-0.00816996,0.00393909 -0.0157175,0.00588432 -0.0228078,0.00588432 -0.00567034,0 -0.0106404,-0.000797544 -0.0148713,-0.00245099 -0.00423087,-0.00160481 -0.00783927,-0.0038321 -0.0106404,-0.00669159 -0.00285949,-0.00285949 -0.00497006,-0.00611775 -0.0063998,-0.0097845 -0.00137139,-0.00371539 -0.00206194,-0.0076642 -0.00206194,-0.0118951 0,-0.00714872 0.00200359,-0.0143558 0.00600103,-0.0215531 0.00406553,-0.00720708 0.00972615,-0.0137333 0.0170986,-0.019676l0.0221367 0zm0.206379 -0.0651944l0.0296258 0.00389046c-0.00320963,0.0204152 -0.0114963,0.0364244 -0.0248795,0.0479791 -0.0133248,0.0115547 -0.0297328,0.017332 -0.0491754,0.017332 -0.0243056,0 -0.0439233,-0.00795599 -0.0586778,-0.0238485 -0.0148129,-0.0159023 -0.0222437,-0.0387198 -0.0222437,-0.0684526 0,-0.0192189 0.0031999,-0.0360256 0.00955108,-0.0504398 0.0063998,-0.0144142 0.0160676,-0.0252199 0.0291006,-0.032427 0.0129844,-0.00720708 0.0271651,-0.0108057 0.0424352,-0.0108057 0.0193356,0 0.0351697,0.00492143 0.0474052,0.0146962 0.0123036,0.00977478 0.0201915,0.0236151 0.0236832,0.0416279l-0.0293438 0.00452266c-0.00280113,-0.0119534 -0.00771283,-0.0209307 -0.0148032,-0.0269901 -0.00710009,-0.00601076 -0.0156688,-0.00903559 -0.0257354,-0.00903559 -0.0152117,0 -0.0275639,0.00542719 -0.0370566,0.0163497 -0.00949272,0.0108641 -0.0142391,0.0280794 -0.0142391,0.0516458 0,0.0238971 0.00457129,0.0412875 0.013782,0.0521516 0.00914258,0.0108057 0.021096,0.0162427 0.0358506,0.0162427 0.0118367,0 0.0216796,-0.00366676 0.0296258,-0.0109225 0.00794626,-0.00726543 0.0129844,-0.0184213 0.015095,-0.0335163zm0.0555849 -0.145707l0 -0.0347126 0.0301997 0 0 0.0347126 -0.0301997 0zm0 0.210902l0 -0.177911 0.0301997 0 0 0.177911 -0.0301997 0zm0.197869 -0.0572967l0.0311723 0.0038321c-0.00492143,0.0182365 -0.0140154,0.0323589 -0.0272818,0.0424255 -0.0133248,0.0100082 -0.0303067,0.0150463 -0.0509553,0.0150463 -0.0260174,0 -0.0466661,-0.00801435 -0.0618777,-0.0240236 -0.0152603,-0.0160092 -0.0228662,-0.0384864 -0.0228662,-0.0674217 0,-0.0299663 0.00771283,-0.0531826 0.0230996,-0.0697073 0.0154354,-0.0165345 0.0353934,-0.0248211 0.0599909,-0.0248211 0.0237902,0 0.0432327,0.00812133 0.0582693,0.0243056 0.015095,0.0161843 0.0226425,0.0390019 0.0226425,0.0683359 0,0.00182852 -4.86307e-005,0.00451293 -0.000165345,0.00806298l-0.132674 0c0.00108933,0.0195593 0.00663323,0.0345375 0.0165831,0.0448959 0.00994985,0.010407 0.0223021,0.0156105 0.0371733,0.0156105 0.0110392,0 0.0204735,-0.00291784 0.0283031,-0.00875353 0.00783927,-0.00577733 0.0140154,-0.0150366 0.0185867,-0.0277876zm-0.0989927 -0.0487864l0.0993331 0c-0.00131303,-0.0149199 -0.00514513,-0.0261925 -0.0113796,-0.0336233 -0.00959971,-0.011613 -0.0220686,-0.017439 -0.0373387,-0.017439 -0.0138403,0 -0.025502,0.00462965 -0.034946,0.0138889 -0.00943436,0.00926902 -0.0146379,0.0216796 -0.0156688,0.0371733zm0.247443 0.106083l0 -0.024471 0.11329 -0.12999c-0.0128677,0.000690556 -0.0241987,0.000972615 -0.0340318,0.000972615l-0.0725668 0 0 -0.0244224 0.145425 0 0 0.0198997 -0.0963083 0.11295 -0.0185769 0.0205903c0.0134902,-0.000972615 0.0261828,-0.0014881 0.0380292,-0.0014881l0.0822346 0 0 0.0259591 -0.157496 0zm0.271573 -0.0889845c0,-0.0329327 0.0091523,-0.0573551 0.0275055,-0.073199 0.0152701,-0.0131498 0.0339151,-0.019783 0.0559253,-0.019783 0.0244807,0 0.0444971,0.00800462 0.0599909,0.0240722 0.0155618,0.016019 0.0232747,0.0381459 0.0232747,0.0664004 0,0.0229245 -0.0034236,0.0409374 -0.0102903,0.0540385 -0.00686666,0.0131498 -0.0168749,0.023333 -0.0299663,0.0305887 -0.0131498,0.00726543 -0.0274472,0.0108738 -0.043009,0.0108738 -0.0248698,0 -0.0450029,-0.00795599 -0.0603799,-0.0239652 -0.0153868,-0.0159509 -0.023051,-0.0389435 -0.023051,-0.0690265zm0.0309972 0c0,0.0228175 0.00497006,0.0398578 0.0149199,0.0511887 0.00994985,0.0113796 0.0224771,0.0170402 0.0375137,0.0170402 0.014988,0 0.0274569,-0.00571897 0.0374068,-0.0170986 0.00989149,-0.0113796 0.0148713,-0.0287699 0.0148713,-0.052103 0,-0.0220103 -0.00497979,-0.0387101 -0.014988,-0.0500313 -0.0100082,-0.011331 -0.0224188,-0.0169916 -0.03729,-0.0169916 -0.0150366,0 -0.0275639,0.00566062 -0.0375137,0.0169332 -0.00994985,0.0112629 -0.0149199,0.0283031 -0.0149199,0.0510623zm0.159032 0.0358603l0.0297912 -0.004688c0.00166317,0.0119534 0.00635117,0.021096 0.0140154,0.0275055 0.00760585,0.00634145 0.0182949,0.00955108 0.0320768,0.00955108 0.0138403,0 0.0241306,-0.00285949 0.0308222,-0.00847147 0.00669159,-0.00566062 0.0100666,-0.0122939 0.0100666,-0.0198413 0,-0.00685693 -0.0029762,-0.0121771 -0.00891888,-0.016126 -0.00412389,-0.00268442 -0.0144142,-0.00605939 -0.0308222,-0.0101735 -0.0220784,-0.00561199 -0.0374651,-0.0104167 -0.0459852,-0.0145309 -0.0085201,-0.0040558 -0.0150366,-0.00971642 -0.0194426,-0.0169235 -0.00439622,-0.00720708 -0.00663323,-0.0151533 -0.00663323,-0.0238485 0,-0.00794626 0.00182852,-0.0152701 0.00549527,-0.02202 0.00359867,-0.00679858 0.00857846,-0.0124106 0.0148129,-0.0168651 0.004688,-0.00343333 0.0110878,-0.00640953 0.0191508,-0.00881189 0.00812133,-0.00240236 0.0168165,-0.00359867 0.0260758,-0.00359867 0.013957,0 0.0261925,0.00206194 0.0367746,0.00605939 0.010582,0.00400717 0.0183532,0.00943436 0.0233914,0.016301 0.00502842,0.00691529 0.00846175,0.0160676 0.0103486,0.0275639l-0.0294508 0.0040558c-0.00137139,-0.00914258 -0.00526185,-0.0162913 -0.0116617,-0.0214462 -0.00640953,-0.00514513 -0.0155035,-0.00771283 -0.0272235,-0.00771283 -0.0138403,0 -0.0237318,0.00228564 -0.0296258,0.00685693 -0.00594268,0.00458102 -0.00891888,0.00994985 -0.00891888,0.0160676 0,0.00394882 0.00125467,0.0074405 0.00371539,0.010582 0.00246072,0.00325826 0.00629282,0.00589405 0.0115547,0.00806298 0.00302483,0.00108933 0.0118951,0.00365703 0.0266496,0.0076642 0.0213294,0.00571897 0.0362007,0.0103486 0.0446041,0.0140154 0.00846175,0.00359867 0.015095,0.00891888 0.0198997,0.0158342 0.00480472,0.00692502 0.00720708,0.0155035 0.00720708,0.0257937 0,0.0100666 -0.0029762,0.0195009 -0.00881189,0.0284198 -0.00588432,0.00887025 -0.0143461,0.0157272 -0.0253852,0.0205903 -0.0110392,0.00486307 -0.0235665,0.00726543 -0.0375137,0.00726543 -0.0231677,0 -0.0407817,-0.00480472 -0.0529005,-0.0144142 -0.0121188,-0.00960943 -0.0198413,-0.0238485 -0.023158,-0.0427172zm0.183737 -0.157778l0 -0.0347126 0.0301997 0 0 0.0347126 -0.0301997 0zm0 0.210902l0 -0.177911 0.0301997 0 0 0.177911 -0.0301997 0zm0.192208 -0.0219616c-0.0112045,0.00949272 -0.0219616,0.0161843 -0.0322519,0.0201331 -0.0103486,0.00389046 -0.0214462,0.00583569 -0.0332829,0.00583569 -0.0195593,0 -0.0345375,-0.00474636 -0.0450612,-0.0142974 -0.0104653,-0.00955108 -0.0157272,-0.0217866 -0.0157272,-0.0365995 0,-0.00875353 0.00194523,-0.0166998 0.00594268,-0.0239069 0.00394882,-0.00720708 0.0091523,-0.0129844 0.0155618,-0.017332 0.00645816,-0.00433786 0.0136652,-0.00765448 0.0217282,-0.00989149 0.00589405,-0.00153673 0.0148129,-0.00308319 0.0267664,-0.00451293 0.0243543,-0.00291784 0.0423185,-0.00635117 0.053805,-0.010407 0.000116714,-0.00412389 0.000175071,-0.00674995 0.000175071,-0.00783927 0,-0.0122939 -0.00285949,-0.020989 -0.00857846,-0.0259591 -0.0076642,-0.00686666 -0.0191605,-0.0102416 -0.0343138,-0.0102416 -0.0141807,0 -0.0246461,0.00246072 -0.0314544,0.0074405 -0.00674022,0.00497006 -0.01172,0.013782 -0.0149783,0.0264162l-0.0294508 -0.0040558c0.00268442,-0.0125856 0.00709036,-0.0228175 0.0132081,-0.0305401 0.00611775,-0.00778092 0.0150366,-0.013782 0.0266496,-0.0179545 0.011613,-0.00418224 0.0250448,-0.00629282 0.0403732,-0.00629282 0.0152117,0 0.0275055,0.00182852 0.0369983,0.00537856 0.00949272,0.00359867 0.0164761,0.00806298 0.020989,0.0134902 0.0044643,0.00543692 0.00754749,0.0122355 0.00937601,0.0205319 0.000972615,0.00514513 0.0014881,0.0144142 0.0014881,0.0277973l0 0.0401982c0,0.0280794 0.0006322,0.0458102 0.00194523,0.0531826 0.00125467,0.00743078 0.0038321,0.0145795 0.00760585,0.0213878l-0.0315127 0c-0.00308319,-0.00623446 -0.00514513,-0.0135485 -0.00600103,-0.0219616zm-0.00251907 -0.0673633c-0.0109808,0.00451293 -0.0273888,0.0082964 -0.0492338,0.0114379 -0.0124106,0.00177016 -0.0212127,0.00377375 -0.0263092,0.00600103 -0.00514513,0.00223701 -0.00914258,0.00549527 -0.0118951,0.00984286 -0.00280113,0.00428923 -0.00423087,0.00903559 -0.00423087,0.0142877 0,0.0080727 0.00309291,0.0147546 0.0091523,0.0201331 0.00605939,0.0053202 0.0149783,0.00800462 0.026708,0.00800462 0.0116033,0 0.0219616,-0.00250935 0.0309972,-0.00760585 0.00903559,-0.00508677 0.0157175,-0.0120604 0.0199581,-0.0208723 0.00325826,-0.00679858 0.00485335,-0.0168651 0.00485335,-0.0301316l0 -0.0110975zm0.0338567 0.0893249c-0.0063998,0.00389046 -0.0113212,0.00875353 -0.0148713,0.0144725 -0.00348196,0.00576761 -0.00526185,0.0116033 -0.00526185,0.0175557 0,0.004688 0.00132276,0.00862709 0.00389046,0.0118951 0.00251907,0.0031999 0.00674995,0.00485335 0.0125273,0.00485335 0.00257743,0 0.00520349,-0.000398772 0.00788791,-0.00113796 0.00269414,-0.000690556 0.00515486,-0.00166317 0.00738215,-0.00291784l0 0.0214462c-0.00817969,0.00393909 -0.0157272,0.00588432 -0.0228175,0.00588432 -0.00566062,0 -0.0106404,-0.000797544 -0.0148713,-0.00245099 -0.00423087,-0.00160481 -0.00782955,-0.0038321 -0.0106307,-0.00669159 -0.00285949,-0.00285949 -0.00497979,-0.00611775 -0.00640953,-0.0097845 -0.00137139,-0.00371539 -0.00206194,-0.0076642 -0.00206194,-0.0118951 0,-0.00714872 0.00200359,-0.0143558 0.00601076,-0.0215531 0.0040558,-0.00720708 0.00971642,-0.0137333 0.0170986,-0.019676l0.022127 0zm0.132665 -0.119632c0,-0.040772 0.0109225,-0.0726835 0.0328257,-0.0957345 0.0219033,-0.0230412 0.050148,-0.0345959 0.084812,-0.0345959 0.0226425,0 0.043116,0.00543692 0.0613039,0.0162427 0.0181782,0.0108641 0.0320768,0.0259591 0.0416279,0.0453433 0.00955108,0.0193356 0.0142974,0.0413459 0.0142974,0.0658849 0,0.0249281 -0.00497979,0.0472302 -0.0150366,0.0668478 -0.0100666,0.019676 -0.0243056,0.0345375 -0.042727,0.0446625 -0.01847,0.0101249 -0.0383113,0.0151533 -0.0596407,0.0151533 -0.023158,0 -0.0438066,-0.0055439 -0.0619945,-0.0167582 -0.0182365,-0.0111462 -0.0320185,-0.0264162 -0.0413945,-0.0457421 -0.00938573,-0.0192772 -0.0140737,-0.0397508 -0.0140737,-0.0613039zm0.0335163 0.000515486c0,0.0296161 0.00794626,0.0528908 0.0238388,0.069931 0.0159606,0.0170499 0.0359187,0.02557 0.0599325,0.02557 0.0244807,0 0.0446041,-0.00857846 0.0603896,-0.0257937 0.0157855,-0.0172153 0.0237318,-0.0416279 0.0237318,-0.0732573 0,-0.0199581 -0.0034236,-0.037397 -0.0101735,-0.0523267 -0.00674995,-0.0149199 -0.0166414,-0.0264746 -0.0296258,-0.0347126 -0.0130428,-0.00817969 -0.0276223,-0.0122939 -0.0438066,-0.0122939 -0.0230412,0 -0.042834,0.00789763 -0.059417,0.0237318 -0.0165831,0.0157855 -0.0248698,0.0422018 -0.0248698,0.0791514zm0.312462 0.119116l0 -0.104021 -0.0946451 -0.141593 0.0395173 0 0.0484362 0.0740549c0.00891888,0.0138403 0.0172153,0.0276806 0.0249281,0.0415793 0.00738215,-0.0128677 0.016301,-0.0273402 0.0268247,-0.0434078l0.0475803 -0.0722264 0.0378542 0 -0.0980201 0.141593 0 0.104021 -0.0324756 0zm-1.80474 0.383317l0.0650193 -0.0924665 -0.0601659 -0.0854442 0.0376888 0 0.0273402 0.041696c0.00508677,0.00794626 0.00925929,0.0145795 0.0123522,0.0199581 0.0049117,-0.00738215 0.00943436,-0.0138987 0.0136069,-0.0196176l0.0299663 -0.0420364 0.0360256 0 -0.0614693 0.083781 0.0661573 0.0941297 -0.0369983 0 -0.0365411 -0.0553029 -0.00971642 -0.0149199 -0.0467244 0.0702228 -0.0365411 0zm0.445652 -0.144394l-0.162184 0 0 -0.0281961 0.162184 0 0 0.0281961zm0 0.074512l-0.162184 0 0 -0.0281377 0.162184 0 0 0.0281377zm0.128657 -0.0512373c0,-0.029052 0.0029762,-0.0524434 0.00897723,-0.0701158 0.0059524,-0.017721 0.0148713,-0.031396 0.0266496,-0.0409957 0.0117784,-0.00960943 0.0265913,-0.0144142 0.0444388,-0.0144142 0.0132081,0 0.024753,0.00268442 0.0347126,0.00800462 0.00994985,0.00526185 0.0181198,0.012926 0.0246461,0.0229343 0.00645816,0.0100082 0.0115449,0.0221853 0.0152117,0.0365411 0.00371539,0.0143558 0.0055439,0.0336816 0.0055439,0.0580456 0,0.0288186 -0.0029762,0.0520349 -0.00886052,0.0697657 -0.0059524,0.0177308 -0.0148129,0.031396 -0.0265913,0.0410638 -0.0117881,0.00965806 -0.0266496,0.0144628 -0.0446625,0.0144628 -0.0236832,0 -0.0422698,-0.00846175 -0.05576,-0.0254436 -0.0161843,-0.0204152 -0.0243056,-0.0537564 -0.0243056,-0.0998486zm0.0309972 0c0,0.0403149 0.00474636,0.0671396 0.0141807,0.080513 0.00943436,0.0133248 0.0210474,0.0200164 0.0348877,0.0200164 0.0138889,0 0.025502,-0.00674022 0.0349363,-0.0201234 0.00943436,-0.0133832 0.0141807,-0.0402079 0.0141807,-0.0804061 0,-0.0404316 -0.00474636,-0.0673147 -0.0141807,-0.0805811 -0.00943436,-0.0133248 -0.0211544,-0.0199581 -0.0352281,-0.0199581 -0.0138987,0 -0.0249281,0.00589405 -0.0332245,0.0176141 -0.0103486,0.0149296 -0.0155521,0.0426103 -0.0155521,0.0829251z"/>
   <polygon id="_137667208" class="fil3" points="5.72228,2.1067 6.06506,1.82587 6.0466,1.80331 5.70381,2.08415 5.64593,2.01351 5.54926,2.22961 5.78012,2.1773 "/>
   <polygon id="_132034160" class="fil3" points="6.52701,3.40548 6.44782,3.76201 6.4762,3.76827 6.55538,3.41179 6.64457,3.4316 6.5871,3.20194 6.43787,3.38569 "/>
   <path id="_132643256" class="fil3" d="M4.55999 4.19284l0 -0.246081 0.0274569 0 0 0.0231093c0.00645816,-0.00903559 0.013782,-0.0158439 0.0219519,-0.0203568 0.00812133,-0.00452266 0.0180128,-0.0068083 0.0296258,-0.0068083 0.0152117,0 0.0285949,0.00394882 0.0401982,0.01172 0.0116714,0.00783927 0.0204152,0.0188785 0.0263092,0.0331175 0.0059524,0.0142391 0.00891888,0.0298495 0.00891888,0.0468314 0,0.0181879 -0.00325826,0.0345959 -0.00983313,0.0491851 -0.00651652,0.0145795 -0.0160092,0.0257257 -0.0284782,0.0335066 -0.0124689,0.00772256 -0.0255603,0.011613 -0.0392839,0.011613 -0.0100666,0 -0.0190438,-0.0021203 -0.0270484,-0.00635117 -0.00801435,-0.00423087 -0.0145309,-0.00960943 -0.019676,-0.0160676l0 0.0865822 -0.0301413 0zm0.0272818 -0.156124c0,0.0228759 0.00462965,0.0397994 0.0138987,0.0507802 0.00925929,0.0109225 0.0205319,0.0164177 0.0336816,0.0164177 0.0133832,0 0.0248698,-0.00566062 0.0344208,-0.0170402 0.00955108,-0.011331 0.0143558,-0.0288867 0.0143558,-0.0526768 0,-0.0227008 -0.004688,-0.0396243 -0.0140057,-0.0509456 -0.00932738,-0.0112726 -0.0204735,-0.0169332 -0.0333996,-0.0169332 -0.0128677,0 -0.0242473,0.00601076 -0.0341388,0.0180128 -0.00989149,0.0120118 -0.0148129,0.0295091 -0.0148129,0.052385zm0.163205 0.0879535l0 -0.177911 0.0271068 0 0 0.0269414c0.00691529,-0.0125856 0.0133248,-0.0209307 0.0192189,-0.0249378 0.00582596,-0.00399745 0.0122939,-0.00605939 0.0193259,-0.00605939 0.0101833,0 0.0204735,0.00325826 0.0309972,0.00971642l-0.010407 0.028021c-0.00732379,-0.00439622 -0.0146962,-0.00657488 -0.0220784,-0.00657488 -0.00663323,0 -0.0125273,0.00200359 -0.0177891,0.0059524 -0.00525212,0.00399745 -0.00897723,0.00949272 -0.0112045,0.0165247 -0.00337497,0.0106988 -0.00502842,0.0224188 -0.00502842,0.0351697l0 0.093157 -0.0301413 0zm0.0986523 0l0 -0.024471 0.11329 -0.12999c-0.0128677,0.000690556 -0.0241987,0.000972615 -0.0340318,0.000972615l-0.0725668 0 0 -0.0244224 0.145425 0 0 0.0198997 -0.0963083 0.11295 -0.0185769 0.0205903c0.0134902,-0.000972615 0.0261828,-0.0014881 0.0380292,-0.0014881l0.0822346 0 0 0.0259591 -0.157496 0zm0.309262 -0.0572967l0.0311723 0.0038321c-0.00492143,0.0182365 -0.0140154,0.0323589 -0.0272818,0.0424255 -0.0133248,0.0100082 -0.0303067,0.0150463 -0.0509553,0.0150463 -0.0260174,0 -0.0466661,-0.00801435 -0.0618777,-0.0240236 -0.0152603,-0.0160092 -0.0228662,-0.0384864 -0.0228662,-0.0674217 0,-0.0299663 0.00771283,-0.0531826 0.0230996,-0.0697073 0.0154354,-0.0165345 0.0353934,-0.0248211 0.0599909,-0.0248211 0.0237902,0 0.0432327,0.00812133 0.0582693,0.0243056 0.015095,0.0161843 0.0226425,0.0390019 0.0226425,0.0683359 0,0.00182852 -4.86307e-005,0.00451293 -0.000165345,0.00806298l-0.132674 0c0.00108933,0.0195593 0.00663323,0.0345375 0.0165831,0.0448959 0.00994985,0.010407 0.0223021,0.0156105 0.0371733,0.0156105 0.0110392,0 0.0204735,-0.00291784 0.0283031,-0.00875353 0.00783927,-0.00577733 0.0140154,-0.0150366 0.0185867,-0.0277876zm-0.0989927 -0.0487864l0.0993331 0c-0.00131303,-0.0149199 -0.00514513,-0.0261925 -0.0113796,-0.0336233 -0.00959971,-0.011613 -0.0220686,-0.017439 -0.0373387,-0.017439 -0.0138403,0 -0.025502,0.00462965 -0.034946,0.0138889 -0.00943436,0.00926902 -0.0146379,0.0216796 -0.0156688,0.0371733zm0.284159 0.0408887l0.0296258 0.00389046c-0.00320963,0.0204152 -0.0114963,0.0364244 -0.0248795,0.0479791 -0.0133248,0.0115547 -0.0297328,0.017332 -0.0491754,0.017332 -0.0243056,0 -0.0439233,-0.00795599 -0.0586778,-0.0238485 -0.0148129,-0.0159023 -0.0222437,-0.0387198 -0.0222437,-0.0684526 0,-0.0192189 0.0031999,-0.0360256 0.00955108,-0.0504398 0.0063998,-0.0144142 0.0160676,-0.0252199 0.0291006,-0.032427 0.0129844,-0.00720708 0.0271651,-0.0108057 0.0424352,-0.0108057 0.0193356,0 0.0351697,0.00492143 0.0474052,0.0146962 0.0123036,0.00977478 0.0201915,0.0236151 0.0236832,0.0416279l-0.0293438 0.00452266c-0.00280113,-0.0119534 -0.00771283,-0.0209307 -0.0148032,-0.0269901 -0.00710009,-0.00601076 -0.0156688,-0.00903559 -0.0257354,-0.00903559 -0.0152117,0 -0.0275639,0.00542719 -0.0370566,0.0163497 -0.00949272,0.0108641 -0.0142391,0.0280794 -0.0142391,0.0516458 0,0.0238971 0.00457129,0.0412875 0.013782,0.0521516 0.00914258,0.0108057 0.021096,0.0162427 0.0358506,0.0162427 0.0118367,0 0.0216796,-0.00366676 0.0296258,-0.0109225 0.00794626,-0.00726543 0.0129844,-0.0184213 0.015095,-0.0335163zm0.0555849 -0.145707l0 -0.0347126 0.0301997 0 0 0.0347126 -0.0301997 0zm0 0.210902l0 -0.177911 0.0301997 0 0 0.177911 -0.0301997 0zm0.197869 -0.0572967l0.0311723 0.0038321c-0.00492143,0.0182365 -0.0140154,0.0323589 -0.0272818,0.0424255 -0.0133248,0.0100082 -0.0303067,0.0150463 -0.0509553,0.0150463 -0.0260174,0 -0.0466661,-0.00801435 -0.0618777,-0.0240236 -0.0152603,-0.0160092 -0.0228662,-0.0384864 -0.0228662,-0.0674217 0,-0.0299663 0.00771283,-0.0531826 0.0230996,-0.0697073 0.0154354,-0.0165345 0.0353934,-0.0248211 0.0599909,-0.0248211 0.0237902,0 0.0432327,0.00812133 0.0582693,0.0243056 0.015095,0.0161843 0.0226425,0.0390019 0.0226425,0.0683359 0,0.00182852 -4.86307e-005,0.00451293 -0.000165345,0.00806298l-0.132674 0c0.00108933,0.0195593 0.00663323,0.0345375 0.0165831,0.0448959 0.00994985,0.010407 0.0223021,0.0156105 0.0371733,0.0156105 0.0110392,0 0.0204735,-0.00291784 0.0283031,-0.00875353 0.00783927,-0.00577733 0.0140154,-0.0150366 0.0185867,-0.0277876zm-0.0989927 -0.0487864l0.0993331 0c-0.00131303,-0.0149199 -0.00514513,-0.0261925 -0.0113796,-0.0336233 -0.00959971,-0.011613 -0.0220686,-0.017439 -0.0373387,-0.017439 -0.0138403,0 -0.025502,0.00462965 -0.034946,0.0138889 -0.00943436,0.00926902 -0.0146379,0.0216796 -0.0156688,0.0371733zm0.07778 0.106083c-0.00640953,0.00389046 -0.0113212,0.00875353 -0.0148713,0.0144725 -0.00349169,0.00576761 -0.00526185,0.0116033 -0.00526185,0.0175557 0,0.004688 0.00131303,0.00862709 0.00389046,0.0118951 0.00251907,0.0031999 0.00674995,0.00485335 0.0125273,0.00485335 0.0025677,0 0.00520349,-0.000398772 0.00788791,-0.00113796 0.00268442,-0.000690556 0.00514513,-0.00166317 0.00737242,-0.00291784l0 0.0214462c-0.00816996,0.00393909 -0.0157175,0.00588432 -0.0228078,0.00588432 -0.00567034,0 -0.0106404,-0.000797544 -0.0148713,-0.00245099 -0.00423087,-0.00160481 -0.00783927,-0.0038321 -0.0106404,-0.00669159 -0.00285949,-0.00285949 -0.00497006,-0.00611775 -0.0063998,-0.0097845 -0.00137139,-0.00371539 -0.00206194,-0.0076642 -0.00206194,-0.0118951 0,-0.00714872 0.00200359,-0.0143558 0.00600103,-0.0215531 0.00406553,-0.00720708 0.00972615,-0.0137333 0.0170986,-0.019676l0.0221367 0zm0.206379 -0.0651944l0.0296258 0.00389046c-0.00320963,0.0204152 -0.0114963,0.0364244 -0.0248795,0.0479791 -0.0133248,0.0115547 -0.0297328,0.017332 -0.0491754,0.017332 -0.0243056,0 -0.0439233,-0.00795599 -0.0586778,-0.0238485 -0.0148129,-0.0159023 -0.0222437,-0.0387198 -0.0222437,-0.0684526 0,-0.0192189 0.0031999,-0.0360256 0.00955108,-0.0504398 0.0063998,-0.0144142 0.0160676,-0.0252199 0.0291006,-0.032427 0.0129844,-0.00720708 0.0271651,-0.0108057 0.0424352,-0.0108057 0.0193356,0 0.0351697,0.00492143 0.0474052,0.0146962 0.0123036,0.00977478 0.0201915,0.0236151 0.0236832,0.0416279l-0.0293438 0.00452266c-0.00280113,-0.0119534 -0.00771283,-0.0209307 -0.0148032,-0.0269901 -0.00710009,-0.00601076 -0.0156688,-0.00903559 -0.0257354,-0.00903559 -0.0152117,0 -0.0275639,0.00542719 -0.0370566,0.0163497 -0.00949272,0.0108641 -0.0142391,0.0280794 -0.0142391,0.0516458 0,0.0238971 0.00457129,0.0412875 0.013782,0.0521516 0.00914258,0.0108057 0.021096,0.0162427 0.0358506,0.0162427 0.0118367,0 0.0216796,-0.00366676 0.0296258,-0.0109225 0.00794626,-0.00726543 0.0129844,-0.0184213 0.015095,-0.0335163zm0.0555849 -0.145707l0 -0.0347126 0.0301997 0 0 0.0347126 -0.0301997 0zm0 0.210902l0 -0.177911 0.0301997 0 0 0.177911 -0.0301997 0zm0.197869 -0.0572967l0.0311723 0.0038321c-0.00492143,0.0182365 -0.0140154,0.0323589 -0.0272818,0.0424255 -0.0133248,0.0100082 -0.0303067,0.0150463 -0.0509553,0.0150463 -0.0260174,0 -0.0466661,-0.00801435 -0.0618777,-0.0240236 -0.0152603,-0.0160092 -0.0228662,-0.0384864 -0.0228662,-0.0674217 0,-0.0299663 0.00771283,-0.0531826 0.0230996,-0.0697073 0.0154354,-0.0165345 0.0353934,-0.0248211 0.0599909,-0.0248211 0.0237902,0 0.0432327,0.00812133 0.0582693,0.0243056 0.015095,0.0161843 0.0226425,0.0390019 0.0226425,0.0683359 0,0.00182852 -4.86307e-005,0.00451293 -0.000165345,0.00806298l-0.132674 0c0.00108933,0.0195593 0.00663323,0.0345375 0.0165831,0.0448959 0.00994985,0.010407 0.0223021,0.0156105 0.0371733,0.0156105 0.0110392,0 0.0204735,-0.00291784 0.0283031,-0.00875353 0.00783927,-0.00577733 0.0140154,-0.0150366 0.0185867,-0.0277876zm-0.0989927 -0.0487864l0.0993331 0c-0.00131303,-0.0149199 -0.00514513,-0.0261925 -0.0113796,-0.0336233 -0.00959971,-0.011613 -0.0220686,-0.017439 -0.0373387,-0.017439 -0.0138403,0 -0.025502,0.00462965 -0.034946,0.0138889 -0.00943436,0.00926902 -0.0146379,0.0216796 -0.0156688,0.0371733zm0.247443 0.106083l0 -0.024471 0.11329 -0.12999c-0.0128677,0.000690556 -0.0241987,0.000972615 -0.0340318,0.000972615l-0.0725668 0 0 -0.0244224 0.145425 0 0 0.0198997 -0.0963083 0.11295 -0.0185769 0.0205903c0.0134902,-0.000972615 0.0261828,-0.0014881 0.0380292,-0.0014881l0.0822346 0 0 0.0259591 -0.157496 0zm0.271573 -0.0889845c0,-0.0329327 0.0091523,-0.0573551 0.0275055,-0.073199 0.0152701,-0.0131498 0.0339151,-0.019783 0.0559253,-0.019783 0.0244807,0 0.0444971,0.00800462 0.0599909,0.0240722 0.0155618,0.016019 0.0232747,0.0381459 0.0232747,0.0664004 0,0.0229245 -0.0034236,0.0409374 -0.0102903,0.0540385 -0.00686666,0.0131498 -0.0168749,0.023333 -0.0299663,0.0305887 -0.0131498,0.00726543 -0.0274472,0.0108738 -0.043009,0.0108738 -0.0248698,0 -0.0450029,-0.00795599 -0.0603799,-0.0239652 -0.0153868,-0.0159509 -0.023051,-0.0389435 -0.023051,-0.0690265zm0.0309972 0c0,0.0228175 0.00497006,0.0398578 0.0149199,0.0511887 0.00994985,0.0113796 0.0224771,0.0170402 0.0375137,0.0170402 0.014988,0 0.0274569,-0.00571897 0.0374068,-0.0170986 0.00989149,-0.0113796 0.0148713,-0.0287699 0.0148713,-0.052103 0,-0.0220103 -0.00497979,-0.0387101 -0.014988,-0.0500313 -0.0100082,-0.011331 -0.0224188,-0.0169916 -0.03729,-0.0169916 -0.0150366,0 -0.0275639,0.00566062 -0.0375137,0.0169332 -0.00994985,0.0112629 -0.0149199,0.0283031 -0.0149199,0.0510623zm0.159032 0.0358603l0.0297912 -0.004688c0.00166317,0.0119534 0.00635117,0.021096 0.0140154,0.0275055 0.00760585,0.00634145 0.0182949,0.00955108 0.0320768,0.00955108 0.0138403,0 0.0241306,-0.00285949 0.0308222,-0.00847147 0.00669159,-0.00566062 0.0100666,-0.0122939 0.0100666,-0.0198413 0,-0.00685693 -0.0029762,-0.0121771 -0.00891888,-0.016126 -0.00412389,-0.00268442 -0.0144142,-0.00605939 -0.0308222,-0.0101735 -0.0220784,-0.00561199 -0.0374651,-0.0104167 -0.0459852,-0.0145309 -0.0085201,-0.0040558 -0.0150366,-0.00971642 -0.0194426,-0.0169235 -0.00439622,-0.00720708 -0.00663323,-0.0151533 -0.00663323,-0.0238485 0,-0.00794626 0.00182852,-0.0152701 0.00549527,-0.02202 0.00359867,-0.00679858 0.00857846,-0.0124106 0.0148129,-0.0168651 0.004688,-0.00343333 0.0110878,-0.00640953 0.0191508,-0.00881189 0.00812133,-0.00240236 0.0168165,-0.00359867 0.0260758,-0.00359867 0.013957,0 0.0261925,0.00206194 0.0367746,0.00605939 0.010582,0.00400717 0.0183532,0.00943436 0.0233914,0.016301 0.00502842,0.00691529 0.00846175,0.0160676 0.0103486,0.0275639l-0.0294508 0.0040558c-0.00137139,-0.00914258 -0.00526185,-0.0162913 -0.0116617,-0.0214462 -0.00640953,-0.00514513 -0.0155035,-0.00771283 -0.0272235,-0.00771283 -0.0138403,0 -0.0237318,0.00228564 -0.0296258,0.00685693 -0.00594268,0.00458102 -0.00891888,0.00994985 -0.00891888,0.0160676 0,0.00394882 0.00125467,0.0074405 0.00371539,0.010582 0.00246072,0.00325826 0.00629282,0.00589405 0.0115547,0.00806298 0.00302483,0.00108933 0.0118951,0.00365703 0.0266496,0.0076642 0.0213294,0.00571897 0.0362007,0.0103486 0.0446041,0.0140154 0.00846175,0.00359867 0.015095,0.00891888 0.0198997,0.0158342 0.00480472,0.00692502 0.00720708,0.0155035 0.00720708,0.0257937 0,0.0100666 -0.0029762,0.0195009 -0.00881189,0.0284198 -0.00588432,0.00887025 -0.0143461,0.0157272 -0.0253852,0.0205903 -0.0110392,0.00486307 -0.0235665,0.00726543 -0.0375137,0.00726543 -0.0231677,0 -0.0407817,-0.00480472 -0.0529005,-0.0144142 -0.0121188,-0.00960943 -0.0198413,-0.0238485 -0.023158,-0.0427172zm0.183737 -0.157778l0 -0.0347126 0.0301997 0 0 0.0347126 -0.0301997 0zm0 0.210902l0 -0.177911 0.0301997 0 0 0.177911 -0.0301997 0zm0.192208 -0.0219616c-0.0112045,0.00949272 -0.0219616,0.0161843 -0.0322519,0.0201331 -0.0103486,0.00389046 -0.0214462,0.00583569 -0.0332829,0.00583569 -0.0195593,0 -0.0345375,-0.00474636 -0.0450612,-0.0142974 -0.0104653,-0.00955108 -0.0157272,-0.0217866 -0.0157272,-0.0365995 0,-0.00875353 0.00194523,-0.0166998 0.00594268,-0.0239069 0.00394882,-0.00720708 0.0091523,-0.0129844 0.0155618,-0.017332 0.00645816,-0.00433786 0.0136652,-0.00765448 0.0217282,-0.00989149 0.00589405,-0.00153673 0.0148129,-0.00308319 0.0267664,-0.00451293 0.0243543,-0.00291784 0.0423185,-0.00635117 0.053805,-0.010407 0.000116714,-0.00412389 0.000175071,-0.00674995 0.000175071,-0.00783927 0,-0.0122939 -0.00285949,-0.020989 -0.00857846,-0.0259591 -0.0076642,-0.00686666 -0.0191605,-0.0102416 -0.0343138,-0.0102416 -0.0141807,0 -0.0246461,0.00246072 -0.0314544,0.0074405 -0.00674022,0.00497006 -0.01172,0.013782 -0.0149783,0.0264162l-0.0294508 -0.0040558c0.00268442,-0.0125856 0.00709036,-0.0228175 0.0132081,-0.0305401 0.00611775,-0.00778092 0.0150366,-0.013782 0.0266496,-0.0179545 0.011613,-0.00418224 0.0250448,-0.00629282 0.0403732,-0.00629282 0.0152117,0 0.0275055,0.00182852 0.0369983,0.00537856 0.00949272,0.00359867 0.0164761,0.00806298 0.020989,0.0134902 0.0044643,0.00543692 0.00754749,0.0122355 0.00937601,0.0205319 0.000972615,0.00514513 0.0014881,0.0144142 0.0014881,0.0277973l0 0.0401982c0,0.0280794 0.0006322,0.0458102 0.00194523,0.0531826 0.00125467,0.00743078 0.0038321,0.0145795 0.00760585,0.0213878l-0.0315127 0c-0.00308319,-0.00623446 -0.00514513,-0.0135485 -0.00600103,-0.0219616zm-0.00251907 -0.0673633c-0.0109808,0.00451293 -0.0273888,0.0082964 -0.0492338,0.0114379 -0.0124106,0.00177016 -0.0212127,0.00377375 -0.0263092,0.00600103 -0.00514513,0.00223701 -0.00914258,0.00549527 -0.0118951,0.00984286 -0.00280113,0.00428923 -0.00423087,0.00903559 -0.00423087,0.0142877 0,0.0080727 0.00309291,0.0147546 0.0091523,0.0201331 0.00605939,0.0053202 0.0149783,0.00800462 0.026708,0.00800462 0.0116033,0 0.0219616,-0.00250935 0.0309972,-0.00760585 0.00903559,-0.00508677 0.0157175,-0.0120604 0.0199581,-0.0208723 0.00325826,-0.00679858 0.00485335,-0.0168651 0.00485335,-0.0301316l0 -0.0110975zm0.0338567 0.0893249c-0.0063998,0.00389046 -0.0113212,0.00875353 -0.0148713,0.0144725 -0.00348196,0.00576761 -0.00526185,0.0116033 -0.00526185,0.0175557 0,0.004688 0.00132276,0.00862709 0.00389046,0.0118951 0.00251907,0.0031999 0.00674995,0.00485335 0.0125273,0.00485335 0.00257743,0 0.00520349,-0.000398772 0.00788791,-0.00113796 0.00269414,-0.000690556 0.00515486,-0.00166317 0.00738215,-0.00291784l0 0.0214462c-0.00817969,0.00393909 -0.0157272,0.00588432 -0.0228175,0.00588432 -0.00566062,0 -0.0106404,-0.000797544 -0.0148713,-0.00245099 -0.00423087,-0.00160481 -0.00782955,-0.0038321 -0.0106307,-0.00669159 -0.00285949,-0.00285949 -0.00497979,-0.00611775 -0.00640953,-0.0097845 -0.00137139,-0.00371539 -0.00206194,-0.0076642 -0.00206194,-0.0118951 0,-0.00714872 0.00200359,-0.0143558 0.00601076,-0.0215531 0.0040558,-0.00720708 0.00971642,-0.0137333 0.0170986,-0.019676l0.022127 0zm0.132665 -0.119632c0,-0.040772 0.0109225,-0.0726835 0.0328257,-0.0957345 0.0219033,-0.0230412 0.050148,-0.0345959 0.084812,-0.0345959 0.0226425,0 0.043116,0.00543692 0.0613039,0.0162427 0.0181782,0.0108641 0.0320768,0.0259591 0.0416279,0.0453433 0.00955108,0.0193356 0.0142974,0.0413459 0.0142974,0.0658849 0,0.0249281 -0.00497979,0.0472302 -0.0150366,0.0668478 -0.0100666,0.019676 -0.0243056,0.0345375 -0.042727,0.0446625 -0.01847,0.0101249 -0.0383113,0.0151533 -0.0596407,0.0151533 -0.023158,0 -0.0438066,-0.0055439 -0.0619945,-0.0167582 -0.0182365,-0.0111462 -0.0320185,-0.0264162 -0.0413945,-0.0457421 -0.00938573,-0.0192772 -0.0140737,-0.0397508 -0.0140737,-0.0613039zm0.0335163 0.000515486c0,0.0296161 0.00794626,0.0528908 0.0238388,0.069931 0.0159606,0.0170499 0.0359187,0.02557 0.0599325,0.02557 0.0244807,0 0.0446041,-0.00857846 0.0603896,-0.0257937 0.0157855,-0.0172153 0.0237318,-0.0416279 0.0237318,-0.0732573 0,-0.0199581 -0.0034236,-0.037397 -0.0101735,-0.0523267 -0.00674995,-0.0149199 -0.0166414,-0.0264746 -0.0296258,-0.0347126 -0.0130428,-0.00817969 -0.0276223,-0.0122939 -0.0438066,-0.0122939 -0.0230412,0 -0.042834,0.00789763 -0.059417,0.0237318 -0.0165831,0.0157855 -0.0248698,0.0422018 -0.0248698,0.0791514zm0.218274 0.119116l0.0950439 -0.127986 -0.083781 -0.117628 0.0386614 0 0.0446041 0.0630157c0.00925929,0.0130428 0.0158439,0.0231093 0.0197246,0.0301413 0.00549527,-0.00891888 0.0119534,-0.0182463 0.0194523,-0.0279627l0.0494575 -0.0651944 0.0353448 0 -0.0862904 0.115741 0.092982 0.129873 -0.0401982 0 -0.0618194 -0.0876131c-0.00349169,-0.00502842 -0.00704173,-0.0105237 -0.0107571,-0.016408 -0.00548555,0.00891888 -0.00937601,0.0150366 -0.01172,0.0184116l-0.0616443 0.0856095 -0.0390602 0zm-1.6918 0.451828l-0.00337497 -0.0283128c0.00663323,0.00177988 0.0123522,0.00269414 0.0172736,0.00269414 0.00669159,0 0.0120701,-0.00114769 0.0160676,-0.00337497 0.00406553,-0.00222729 0.00732379,-0.0053202 0.00989149,-0.00937601 0.00194523,-0.0029762 0.00497979,-0.0104653 0.00921066,-0.0224188 0.000573843,-0.00172153 0.0014881,-0.00412389 0.00268442,-0.00738215l-0.06748 -0.178251 0.0324853 0 0.0370566 0.103c0.00474636,0.0130914 0.00909395,0.026815 0.0128677,0.0412291 0.00349169,-0.0138403 0.00760585,-0.0273402 0.0124106,-0.0405483l0.0380292 -0.103681 0.0301316 0 -0.0676454 0.180945c-0.00726543,0.0195496 -0.012926,0.0329911 -0.0169332,0.0403732 -0.00536883,0.00994985 -0.0114866,0.0172056 -0.0184116,0.0218449 -0.00697365,0.00462965 -0.0152117,0.00697365 -0.0248211,0.00697365 -0.00582596,0 -0.0122939,-0.00125467 -0.0194426,-0.00371539zm0.4269 -0.212905l-0.162184 0 0 -0.0281961 0.162184 0 0 0.0281961zm0 0.074512l-0.162184 0 0 -0.0281377 0.162184 0 0 0.0281377zm0.128657 -0.0512373c0,-0.029052 0.0029762,-0.0524434 0.00897723,-0.0701158 0.0059524,-0.017721 0.0148713,-0.031396 0.0266496,-0.0409957 0.0117784,-0.00960943 0.0265913,-0.0144142 0.0444388,-0.0144142 0.0132081,0 0.024753,0.00268442 0.0347126,0.00800462 0.00994985,0.00526185 0.0181198,0.012926 0.0246461,0.0229343 0.00645816,0.0100082 0.0115449,0.0221853 0.0152117,0.0365411 0.00371539,0.0143558 0.0055439,0.0336816 0.0055439,0.0580456 0,0.0288186 -0.0029762,0.0520349 -0.00886052,0.0697657 -0.0059524,0.0177308 -0.0148129,0.031396 -0.0265913,0.0410638 -0.0117881,0.00965806 -0.0266496,0.0144628 -0.0446625,0.0144628 -0.0236832,0 -0.0422698,-0.00846175 -0.05576,-0.0254436 -0.0161843,-0.0204152 -0.0243056,-0.0537564 -0.0243056,-0.0998486zm0.0309972 0c0,0.0403149 0.00474636,0.0671396 0.0141807,0.080513 0.00943436,0.0133248 0.0210474,0.0200164 0.0348877,0.0200164 0.0138889,0 0.025502,-0.00674022 0.0349363,-0.0201234 0.00943436,-0.0133832 0.0141807,-0.0402079 0.0141807,-0.0804061 0,-0.0404316 -0.00474636,-0.0673147 -0.0141807,-0.0805811 -0.00943436,-0.0133248 -0.0211544,-0.0199581 -0.0352281,-0.0199581 -0.0138987,0 -0.0249281,0.00589405 -0.0332245,0.0176141 -0.0103486,0.0149296 -0.0155521,0.0426103 -0.0155521,0.0829251z"/>
  </g>
 </g>
</svg>
